<?xml version="1.0" encoding="UTF-8" standalone="no"?>
<!DOCTYPE svg PUBLIC "-//W3C//DTD SVG 1.1//EN"
 "http://www.w3.org/Graphics/SVG/1.1/DTD/svg11.dtd">
<!-- Generated by graphviz version 2.36.0 (20140111.2315)
 -->
<!-- Title: G Pages: 1 -->
<svg width="1086pt" height="2710pt"
 viewBox="0.00 0.00 1086.00 2710.00" xmlns="http://www.w3.org/2000/svg" xmlns:xlink="http://www.w3.org/1999/xlink">
<g id="graph0" class="graph" transform="scale(1 1) rotate(0) translate(4 2706)">
<title>G</title>
<polygon fill="white" stroke="none" points="-4,4 -4,-2706 1082,-2706 1082,4 -4,4"/>
<g id="clust1" class="cluster"><title>cluster_Global</title>
<path fill="none" stroke="gray" d="M445,-352C445,-352 1058,-352 1058,-352 1064,-352 1070,-358 1070,-364 1070,-364 1070,-2682 1070,-2682 1070,-2688 1064,-2694 1058,-2694 1058,-2694 445,-2694 445,-2694 439,-2694 433,-2688 433,-2682 433,-2682 433,-364 433,-364 433,-358 439,-352 445,-352"/>
<text text-anchor="middle" x="751.5" y="-2681.2" font-family="Times,serif" font-size="11.00" fill="gray">Global</text>
</g>
<g id="clust2" class="cluster"><title>cluster_\WebinoDev</title>
<path fill="none" stroke="gray" d="M453,-360C453,-360 1050,-360 1050,-360 1056,-360 1062,-366 1062,-372 1062,-372 1062,-2654 1062,-2654 1062,-2660 1056,-2666 1050,-2666 1050,-2666 453,-2666 453,-2666 447,-2666 441,-2660 441,-2654 441,-2654 441,-372 441,-372 441,-366 447,-360 453,-360"/>
<text text-anchor="middle" x="751.5" y="-2653.2" font-family="Times,serif" font-size="11.00" fill="gray">WebinoDev</text>
</g>
<g id="clust3" class="cluster"><title>cluster_\WebinoDev\Assetic</title>
<path fill="none" stroke="gray" d="M865,-2530C865,-2530 991,-2530 991,-2530 997,-2530 1003,-2536 1003,-2542 1003,-2542 1003,-2626 1003,-2626 1003,-2632 997,-2638 991,-2638 991,-2638 865,-2638 865,-2638 859,-2638 853,-2632 853,-2626 853,-2626 853,-2542 853,-2542 853,-2536 859,-2530 865,-2530"/>
<text text-anchor="middle" x="928" y="-2625.2" font-family="Times,serif" font-size="11.00" fill="gray">Assetic</text>
</g>
<g id="clust4" class="cluster"><title>cluster_\WebinoDev\Assetic\Cache</title>
<path fill="none" stroke="gray" d="M873,-2538C873,-2538 983,-2538 983,-2538 989,-2538 995,-2544 995,-2550 995,-2550 995,-2598 995,-2598 995,-2604 989,-2610 983,-2610 983,-2610 873,-2610 873,-2610 867,-2610 861,-2604 861,-2598 861,-2598 861,-2550 861,-2550 861,-2544 867,-2538 873,-2538"/>
<text text-anchor="middle" x="928" y="-2597.2" font-family="Times,serif" font-size="11.00" fill="gray">Cache</text>
</g>
<g id="clust5" class="cluster"><title>cluster_\WebinoDev\Vfs</title>
<path fill="none" stroke="gray" d="M880,-2450C880,-2450 976,-2450 976,-2450 982,-2450 988,-2456 988,-2462 988,-2462 988,-2510 988,-2510 988,-2516 982,-2522 976,-2522 976,-2522 880,-2522 880,-2522 874,-2522 868,-2516 868,-2510 868,-2510 868,-2462 868,-2462 868,-2456 874,-2450 880,-2450"/>
<text text-anchor="middle" x="928" y="-2509.2" font-family="Times,serif" font-size="11.00" fill="gray">Vfs</text>
</g>
<g id="clust6" class="cluster"><title>cluster_\WebinoDev\Config</title>
<path fill="none" stroke="gray" d="M885,-2280C885,-2280 971,-2280 971,-2280 977,-2280 983,-2286 983,-2292 983,-2292 983,-2430 983,-2430 983,-2436 977,-2442 971,-2442 971,-2442 885,-2442 885,-2442 879,-2442 873,-2436 873,-2430 873,-2430 873,-2292 873,-2292 873,-2286 879,-2280 885,-2280"/>
<text text-anchor="middle" x="928" y="-2429.2" font-family="Times,serif" font-size="11.00" fill="gray">Config</text>
</g>
<g id="clust7" class="cluster"><title>cluster_\WebinoDev\Config\App</title>
<path fill="none" stroke="gray" d="M893,-2288C893,-2288 963,-2288 963,-2288 969,-2288 975,-2294 975,-2300 975,-2300 975,-2402 975,-2402 975,-2408 969,-2414 963,-2414 963,-2414 893,-2414 893,-2414 887,-2414 881,-2408 881,-2402 881,-2402 881,-2300 881,-2300 881,-2294 887,-2288 893,-2288"/>
<text text-anchor="middle" x="928" y="-2401.2" font-family="Times,serif" font-size="11.00" fill="gray">App</text>
</g>
<g id="clust8" class="cluster"><title>cluster_\WebinoDev\Tester</title>
<path fill="none" stroke="gray" d="M893,-2200C893,-2200 963,-2200 963,-2200 969,-2200 975,-2206 975,-2212 975,-2212 975,-2260 975,-2260 975,-2266 969,-2272 963,-2272 963,-2272 893,-2272 893,-2272 887,-2272 881,-2266 881,-2260 881,-2260 881,-2212 881,-2212 881,-2206 887,-2200 893,-2200"/>
<text text-anchor="middle" x="928" y="-2259.2" font-family="Times,serif" font-size="11.00" fill="gray">Tester</text>
</g>
<g id="clust9" class="cluster"><title>cluster_\WebinoDev\Mail</title>
<path fill="none" stroke="gray" d="M900,-690C900,-690 956,-690 956,-690 962,-690 968,-696 968,-702 968,-702 968,-750 968,-750 968,-756 962,-762 956,-762 956,-762 900,-762 900,-762 894,-762 888,-756 888,-750 888,-750 888,-702 888,-702 888,-696 894,-690 900,-690"/>
<text text-anchor="middle" x="928" y="-749.2" font-family="Times,serif" font-size="11.00" fill="gray">Mail</text>
</g>
<g id="clust10" class="cluster"><title>cluster_\WebinoDev\Test</title>
<path fill="none" stroke="gray" d="M461,-770C461,-770 1042,-770 1042,-770 1048,-770 1054,-776 1054,-782 1054,-782 1054,-2180 1054,-2180 1054,-2186 1048,-2192 1042,-2192 1042,-2192 461,-2192 461,-2192 455,-2192 449,-2186 449,-2180 449,-2180 449,-782 449,-782 449,-776 455,-770 461,-770"/>
<text text-anchor="middle" x="751.5" y="-2179.2" font-family="Times,serif" font-size="11.00" fill="gray">Test</text>
</g>
<g id="clust11" class="cluster"><title>cluster_\WebinoDev\Test\Selenium</title>
<path fill="none" stroke="gray" d="M469,-1308C469,-1308 1034,-1308 1034,-1308 1040,-1308 1046,-1314 1046,-1320 1046,-1320 1046,-2152 1046,-2152 1046,-2158 1040,-2164 1034,-2164 1034,-2164 469,-2164 469,-2164 463,-2164 457,-2158 457,-2152 457,-2152 457,-1320 457,-1320 457,-1314 463,-1308 469,-1308"/>
<text text-anchor="middle" x="751.5" y="-2151.2" font-family="Times,serif" font-size="11.00" fill="gray">Selenium</text>
</g>
<g id="clust12" class="cluster"><title>cluster_\WebinoDev\Test\Selenium\WebDriver</title>
<path fill="none" stroke="gray" d="M477,-1740C477,-1740 987,-1740 987,-1740 993,-1740 999,-1746 999,-1752 999,-1752 999,-2124 999,-2124 999,-2130 993,-2136 987,-2136 987,-2136 477,-2136 477,-2136 471,-2136 465,-2130 465,-2124 465,-2124 465,-1752 465,-1752 465,-1746 471,-1740 477,-1740"/>
<text text-anchor="middle" x="732" y="-2123.2" font-family="Times,serif" font-size="11.00" fill="gray">WebDriver</text>
</g>
<g id="clust13" class="cluster"><title>cluster_\WebinoDev\Test\Exception</title>
<path fill="none" stroke="gray" d="M471,-1228C471,-1228 987,-1228 987,-1228 993,-1228 999,-1234 999,-1240 999,-1240 999,-1288 999,-1288 999,-1294 993,-1300 987,-1300 987,-1300 471,-1300 471,-1300 465,-1300 459,-1294 459,-1288 459,-1288 459,-1240 459,-1240 459,-1234 465,-1228 471,-1228"/>
<text text-anchor="middle" x="729" y="-1287.2" font-family="Times,serif" font-size="11.00" fill="gray">Exception</text>
</g>
<g id="clust14" class="cluster"><title>cluster_\WebinoDev\Test\Functional</title>
<path fill="none" stroke="gray" d="M856,-1040C856,-1040 1000,-1040 1000,-1040 1006,-1040 1012,-1046 1012,-1052 1012,-1052 1012,-1208 1012,-1208 1012,-1214 1006,-1220 1000,-1220 1000,-1220 856,-1220 856,-1220 850,-1220 844,-1214 844,-1208 844,-1208 844,-1052 844,-1052 844,-1046 850,-1040 856,-1040"/>
<text text-anchor="middle" x="928" y="-1207.2" font-family="Times,serif" font-size="11.00" fill="gray">Functional</text>
</g>
<g id="clust15" class="cluster"><title>cluster_\WebinoDev\Factory</title>
<path fill="none" stroke="gray" d="M846,-610C846,-610 1010,-610 1010,-610 1016,-610 1022,-616 1022,-622 1022,-622 1022,-670 1022,-670 1022,-676 1016,-682 1010,-682 1010,-682 846,-682 846,-682 840,-682 834,-676 834,-670 834,-670 834,-622 834,-622 834,-616 840,-610 846,-610"/>
<text text-anchor="middle" x="928" y="-669.2" font-family="Times,serif" font-size="11.00" fill="gray">Factory</text>
</g>
<g id="clust16" class="cluster"><title>cluster_\WebinoDev\Di</title>
<path fill="none" stroke="gray" d="M885,-494C885,-494 971,-494 971,-494 977,-494 983,-500 983,-506 983,-506 983,-590 983,-590 983,-596 977,-602 971,-602 971,-602 885,-602 885,-602 879,-602 873,-596 873,-590 873,-590 873,-506 873,-506 873,-500 879,-494 885,-494"/>
<text text-anchor="middle" x="928" y="-589.2" font-family="Times,serif" font-size="11.00" fill="gray">Di</text>
</g>
<g id="clust17" class="cluster"><title>cluster_\WebinoDev\Di\Definition</title>
<path fill="none" stroke="gray" d="M893,-502C893,-502 963,-502 963,-502 969,-502 975,-508 975,-514 975,-514 975,-562 975,-562 975,-568 969,-574 963,-574 963,-574 893,-574 893,-574 887,-574 881,-568 881,-562 881,-562 881,-514 881,-514 881,-508 887,-502 893,-502"/>
<text text-anchor="middle" x="928" y="-561.2" font-family="Times,serif" font-size="11.00" fill="gray">Definition</text>
</g>
<g id="clust18" class="cluster"><title>cluster_\WebinoDev\Exception</title>
<path fill="none" stroke="gray" d="M471,-414C471,-414 1000,-414 1000,-414 1006,-414 1012,-420 1012,-426 1012,-426 1012,-474 1012,-474 1012,-480 1006,-486 1000,-486 1000,-486 471,-486 471,-486 465,-486 459,-480 459,-474 459,-474 459,-426 459,-426 459,-420 465,-414 471,-414"/>
<text text-anchor="middle" x="735.5" y="-473.2" font-family="Times,serif" font-size="11.00" fill="gray">Exception</text>
</g>
<!-- \\WebinoDev\\Assetic\\Cache\\FilesystemCache -->
<g id="node1" class="node"><title>\\WebinoDev\\Assetic\\Cache\\FilesystemCache</title>
<polygon fill="none" stroke="black" points="987,-2582 869,-2582 869,-2546 987,-2546 987,-2582"/>
<text text-anchor="middle" x="928" y="-2561.2" font-family="Courier,monospace" font-size="11.00">FilesystemCache</text>
</g>
<!-- \\Assetic\\Cache\\FilesystemCache -->
<g id="node40" class="node"><title>\\Assetic\\Cache\\FilesystemCache</title>
<ellipse fill="none" stroke="black" cx="536" cy="-326" rx="126.178" ry="18"/>
<text text-anchor="middle" x="536" y="-322.3" font-family="Times,serif" font-size="14.00" fill="gray">\Assetic\Cache\FilesystemCache</text>
</g>
<!-- \\WebinoDev\\Assetic\\Cache\\FilesystemCache&#45;&gt;\\Assetic\\Cache\\FilesystemCache -->
<g id="edge1" class="edge"><title>\\WebinoDev\\Assetic\\Cache\\FilesystemCache&#45;&gt;\\Assetic\\Cache\\FilesystemCache</title>
<path fill="none" stroke="black" d="M868.996,-2557.08C849.692,-2551.74 830.061,-2542.38 818,-2526 678.517,-2336.56 881.021,-602.641 746,-410 720.546,-373.683 676.628,-353.058 635.6,-341.349"/>
<polygon fill="none" stroke="black" points="636.367,-337.931 625.8,-338.701 634.541,-344.688 636.367,-337.931"/>
</g>
<!-- \\WebinoDev\\Vfs\\StreamWrapper -->
<g id="node2" class="node"><title>\\WebinoDev\\Vfs\\StreamWrapper</title>
<polygon fill="none" stroke="black" points="980,-2494 876,-2494 876,-2458 980,-2458 980,-2494"/>
<text text-anchor="middle" x="928" y="-2473.2" font-family="Courier,monospace" font-size="11.00">StreamWrapper</text>
</g>
<!-- \\org\\bovigo\\vfs\\vfsStreamWrapper -->
<g id="node41" class="node"><title>\\org\\bovigo\\vfs\\vfsStreamWrapper</title>
<ellipse fill="none" stroke="black" cx="536" cy="-272" rx="134.576" ry="18"/>
<text text-anchor="middle" x="536" y="-268.3" font-family="Times,serif" font-size="14.00" fill="gray">\org\bovigo\vfs\vfsStreamWrapper</text>
</g>
<!-- \\WebinoDev\\Vfs\\StreamWrapper&#45;&gt;\\org\\bovigo\\vfs\\vfsStreamWrapper -->
<g id="edge2" class="edge"><title>\\WebinoDev\\Vfs\\StreamWrapper&#45;&gt;\\org\\bovigo\\vfs\\vfsStreamWrapper</title>
<path fill="none" stroke="black" d="M875.819,-2461.51C854.169,-2452.62 830.993,-2438.82 818,-2418 693.287,-2218.14 904.526,-473.263 746,-299 719.841,-270.244 679.391,-260.707 641.021,-259.389"/>
<polygon fill="none" stroke="black" points="640.851,-255.886 630.796,-259.225 640.739,-262.886 640.851,-255.886"/>
</g>
<!-- \\WebinoDev\\Config\\App\\Developer -->
<g id="node3" class="node"><title>\\WebinoDev\\Config\\App\\Developer</title>
<polygon fill="none" stroke="black" points="966.5,-2386 889.5,-2386 889.5,-2350 966.5,-2350 966.5,-2386"/>
<text text-anchor="middle" x="928" y="-2365.2" font-family="Courier,monospace" font-size="11.00">Developer</text>
</g>
<!-- \\WebinoDev\\Config\\App\\Local -->
<g id="node4" class="node"><title>\\WebinoDev\\Config\\App\\Local</title>
<polygon fill="none" stroke="black" points="955,-2332 901,-2332 901,-2296 955,-2296 955,-2332"/>
<text text-anchor="middle" x="928" y="-2311.2" font-family="Courier,monospace" font-size="11.00">Local</text>
</g>
<!-- \\WebinoDev\\Tester\\Bootstrap -->
<g id="node5" class="node"><title>\\WebinoDev\\Tester\\Bootstrap</title>
<polygon fill="none" stroke="black" points="966.5,-2244 889.5,-2244 889.5,-2208 966.5,-2208 966.5,-2244"/>
<text text-anchor="middle" x="928" y="-2223.2" font-family="Courier,monospace" font-size="11.00">Bootstrap</text>
</g>
<!-- \\WebinoDev\\Mail\\Message -->
<g id="node6" class="node"><title>\\WebinoDev\\Mail\\Message</title>
<polygon fill="none" stroke="black" points="960,-734 896,-734 896,-698 960,-698 960,-734"/>
<text text-anchor="middle" x="928" y="-713.2" font-family="Courier,monospace" font-size="11.00">Message</text>
</g>
<!-- \\Zend\\Mail\\Message -->
<g id="node42" class="node"><title>\\Zend\\Mail\\Message</title>
<ellipse fill="none" stroke="black" cx="536" cy="-126" rx="84.485" ry="18"/>
<text text-anchor="middle" x="536" y="-122.3" font-family="Times,serif" font-size="14.00" fill="gray">\Zend\Mail\Message</text>
</g>
<!-- \\WebinoDev\\Mail\\Message&#45;&gt;\\Zend\\Mail\\Message -->
<g id="edge3" class="edge"><title>\\WebinoDev\\Mail\\Message&#45;&gt;\\Zend\\Mail\\Message</title>
<path fill="none" stroke="black" d="M895.878,-716.199C871.012,-714.57 837.245,-708.02 818,-686 660.696,-506.012 915.516,-321.537 746,-153 712.302,-119.496 658.999,-113.039 614.659,-114.808"/>
<polygon fill="none" stroke="black" points="614.269,-111.324 604.474,-115.362 614.649,-118.314 614.269,-111.324"/>
</g>
<!-- \\WebinoDev\\Test\\Selenium\\WebDriver\\TestWebDriver -->
<g id="node7" class="node"><title>\\WebinoDev\\Test\\Selenium\\WebDriver\\TestWebDriver</title>
<polygon fill="none" stroke="black" points="980,-2108 876,-2108 876,-2072 980,-2072 980,-2108"/>
<text text-anchor="middle" x="928" y="-2087.2" font-family="Courier,monospace" font-size="11.00">TestWebDriver</text>
</g>
<!-- \\WebinoDev\\Test\\Selenium\\WebDriver\\Select -->
<g id="node8" class="node"><title>\\WebinoDev\\Test\\Selenium\\WebDriver\\Select</title>
<polygon fill="none" stroke="black" points="956.5,-2054 899.5,-2054 899.5,-2018 956.5,-2018 956.5,-2054"/>
<text text-anchor="middle" x="928" y="-2033.2" font-family="Courier,monospace" font-size="11.00">Select</text>
</g>
<!-- \\WebinoDev\\Test\\Selenium\\WebDriver\\SimpleItem -->
<g id="node9" class="node"><title>\\WebinoDev\\Test\\Selenium\\WebDriver\\SimpleItem</title>
<polygon fill="none" stroke="black" points="970,-2000 886,-2000 886,-1964 970,-1964 970,-2000"/>
<text text-anchor="middle" x="928" y="-1979.2" font-family="Courier,monospace" font-size="11.00">SimpleItem</text>
</g>
<!-- \\WebinoDev\\Test\\Selenium\\WebDriver\\TestSession -->
<g id="node10" class="node"><title>\\WebinoDev\\Test\\Selenium\\WebDriver\\TestSession</title>
<polygon fill="none" stroke="black" points="973.5,-1946 882.5,-1946 882.5,-1910 973.5,-1910 973.5,-1946"/>
<text text-anchor="middle" x="928" y="-1925.2" font-family="Courier,monospace" font-size="11.00">TestSession</text>
</g>
<!-- \\WebinoDev\\Test\\Selenium\\WebDriver\\TestElement -->
<g id="node11" class="node"><title>\\WebinoDev\\Test\\Selenium\\WebDriver\\TestElement</title>
<polygon fill="none" stroke="black" points="973.5,-1892 882.5,-1892 882.5,-1856 973.5,-1856 973.5,-1892"/>
<text text-anchor="middle" x="928" y="-1871.2" font-family="Courier,monospace" font-size="11.00">TestElement</text>
</g>
<!-- \\WebinoDev\\Test\\Selenium\\WebDriver\\ElementInterface -->
<g id="node13" class="node"><title>\\WebinoDev\\Test\\Selenium\\WebDriver\\ElementInterface</title>
<polygon fill="none" stroke="black" points="598.5,-1892 473.5,-1892 473.5,-1856 598.5,-1856 598.5,-1892"/>
<text text-anchor="middle" x="536" y="-1871.2" font-family="Courier,monospace" font-size="11.00">ElementInterface</text>
</g>
<!-- \\WebinoDev\\Test\\Selenium\\WebDriver\\TestElement&#45;&gt;\\WebinoDev\\Test\\Selenium\\WebDriver\\ElementInterface -->
<g id="edge6" class="edge"><title>\\WebinoDev\\Test\\Selenium\\WebDriver\\TestElement&#45;&gt;\\WebinoDev\\Test\\Selenium\\WebDriver\\ElementInterface</title>
<path fill="none" stroke="black" stroke-dasharray="1,5" d="M882.262,-1874C815.531,-1874 689.229,-1874 609.285,-1874"/>
<polygon fill="none" stroke="black" points="608.807,-1870.5 598.807,-1874 608.807,-1877.5 608.807,-1870.5"/>
</g>
<!-- \\WebinoDev\\Test\\Selenium\\WebDriver\\TestWindow -->
<g id="node12" class="node"><title>\\WebinoDev\\Test\\Selenium\\WebDriver\\TestWindow</title>
<polygon fill="none" stroke="black" points="970,-1838 886,-1838 886,-1802 970,-1802 970,-1838"/>
<text text-anchor="middle" x="928" y="-1817.2" font-family="Courier,monospace" font-size="11.00">TestWindow</text>
</g>
<!-- \\WebinoDev\\Test\\Selenium\\WebDriver\\WindowInterface -->
<g id="node15" class="node"><title>\\WebinoDev\\Test\\Selenium\\WebDriver\\WindowInterface</title>
<polygon fill="none" stroke="black" points="595,-1838 477,-1838 477,-1802 595,-1802 595,-1838"/>
<text text-anchor="middle" x="536" y="-1817.2" font-family="Courier,monospace" font-size="11.00">WindowInterface</text>
</g>
<!-- \\WebinoDev\\Test\\Selenium\\WebDriver\\TestWindow&#45;&gt;\\WebinoDev\\Test\\Selenium\\WebDriver\\WindowInterface -->
<g id="edge7" class="edge"><title>\\WebinoDev\\Test\\Selenium\\WebDriver\\TestWindow&#45;&gt;\\WebinoDev\\Test\\Selenium\\WebDriver\\WindowInterface</title>
<path fill="none" stroke="black" stroke-dasharray="1,5" d="M885.632,-1820C818.799,-1820 686.397,-1820 605.377,-1820"/>
<polygon fill="none" stroke="black" points="605.272,-1816.5 595.272,-1820 605.272,-1823.5 605.272,-1816.5"/>
</g>
<!-- \\WebinoDev\\Test\\Selenium\\WebDriver\\SessionInterface -->
<g id="node14" class="node"><title>\\WebinoDev\\Test\\Selenium\\WebDriver\\SessionInterface</title>
<polygon fill="none" stroke="black" points="990.5,-1784 865.5,-1784 865.5,-1748 990.5,-1748 990.5,-1784"/>
<text text-anchor="middle" x="928" y="-1763.2" font-family="Courier,monospace" font-size="11.00">SessionInterface</text>
</g>
<!-- \\WebinoDev\\Test\\Selenium\\AbstractTestCase -->
<g id="node16" class="node"><title>\\WebinoDev\\Test\\Selenium\\AbstractTestCase</title>
<polygon fill="none" stroke="black" points="598.5,-1676 473.5,-1676 473.5,-1640 598.5,-1640 598.5,-1676"/>
<text text-anchor="start" x="502" y="-1661.2" font-family="Courier,monospace" font-size="11.00">«abstract»</text>
<text text-anchor="start" x="481.5" y="-1649.2" font-family="Courier,monospace" font-size="11.00">AbstractTestCase</text>
</g>
<!-- \\PHPUnit_Framework_TestCase -->
<g id="node43" class="node"><title>\\PHPUnit_Framework_TestCase</title>
<ellipse fill="none" stroke="black" cx="127" cy="-942" rx="126.978" ry="18"/>
<text text-anchor="middle" x="127" y="-938.3" font-family="Times,serif" font-size="14.00" fill="gray">\PHPUnit_Framework_TestCase</text>
</g>
<!-- \\WebinoDev\\Test\\Selenium\\AbstractTestCase&#45;&gt;\\PHPUnit_Framework_TestCase -->
<g id="edge5" class="edge"><title>\\WebinoDev\\Test\\Selenium\\AbstractTestCase&#45;&gt;\\PHPUnit_Framework_TestCase</title>
<path fill="none" stroke="black" d="M523.907,-1639.7C492.371,-1587.56 399.717,-1433.68 326,-1304 255.432,-1179.86 174.712,-1029.56 142.435,-969.11"/>
<polygon fill="none" stroke="black" points="145.475,-967.372 137.68,-960.197 139.299,-970.667 145.475,-967.372"/>
</g>
<!-- \\WebinoDev\\Test\\Selenium\\AbstractAuthenticationTestCase -->
<g id="node17" class="node"><title>\\WebinoDev\\Test\\Selenium\\AbstractAuthenticationTestCase</title>
<polygon fill="none" stroke="black" points="1037.5,-1730 818.5,-1730 818.5,-1694 1037.5,-1694 1037.5,-1730"/>
<text text-anchor="start" x="894" y="-1715.2" font-family="Courier,monospace" font-size="11.00">«abstract»</text>
<text text-anchor="start" x="826.5" y="-1703.2" font-family="Courier,monospace" font-size="11.00">AbstractAuthenticationTestCase</text>
</g>
<!-- \\WebinoDev\\Test\\Selenium\\AbstractAuthenticationTestCase&#45;&gt;\\WebinoDev\\Test\\Selenium\\AbstractTestCase -->
<g id="edge8" class="edge"><title>\\WebinoDev\\Test\\Selenium\\AbstractAuthenticationTestCase&#45;&gt;\\WebinoDev\\Test\\Selenium\\AbstractTestCase</title>
<path fill="none" stroke="black" d="M818.363,-1696.96C751.356,-1687.68 667.298,-1676.04 608.584,-1667.91"/>
<polygon fill="none" stroke="black" points="609.043,-1664.44 598.657,-1666.54 608.083,-1671.38 609.043,-1664.44"/>
</g>
<!-- \\WebinoDev\\Test\\Selenium\\AbstractMailTestCase -->
<g id="node18" class="node"><title>\\WebinoDev\\Test\\Selenium\\AbstractMailTestCase</title>
<polygon fill="none" stroke="black" points="1004,-1676 852,-1676 852,-1640 1004,-1640 1004,-1676"/>
<text text-anchor="start" x="894" y="-1661.2" font-family="Courier,monospace" font-size="11.00">«abstract»</text>
<text text-anchor="start" x="860" y="-1649.2" font-family="Courier,monospace" font-size="11.00">AbstractMailTestCase</text>
</g>
<!-- \\WebinoDev\\Test\\Selenium\\AbstractMailTestCase&#45;&gt;\\WebinoDev\\Test\\Selenium\\AbstractTestCase -->
<g id="edge9" class="edge"><title>\\WebinoDev\\Test\\Selenium\\AbstractMailTestCase&#45;&gt;\\WebinoDev\\Test\\Selenium\\AbstractTestCase</title>
<path fill="none" stroke="black" d="M851.804,-1658C781.695,-1658 677.852,-1658 608.844,-1658"/>
<polygon fill="none" stroke="black" points="608.501,-1654.5 598.501,-1658 608.501,-1661.5 608.501,-1654.5"/>
</g>
<!-- \\WebinoDev\\Test\\Selenium\\ElementsTrait -->
<g id="node19" class="node"><title>\\WebinoDev\\Test\\Selenium\\ElementsTrait</title>
<polygon fill="none" stroke="black" points="980,-1622 876,-1622 876,-1586 980,-1586 980,-1622"/>
<text text-anchor="middle" x="928" y="-1601.2" font-family="Courier,monospace" font-size="11.00">ElementsTrait</text>
</g>
<!-- \\WebinoDev\\Test\\Selenium\\MailTrait -->
<g id="node20" class="node"><title>\\WebinoDev\\Test\\Selenium\\MailTrait</title>
<polygon fill="none" stroke="black" points="966.5,-1568 889.5,-1568 889.5,-1532 966.5,-1532 966.5,-1568"/>
<text text-anchor="middle" x="928" y="-1547.2" font-family="Courier,monospace" font-size="11.00">MailTrait</text>
</g>
<!-- \\WebinoDev\\Test\\Selenium\\ScreenshotTrait -->
<g id="node21" class="node"><title>\\WebinoDev\\Test\\Selenium\\ScreenshotTrait</title>
<polygon fill="none" stroke="black" points="987,-1514 869,-1514 869,-1478 987,-1478 987,-1514"/>
<text text-anchor="middle" x="928" y="-1493.2" font-family="Courier,monospace" font-size="11.00">ScreenshotTrait</text>
</g>
<!-- \\WebinoDev\\Test\\Selenium\\ElementTrait -->
<g id="node22" class="node"><title>\\WebinoDev\\Test\\Selenium\\ElementTrait</title>
<polygon fill="none" stroke="black" points="977,-1460 879,-1460 879,-1424 977,-1424 977,-1460"/>
<text text-anchor="middle" x="928" y="-1439.2" font-family="Courier,monospace" font-size="11.00">ElementTrait</text>
</g>
<!-- \\WebinoDev\\Test\\Selenium\\AuthenticationTrait -->
<g id="node23" class="node"><title>\\WebinoDev\\Test\\Selenium\\AuthenticationTrait</title>
<polygon fill="none" stroke="black" points="1000.5,-1406 855.5,-1406 855.5,-1370 1000.5,-1370 1000.5,-1406"/>
<text text-anchor="middle" x="928" y="-1385.2" font-family="Courier,monospace" font-size="11.00">AuthenticationTrait</text>
</g>
<!-- \\WebinoDev\\Test\\Selenium\\NotifyTrait -->
<g id="node24" class="node"><title>\\WebinoDev\\Test\\Selenium\\NotifyTrait</title>
<polygon fill="none" stroke="black" points="973.5,-1352 882.5,-1352 882.5,-1316 973.5,-1316 973.5,-1352"/>
<text text-anchor="middle" x="928" y="-1331.2" font-family="Courier,monospace" font-size="11.00">NotifyTrait</text>
</g>
<!-- \\WebinoDev\\Test\\Exception\\RuntimeException -->
<g id="node25" class="node"><title>\\WebinoDev\\Test\\Exception\\RuntimeException</title>
<polygon fill="none" stroke="black" points="990.5,-1272 865.5,-1272 865.5,-1236 990.5,-1236 990.5,-1272"/>
<text text-anchor="middle" x="928" y="-1251.2" font-family="Courier,monospace" font-size="11.00">RuntimeException</text>
</g>
<!-- \\WebinoDev\\Test\\Exception\\ExceptionInterface -->
<g id="node26" class="node"><title>\\WebinoDev\\Test\\Exception\\ExceptionInterface</title>
<polygon fill="none" stroke="black" points="605,-1272 467,-1272 467,-1236 605,-1236 605,-1272"/>
<text text-anchor="middle" x="536" y="-1251.2" font-family="Courier,monospace" font-size="11.00">ExceptionInterface</text>
</g>
<!-- \\WebinoDev\\Test\\Exception\\RuntimeException&#45;&gt;\\WebinoDev\\Test\\Exception\\ExceptionInterface -->
<g id="edge11" class="edge"><title>\\WebinoDev\\Test\\Exception\\RuntimeException&#45;&gt;\\WebinoDev\\Test\\Exception\\ExceptionInterface</title>
<path fill="none" stroke="black" stroke-dasharray="1,5" d="M865.203,-1254C797.509,-1254 688.789,-1254 615.204,-1254"/>
<polygon fill="none" stroke="black" points="615.062,-1250.5 605.062,-1254 615.062,-1257.5 615.062,-1250.5"/>
</g>
<!-- \\RuntimeException -->
<g id="node44" class="node"><title>\\RuntimeException</title>
<ellipse fill="none" stroke="black" cx="536" cy="-180" rx="79.0865" ry="18"/>
<text text-anchor="middle" x="536" y="-176.3" font-family="Times,serif" font-size="14.00" fill="gray">\RuntimeException</text>
</g>
<!-- \\WebinoDev\\Test\\Exception\\RuntimeException&#45;&gt;\\RuntimeException -->
<g id="edge10" class="edge"><title>\\WebinoDev\\Test\\Exception\\RuntimeException&#45;&gt;\\RuntimeException</title>
<path fill="none" stroke="black" d="M865.347,-1250.31C847.499,-1246.1 829.696,-1238.27 818,-1224 675.076,-1049.63 898.845,-377.739 746,-212 713.263,-176.502 658.982,-169.036 613.944,-170.167"/>
<polygon fill="none" stroke="black" points="613.751,-166.672 603.897,-170.563 614.027,-173.667 613.751,-166.672"/>
</g>
<!-- \\WebinoDev\\Test\\Functional\\AbstractMailTestCase -->
<g id="node27" class="node"><title>\\WebinoDev\\Test\\Functional\\AbstractMailTestCase</title>
<polygon fill="none" stroke="black" points="1004,-1192 852,-1192 852,-1156 1004,-1156 1004,-1192"/>
<text text-anchor="start" x="894" y="-1177.2" font-family="Courier,monospace" font-size="11.00">«abstract»</text>
<text text-anchor="start" x="860" y="-1165.2" font-family="Courier,monospace" font-size="11.00">AbstractMailTestCase</text>
</g>
<!-- \\WebinoDev\\Test\\Functional\\AbstractMailTestCase&#45;&gt;\\PHPUnit_Framework_TestCase -->
<g id="edge12" class="edge"><title>\\WebinoDev\\Test\\Functional\\AbstractMailTestCase&#45;&gt;\\PHPUnit_Framework_TestCase</title>
<path fill="none" stroke="black" d="M851.978,-1168.43C838.983,-1164.14 826.831,-1157.4 818,-1147 687.874,-993.699 887.402,-387.967 746,-245 680.411,-178.685 630.168,-230.399 537,-226"/>
</g>
<!-- \\WebinoDev\\Test\\Functional\\SeleniumTestTrait -->
<g id="node28" class="node"><title>\\WebinoDev\\Test\\Functional\\SeleniumTestTrait</title>
<polygon fill="none" stroke="black" points="993.5,-1138 862.5,-1138 862.5,-1102 993.5,-1102 993.5,-1138"/>
<text text-anchor="middle" x="928" y="-1117.2" font-family="Courier,monospace" font-size="11.00">SeleniumTestTrait</text>
</g>
<!-- \\WebinoDev\\Test\\Functional\\MailTrait -->
<g id="node29" class="node"><title>\\WebinoDev\\Test\\Functional\\MailTrait</title>
<polygon fill="none" stroke="black" points="966.5,-1084 889.5,-1084 889.5,-1048 966.5,-1048 966.5,-1084"/>
<text text-anchor="middle" x="928" y="-1063.2" font-family="Courier,monospace" font-size="11.00">MailTrait</text>
</g>
<!-- \\WebinoDev\\Test\\TestCase -->
<g id="node30" class="node"><title>\\WebinoDev\\Test\\TestCase</title>
<polygon fill="none" stroke="black" points="963.5,-1030 892.5,-1030 892.5,-994 963.5,-994 963.5,-1030"/>
<text text-anchor="middle" x="928" y="-1009.2" font-family="Courier,monospace" font-size="11.00">TestCase</text>
</g>
<!-- \\WebinoDev\\Test\\TestCase&#45;&gt;\\PHPUnit_Framework_TestCase -->
<g id="edge4" class="edge"><title>\\WebinoDev\\Test\\TestCase&#45;&gt;\\PHPUnit_Framework_TestCase</title>
<path fill="none" stroke="black" d="M892.431,-1013.18C867.877,-1012.01 836.161,-1006.02 818,-985 709.992,-859.971 863.198,-361.458 746,-245 679.838,-179.256 630.168,-230.399 537,-226"/>
<path fill="none" stroke="black" d="M535,-226C441.832,-221.601 397.797,-185.461 326,-245 218.367,-334.257 148.356,-794.111 131.793,-913.6"/>
<polygon fill="none" stroke="black" points="128.289,-913.392 130.398,-923.775 135.224,-914.342 128.289,-913.392"/>
</g>
<!-- \\WebinoDev\\Test\\Autoloader -->
<g id="node31" class="node"><title>\\WebinoDev\\Test\\Autoloader</title>
<polygon fill="none" stroke="black" points="970,-976 886,-976 886,-940 970,-940 970,-976"/>
<text text-anchor="middle" x="928" y="-955.2" font-family="Courier,monospace" font-size="11.00">Autoloader</text>
</g>
<!-- \\WebinoDev\\Test\\DomTrait -->
<g id="node32" class="node"><title>\\WebinoDev\\Test\\DomTrait</title>
<polygon fill="none" stroke="black" points="963.5,-922 892.5,-922 892.5,-886 963.5,-886 963.5,-922"/>
<text text-anchor="middle" x="928" y="-901.2" font-family="Courier,monospace" font-size="11.00">DomTrait</text>
</g>
<!-- \\WebinoDev\\Test\\PdfTrait -->
<g id="node33" class="node"><title>\\WebinoDev\\Test\\PdfTrait</title>
<polygon fill="none" stroke="black" points="963.5,-868 892.5,-868 892.5,-832 963.5,-832 963.5,-868"/>
<text text-anchor="middle" x="928" y="-847.2" font-family="Courier,monospace" font-size="11.00">PdfTrait</text>
</g>
<!-- \\WebinoDev\\Test\\MailTrait -->
<g id="node34" class="node"><title>\\WebinoDev\\Test\\MailTrait</title>
<polygon fill="none" stroke="black" points="966.5,-814 889.5,-814 889.5,-778 966.5,-778 966.5,-814"/>
<text text-anchor="middle" x="928" y="-793.2" font-family="Courier,monospace" font-size="11.00">MailTrait</text>
</g>
<!-- \\WebinoDev\\Factory\\ProfilingAdapterFactory -->
<g id="node35" class="node"><title>\\WebinoDev\\Factory\\ProfilingAdapterFactory</title>
<polygon fill="none" stroke="black" points="1014,-654 842,-654 842,-618 1014,-618 1014,-654"/>
<text text-anchor="middle" x="928" y="-633.2" font-family="Courier,monospace" font-size="11.00">ProfilingAdapterFactory</text>
</g>
<!-- \\Zend\\ServiceManager\\FactoryInterface -->
<g id="node45" class="node"><title>\\Zend\\ServiceManager\\FactoryInterface</title>
<ellipse fill="none" stroke="black" cx="536" cy="-72" rx="152.173" ry="18"/>
<text text-anchor="middle" x="536" y="-68.3" font-family="Times,serif" font-size="14.00" fill="gray">\Zend\ServiceManager\FactoryInterface</text>
</g>
<!-- \\WebinoDev\\Factory\\ProfilingAdapterFactory&#45;&gt;\\Zend\\ServiceManager\\FactoryInterface -->
<g id="edge13" class="edge"><title>\\WebinoDev\\Factory\\ProfilingAdapterFactory&#45;&gt;\\Zend\\ServiceManager\\FactoryInterface</title>
<path fill="none" stroke="black" stroke-dasharray="1,5" d="M870.396,-617.93C850.882,-608.937 830.748,-596.027 818,-578 693.705,-402.226 899.795,-249.641 746,-99 729.892,-83.2222 709.426,-73.4762 687.636,-67.7724"/>
<polygon fill="none" stroke="black" points="688.418,-64.361 677.884,-65.4994 686.829,-71.1782 688.418,-64.361"/>
</g>
<!-- \\WebinoDev\\Di\\Definition\\Generator -->
<g id="node36" class="node"><title>\\WebinoDev\\Di\\Definition\\Generator</title>
<polygon fill="none" stroke="black" points="966.5,-546 889.5,-546 889.5,-510 966.5,-510 966.5,-546"/>
<text text-anchor="middle" x="928" y="-525.2" font-family="Courier,monospace" font-size="11.00">Generator</text>
</g>
<!-- \\WebinoDev\\Exception\\DevelopmentException -->
<g id="node37" class="node"><title>\\WebinoDev\\Exception\\DevelopmentException</title>
<polygon fill="none" stroke="black" points="1004,-458 852,-458 852,-422 1004,-422 1004,-458"/>
<text text-anchor="middle" x="928" y="-437.2" font-family="Courier,monospace" font-size="11.00">DevelopmentException</text>
</g>
<!-- \\WebinoDev\\Exception\\ExceptionInterface -->
<g id="node38" class="node"><title>\\WebinoDev\\Exception\\ExceptionInterface</title>
<polygon fill="none" stroke="black" points="605,-458 467,-458 467,-422 605,-422 605,-458"/>
<text text-anchor="middle" x="536" y="-437.2" font-family="Courier,monospace" font-size="11.00">ExceptionInterface</text>
</g>
<!-- \\WebinoDev\\Exception\\DevelopmentException&#45;&gt;\\WebinoDev\\Exception\\ExceptionInterface -->
<g id="edge16" class="edge"><title>\\WebinoDev\\Exception\\DevelopmentException&#45;&gt;\\WebinoDev\\Exception\\ExceptionInterface</title>
<path fill="none" stroke="black" stroke-dasharray="1,5" d="M851.804,-440C783.905,-440 684.367,-440 615.473,-440"/>
<polygon fill="none" stroke="black" points="615.114,-436.5 605.114,-440 615.114,-443.5 615.114,-436.5"/>
</g>
<!-- \\WebinoDev\\Exception\\DevelopmentException&#45;&gt;\\RuntimeException -->
<g id="edge15" class="edge"><title>\\WebinoDev\\Exception\\DevelopmentException&#45;&gt;\\RuntimeException</title>
<path fill="none" stroke="black" d="M851.872,-435.467C839.503,-431.889 827.605,-426.371 818,-418 744.884,-354.278 820.6,-273.978 746,-212 711.439,-183.286 662.145,-174.716 620.109,-173.59"/>
<polygon fill="none" stroke="black" points="619.916,-170.087 609.871,-173.456 619.825,-177.086 619.916,-170.087"/>
</g>
<!-- \\WebinoDev\\Module -->
<g id="node39" class="node"><title>\\WebinoDev\\Module</title>
<polygon fill="none" stroke="black" points="956.5,-404 899.5,-404 899.5,-368 956.5,-368 956.5,-404"/>
<text text-anchor="middle" x="928" y="-383.2" font-family="Courier,monospace" font-size="11.00">Module</text>
</g>
<!-- \\Zend\\ModuleManager\\Feature\\ConfigProviderInterface -->
<g id="node46" class="node"><title>\\Zend\\ModuleManager\\Feature\\ConfigProviderInterface</title>
<ellipse fill="none" stroke="black" cx="536" cy="-18" rx="209.863" ry="18"/>
<text text-anchor="middle" x="536" y="-14.3" font-family="Times,serif" font-size="14.00" fill="gray">\Zend\ModuleManager\Feature\ConfigProviderInterface</text>
</g>
<!-- \\WebinoDev\\Module&#45;&gt;\\Zend\\ModuleManager\\Feature\\ConfigProviderInterface -->
<g id="edge14" class="edge"><title>\\WebinoDev\\Module&#45;&gt;\\Zend\\ModuleManager\\Feature\\ConfigProviderInterface</title>
<path fill="none" stroke="black" stroke-dasharray="1,5" d="M923.418,-367.661C910.953,-309.224 863.645,-126.464 746,-45 738.57,-39.8547 730.627,-35.4511 722.341,-31.6938"/>
<polygon fill="none" stroke="black" points="723.423,-28.3529 712.847,-27.7213 720.721,-34.8103 723.423,-28.3529"/>
</g>
</g>
</svg>
