<?xml version="1.0" encoding="UTF-8" standalone="no"?>
<!DOCTYPE svg PUBLIC "-//W3C//DTD SVG 1.1//EN"
 "http://www.w3.org/Graphics/SVG/1.1/DTD/svg11.dtd">
<!-- Generated by graphviz version 2.36.0 (20140111.2315)
 -->
<!-- Title: G Pages: 1 -->
<svg width="1086pt" height="2746pt"
 viewBox="0.00 0.00 1086.00 2746.00" xmlns="http://www.w3.org/2000/svg" xmlns:xlink="http://www.w3.org/1999/xlink">
<g id="graph0" class="graph" transform="scale(1 1) rotate(0) translate(4 2742)">
<title>G</title>
<polygon fill="white" stroke="none" points="-4,4 -4,-2742 1082,-2742 1082,4 -4,4"/>
<g id="clust1" class="cluster"><title>cluster_Global</title>
<path fill="none" stroke="gray" d="M445,-390C445,-390 1058,-390 1058,-390 1064,-390 1070,-396 1070,-402 1070,-402 1070,-2718 1070,-2718 1070,-2724 1064,-2730 1058,-2730 1058,-2730 445,-2730 445,-2730 439,-2730 433,-2724 433,-2718 433,-2718 433,-402 433,-402 433,-396 439,-390 445,-390"/>
<text text-anchor="middle" x="751.5" y="-2717.2" font-family="Times,serif" font-size="11.00" fill="gray">Global</text>
</g>
<g id="clust2" class="cluster"><title>cluster_\WebinoDev</title>
<path fill="none" stroke="gray" d="M453,-398C453,-398 1050,-398 1050,-398 1056,-398 1062,-404 1062,-410 1062,-410 1062,-2690 1062,-2690 1062,-2696 1056,-2702 1050,-2702 1050,-2702 453,-2702 453,-2702 447,-2702 441,-2696 441,-2690 441,-2690 441,-410 441,-410 441,-404 447,-398 453,-398"/>
<text text-anchor="middle" x="751.5" y="-2689.2" font-family="Times,serif" font-size="11.00" fill="gray">WebinoDev</text>
</g>
<g id="clust3" class="cluster"><title>cluster_\WebinoDev\Vfs</title>
<path fill="none" stroke="gray" d="M880,-2602C880,-2602 976,-2602 976,-2602 982,-2602 988,-2608 988,-2614 988,-2614 988,-2662 988,-2662 988,-2668 982,-2674 976,-2674 976,-2674 880,-2674 880,-2674 874,-2674 868,-2668 868,-2662 868,-2662 868,-2614 868,-2614 868,-2608 874,-2602 880,-2602"/>
<text text-anchor="middle" x="928" y="-2661.2" font-family="Times,serif" font-size="11.00" fill="gray">Vfs</text>
</g>
<g id="clust4" class="cluster"><title>cluster_\WebinoDev\Di</title>
<path fill="none" stroke="gray" d="M885,-2486C885,-2486 971,-2486 971,-2486 977,-2486 983,-2492 983,-2498 983,-2498 983,-2582 983,-2582 983,-2588 977,-2594 971,-2594 971,-2594 885,-2594 885,-2594 879,-2594 873,-2588 873,-2582 873,-2582 873,-2498 873,-2498 873,-2492 879,-2486 885,-2486"/>
<text text-anchor="middle" x="928" y="-2581.2" font-family="Times,serif" font-size="11.00" fill="gray">Di</text>
</g>
<g id="clust5" class="cluster"><title>cluster_\WebinoDev\Di\Definition</title>
<path fill="none" stroke="gray" d="M893,-2494C893,-2494 963,-2494 963,-2494 969,-2494 975,-2500 975,-2506 975,-2506 975,-2554 975,-2554 975,-2560 969,-2566 963,-2566 963,-2566 893,-2566 893,-2566 887,-2566 881,-2560 881,-2554 881,-2554 881,-2506 881,-2506 881,-2500 887,-2494 893,-2494"/>
<text text-anchor="middle" x="928" y="-2553.2" font-family="Times,serif" font-size="11.00" fill="gray">Definition</text>
</g>
<g id="clust6" class="cluster"><title>cluster_\WebinoDev\Config</title>
<path fill="none" stroke="gray" d="M885,-2316C885,-2316 971,-2316 971,-2316 977,-2316 983,-2322 983,-2328 983,-2328 983,-2466 983,-2466 983,-2472 977,-2478 971,-2478 971,-2478 885,-2478 885,-2478 879,-2478 873,-2472 873,-2466 873,-2466 873,-2328 873,-2328 873,-2322 879,-2316 885,-2316"/>
<text text-anchor="middle" x="928" y="-2465.2" font-family="Times,serif" font-size="11.00" fill="gray">Config</text>
</g>
<g id="clust7" class="cluster"><title>cluster_\WebinoDev\Config\App</title>
<path fill="none" stroke="gray" d="M893,-2324C893,-2324 963,-2324 963,-2324 969,-2324 975,-2330 975,-2336 975,-2336 975,-2438 975,-2438 975,-2444 969,-2450 963,-2450 963,-2450 893,-2450 893,-2450 887,-2450 881,-2444 881,-2438 881,-2438 881,-2336 881,-2336 881,-2330 887,-2324 893,-2324"/>
<text text-anchor="middle" x="928" y="-2437.2" font-family="Times,serif" font-size="11.00" fill="gray">App</text>
</g>
<g id="clust8" class="cluster"><title>cluster_\WebinoDev\Mail</title>
<path fill="none" stroke="gray" d="M900,-2236C900,-2236 956,-2236 956,-2236 962,-2236 968,-2242 968,-2248 968,-2248 968,-2296 968,-2296 968,-2302 962,-2308 956,-2308 956,-2308 900,-2308 900,-2308 894,-2308 888,-2302 888,-2296 888,-2296 888,-2248 888,-2248 888,-2242 894,-2236 900,-2236"/>
<text text-anchor="middle" x="928" y="-2295.2" font-family="Times,serif" font-size="11.00" fill="gray">Mail</text>
</g>
<g id="clust9" class="cluster"><title>cluster_\WebinoDev\Factory</title>
<path fill="none" stroke="gray" d="M846,-2156C846,-2156 1010,-2156 1010,-2156 1016,-2156 1022,-2162 1022,-2168 1022,-2168 1022,-2216 1022,-2216 1022,-2222 1016,-2228 1010,-2228 1010,-2228 846,-2228 846,-2228 840,-2228 834,-2222 834,-2216 834,-2216 834,-2168 834,-2168 834,-2162 840,-2156 846,-2156"/>
<text text-anchor="middle" x="928" y="-2215.2" font-family="Times,serif" font-size="11.00" fill="gray">Factory</text>
</g>
<g id="clust10" class="cluster"><title>cluster_\WebinoDev\Tester</title>
<path fill="none" stroke="gray" d="M893,-2076C893,-2076 963,-2076 963,-2076 969,-2076 975,-2082 975,-2088 975,-2088 975,-2136 975,-2136 975,-2142 969,-2148 963,-2148 963,-2148 893,-2148 893,-2148 887,-2148 881,-2142 881,-2136 881,-2136 881,-2088 881,-2088 881,-2082 887,-2076 893,-2076"/>
<text text-anchor="middle" x="928" y="-2135.2" font-family="Times,serif" font-size="11.00" fill="gray">Tester</text>
</g>
<g id="clust11" class="cluster"><title>cluster_\WebinoDev\Assetic</title>
<path fill="none" stroke="gray" d="M865,-450C865,-450 991,-450 991,-450 997,-450 1003,-456 1003,-462 1003,-462 1003,-546 1003,-546 1003,-552 997,-558 991,-558 991,-558 865,-558 865,-558 859,-558 853,-552 853,-546 853,-546 853,-462 853,-462 853,-456 859,-450 865,-450"/>
<text text-anchor="middle" x="928" y="-545.2" font-family="Times,serif" font-size="11.00" fill="gray">Assetic</text>
</g>
<g id="clust12" class="cluster"><title>cluster_\WebinoDev\Assetic\Cache</title>
<path fill="none" stroke="gray" d="M873,-458C873,-458 983,-458 983,-458 989,-458 995,-464 995,-470 995,-470 995,-518 995,-518 995,-524 989,-530 983,-530 983,-530 873,-530 873,-530 867,-530 861,-524 861,-518 861,-518 861,-470 861,-470 861,-464 867,-458 873,-458"/>
<text text-anchor="middle" x="928" y="-517.2" font-family="Times,serif" font-size="11.00" fill="gray">Cache</text>
</g>
<g id="clust13" class="cluster"><title>cluster_\WebinoDev\Test</title>
<path fill="none" stroke="gray" d="M461,-646C461,-646 1042,-646 1042,-646 1048,-646 1054,-652 1054,-658 1054,-658 1054,-2056 1054,-2056 1054,-2062 1048,-2068 1042,-2068 1042,-2068 461,-2068 461,-2068 455,-2068 449,-2062 449,-2056 449,-2056 449,-658 449,-658 449,-652 455,-646 461,-646"/>
<text text-anchor="middle" x="751.5" y="-2055.2" font-family="Times,serif" font-size="11.00" fill="gray">Test</text>
</g>
<g id="clust14" class="cluster"><title>cluster_\WebinoDev\Test\Selenium</title>
<path fill="none" stroke="gray" d="M469,-1184C469,-1184 1034,-1184 1034,-1184 1040,-1184 1046,-1190 1046,-1196 1046,-1196 1046,-2028 1046,-2028 1046,-2034 1040,-2040 1034,-2040 1034,-2040 469,-2040 469,-2040 463,-2040 457,-2034 457,-2028 457,-2028 457,-1196 457,-1196 457,-1190 463,-1184 469,-1184"/>
<text text-anchor="middle" x="751.5" y="-2027.2" font-family="Times,serif" font-size="11.00" fill="gray">Selenium</text>
</g>
<g id="clust15" class="cluster"><title>cluster_\WebinoDev\Test\Selenium\WebDriver</title>
<path fill="none" stroke="gray" d="M477,-1616C477,-1616 987,-1616 987,-1616 993,-1616 999,-1622 999,-1628 999,-1628 999,-2000 999,-2000 999,-2006 993,-2012 987,-2012 987,-2012 477,-2012 477,-2012 471,-2012 465,-2006 465,-2000 465,-2000 465,-1628 465,-1628 465,-1622 471,-1616 477,-1616"/>
<text text-anchor="middle" x="732" y="-1999.2" font-family="Times,serif" font-size="11.00" fill="gray">WebDriver</text>
</g>
<g id="clust16" class="cluster"><title>cluster_\WebinoDev\Test\Functional</title>
<path fill="none" stroke="gray" d="M856,-916C856,-916 1000,-916 1000,-916 1006,-916 1012,-922 1012,-928 1012,-928 1012,-1084 1012,-1084 1012,-1090 1006,-1096 1000,-1096 1000,-1096 856,-1096 856,-1096 850,-1096 844,-1090 844,-1084 844,-1084 844,-928 844,-928 844,-922 850,-916 856,-916"/>
<text text-anchor="middle" x="928" y="-1083.2" font-family="Times,serif" font-size="11.00" fill="gray">Functional</text>
</g>
<g id="clust17" class="cluster"><title>cluster_\WebinoDev\Test\Exception</title>
<path fill="none" stroke="gray" d="M471,-1104C471,-1104 987,-1104 987,-1104 993,-1104 999,-1110 999,-1116 999,-1116 999,-1164 999,-1164 999,-1170 993,-1176 987,-1176 987,-1176 471,-1176 471,-1176 465,-1176 459,-1170 459,-1164 459,-1164 459,-1116 459,-1116 459,-1110 465,-1104 471,-1104"/>
<text text-anchor="middle" x="729" y="-1163.2" font-family="Times,serif" font-size="11.00" fill="gray">Exception</text>
</g>
<g id="clust18" class="cluster"><title>cluster_\WebinoDev\Exception</title>
<path fill="none" stroke="gray" d="M471,-566C471,-566 1000,-566 1000,-566 1006,-566 1012,-572 1012,-578 1012,-578 1012,-626 1012,-626 1012,-632 1006,-638 1000,-638 1000,-638 471,-638 471,-638 465,-638 459,-632 459,-626 459,-626 459,-578 459,-578 459,-572 465,-566 471,-566"/>
<text text-anchor="middle" x="735.5" y="-625.2" font-family="Times,serif" font-size="11.00" fill="gray">Exception</text>
</g>
<!-- \\WebinoDev\\Vfs\\StreamWrapper -->
<g id="node1" class="node"><title>\\WebinoDev\\Vfs\\StreamWrapper</title>
<polygon fill="none" stroke="black" points="980,-2646 876,-2646 876,-2610 980,-2610 980,-2646"/>
<text text-anchor="middle" x="928" y="-2625.2" font-family="Courier,monospace" font-size="11.00">StreamWrapper</text>
</g>
<!-- \\org\\bovigo\\vfs\\vfsStreamWrapper -->
<g id="node40" class="node"><title>\\org\\bovigo\\vfs\\vfsStreamWrapper</title>
<ellipse fill="none" stroke="black" cx="536" cy="-364" rx="134.576" ry="18"/>
<text text-anchor="middle" x="536" y="-360.3" font-family="Times,serif" font-size="14.00" fill="gray">\org\bovigo\vfs\vfsStreamWrapper</text>
</g>
<!-- \\WebinoDev\\Vfs\\StreamWrapper&#45;&gt;\\org\\bovigo\\vfs\\vfsStreamWrapper -->
<g id="edge1" class="edge"><title>\\WebinoDev\\Vfs\\StreamWrapper&#45;&gt;\\org\\bovigo\\vfs\\vfsStreamWrapper</title>
<path fill="none" stroke="black" d="M875.837,-2613.5C854.19,-2604.61 831.013,-2590.81 818,-2570 699.634,-2380.71 837.875,-765.474 746,-562 710.006,-482.284 625.562,-419.032 575.725,-386.984"/>
<polygon fill="none" stroke="black" points="577.462,-383.942 567.14,-381.552 573.719,-389.857 577.462,-383.942"/>
</g>
<!-- \\WebinoDev\\Di\\Definition\\Generator -->
<g id="node2" class="node"><title>\\WebinoDev\\Di\\Definition\\Generator</title>
<polygon fill="none" stroke="black" points="966.5,-2538 889.5,-2538 889.5,-2502 966.5,-2502 966.5,-2538"/>
<text text-anchor="middle" x="928" y="-2517.2" font-family="Courier,monospace" font-size="11.00">Generator</text>
</g>
<!-- \\WebinoDev\\Config\\App\\Local -->
<g id="node3" class="node"><title>\\WebinoDev\\Config\\App\\Local</title>
<polygon fill="none" stroke="black" points="955,-2422 901,-2422 901,-2386 955,-2386 955,-2422"/>
<text text-anchor="middle" x="928" y="-2401.2" font-family="Courier,monospace" font-size="11.00">Local</text>
</g>
<!-- \\WebinoDev\\Config\\App\\Developer -->
<g id="node4" class="node"><title>\\WebinoDev\\Config\\App\\Developer</title>
<polygon fill="none" stroke="black" points="966.5,-2368 889.5,-2368 889.5,-2332 966.5,-2332 966.5,-2368"/>
<text text-anchor="middle" x="928" y="-2347.2" font-family="Courier,monospace" font-size="11.00">Developer</text>
</g>
<!-- \\WebinoDev\\Mail\\Message -->
<g id="node5" class="node"><title>\\WebinoDev\\Mail\\Message</title>
<polygon fill="none" stroke="black" points="960,-2280 896,-2280 896,-2244 960,-2244 960,-2280"/>
<text text-anchor="middle" x="928" y="-2259.2" font-family="Courier,monospace" font-size="11.00">Message</text>
</g>
<!-- \\Zend\\Mail\\Message -->
<g id="node41" class="node"><title>\\Zend\\Mail\\Message</title>
<ellipse fill="none" stroke="black" cx="536" cy="-310" rx="84.485" ry="18"/>
<text text-anchor="middle" x="536" y="-306.3" font-family="Times,serif" font-size="14.00" fill="gray">\Zend\Mail\Message</text>
</g>
<!-- \\WebinoDev\\Mail\\Message&#45;&gt;\\Zend\\Mail\\Message -->
<g id="edge2" class="edge"><title>\\WebinoDev\\Mail\\Message&#45;&gt;\\Zend\\Mail\\Message</title>
<path fill="none" stroke="black" d="M895.817,-2262.7C870.564,-2261.41 836.285,-2255.07 818,-2232 687.138,-2066.86 888.101,-492.58 746,-337 712.968,-300.835 657.328,-295.111 611.759,-297.88"/>
<polygon fill="none" stroke="black" points="611.315,-294.403 601.606,-298.645 611.841,-301.384 611.315,-294.403"/>
</g>
<!-- \\WebinoDev\\Factory\\ProfilingAdapterFactory -->
<g id="node6" class="node"><title>\\WebinoDev\\Factory\\ProfilingAdapterFactory</title>
<polygon fill="none" stroke="black" points="1014,-2200 842,-2200 842,-2164 1014,-2164 1014,-2200"/>
<text text-anchor="middle" x="928" y="-2179.2" font-family="Courier,monospace" font-size="11.00">ProfilingAdapterFactory</text>
</g>
<!-- \\Zend\\ServiceManager\\FactoryInterface -->
<g id="node42" class="node"><title>\\Zend\\ServiceManager\\FactoryInterface</title>
<ellipse fill="none" stroke="black" cx="536" cy="-256" rx="152.173" ry="18"/>
<text text-anchor="middle" x="536" y="-252.3" font-family="Times,serif" font-size="14.00" fill="gray">\Zend\ServiceManager\FactoryInterface</text>
</g>
<!-- \\WebinoDev\\Factory\\ProfilingAdapterFactory&#45;&gt;\\Zend\\ServiceManager\\FactoryInterface -->
<g id="edge3" class="edge"><title>\\WebinoDev\\Factory\\ProfilingAdapterFactory&#45;&gt;\\Zend\\ServiceManager\\FactoryInterface</title>
<path fill="none" stroke="black" stroke-dasharray="1,5" d="M841.744,-2170.45C832.603,-2165.98 824.341,-2160 818,-2152 688.888,-1989.15 886.194,-436.411 746,-283 723.633,-258.524 690.91,-247.994 657.967,-244.603"/>
<polygon fill="none" stroke="black" points="657.998,-241.094 647.747,-243.772 657.431,-248.071 657.998,-241.094"/>
</g>
<!-- \\WebinoDev\\Tester\\Bootstrap -->
<g id="node7" class="node"><title>\\WebinoDev\\Tester\\Bootstrap</title>
<polygon fill="none" stroke="black" points="966.5,-2120 889.5,-2120 889.5,-2084 966.5,-2084 966.5,-2120"/>
<text text-anchor="middle" x="928" y="-2099.2" font-family="Courier,monospace" font-size="11.00">Bootstrap</text>
</g>
<!-- \\WebinoDev\\Assetic\\Cache\\FilesystemCache -->
<g id="node8" class="node"><title>\\WebinoDev\\Assetic\\Cache\\FilesystemCache</title>
<polygon fill="none" stroke="black" points="987,-502 869,-502 869,-466 987,-466 987,-502"/>
<text text-anchor="middle" x="928" y="-481.2" font-family="Courier,monospace" font-size="11.00">FilesystemCache</text>
</g>
<!-- \\Assetic\\Cache\\FilesystemCache -->
<g id="node43" class="node"><title>\\Assetic\\Cache\\FilesystemCache</title>
<ellipse fill="none" stroke="black" cx="536" cy="-72" rx="126.178" ry="18"/>
<text text-anchor="middle" x="536" y="-68.3" font-family="Times,serif" font-size="14.00" fill="gray">\Assetic\Cache\FilesystemCache</text>
</g>
<!-- \\WebinoDev\\Assetic\\Cache\\FilesystemCache&#45;&gt;\\Assetic\\Cache\\FilesystemCache -->
<g id="edge4" class="edge"><title>\\WebinoDev\\Assetic\\Cache\\FilesystemCache&#45;&gt;\\Assetic\\Cache\\FilesystemCache</title>
<path fill="none" stroke="black" d="M868.973,-484.497C850.481,-481.743 831.373,-475.382 818,-462 703.278,-347.199 863.401,-216.06 746,-104 724.172,-83.1645 694.81,-72.4106 665.005,-67.412"/>
<polygon fill="none" stroke="black" points="665.292,-63.9168 654.891,-65.9313 664.278,-70.843 665.292,-63.9168"/>
</g>
<!-- \\WebinoDev\\Test\\Selenium\\WebDriver\\Select -->
<g id="node9" class="node"><title>\\WebinoDev\\Test\\Selenium\\WebDriver\\Select</title>
<polygon fill="none" stroke="black" points="956.5,-1984 899.5,-1984 899.5,-1948 956.5,-1948 956.5,-1984"/>
<text text-anchor="middle" x="928" y="-1963.2" font-family="Courier,monospace" font-size="11.00">Select</text>
</g>
<!-- \\WebinoDev\\Test\\Selenium\\WebDriver\\TestElement -->
<g id="node10" class="node"><title>\\WebinoDev\\Test\\Selenium\\WebDriver\\TestElement</title>
<polygon fill="none" stroke="black" points="973.5,-1930 882.5,-1930 882.5,-1894 973.5,-1894 973.5,-1930"/>
<text text-anchor="middle" x="928" y="-1909.2" font-family="Courier,monospace" font-size="11.00">TestElement</text>
</g>
<!-- \\WebinoDev\\Test\\Selenium\\WebDriver\\ElementInterface -->
<g id="node16" class="node"><title>\\WebinoDev\\Test\\Selenium\\WebDriver\\ElementInterface</title>
<polygon fill="none" stroke="black" points="598.5,-1930 473.5,-1930 473.5,-1894 598.5,-1894 598.5,-1930"/>
<text text-anchor="middle" x="536" y="-1909.2" font-family="Courier,monospace" font-size="11.00">ElementInterface</text>
</g>
<!-- \\WebinoDev\\Test\\Selenium\\WebDriver\\TestElement&#45;&gt;\\WebinoDev\\Test\\Selenium\\WebDriver\\ElementInterface -->
<g id="edge5" class="edge"><title>\\WebinoDev\\Test\\Selenium\\WebDriver\\TestElement&#45;&gt;\\WebinoDev\\Test\\Selenium\\WebDriver\\ElementInterface</title>
<path fill="none" stroke="black" stroke-dasharray="1,5" d="M882.262,-1912C815.531,-1912 689.229,-1912 609.285,-1912"/>
<polygon fill="none" stroke="black" points="608.807,-1908.5 598.807,-1912 608.807,-1915.5 608.807,-1908.5"/>
</g>
<!-- \\WebinoDev\\Test\\Selenium\\WebDriver\\TestWebDriver -->
<g id="node11" class="node"><title>\\WebinoDev\\Test\\Selenium\\WebDriver\\TestWebDriver</title>
<polygon fill="none" stroke="black" points="980,-1876 876,-1876 876,-1840 980,-1840 980,-1876"/>
<text text-anchor="middle" x="928" y="-1855.2" font-family="Courier,monospace" font-size="11.00">TestWebDriver</text>
</g>
<!-- \\WebinoDev\\Test\\Selenium\\WebDriver\\SimpleItem -->
<g id="node12" class="node"><title>\\WebinoDev\\Test\\Selenium\\WebDriver\\SimpleItem</title>
<polygon fill="none" stroke="black" points="970,-1822 886,-1822 886,-1786 970,-1786 970,-1822"/>
<text text-anchor="middle" x="928" y="-1801.2" font-family="Courier,monospace" font-size="11.00">SimpleItem</text>
</g>
<!-- \\WebinoDev\\Test\\Selenium\\WebDriver\\TestSession -->
<g id="node13" class="node"><title>\\WebinoDev\\Test\\Selenium\\WebDriver\\TestSession</title>
<polygon fill="none" stroke="black" points="973.5,-1768 882.5,-1768 882.5,-1732 973.5,-1732 973.5,-1768"/>
<text text-anchor="middle" x="928" y="-1747.2" font-family="Courier,monospace" font-size="11.00">TestSession</text>
</g>
<!-- \\WebinoDev\\Test\\Selenium\\WebDriver\\TestWindow -->
<g id="node14" class="node"><title>\\WebinoDev\\Test\\Selenium\\WebDriver\\TestWindow</title>
<polygon fill="none" stroke="black" points="970,-1714 886,-1714 886,-1678 970,-1678 970,-1714"/>
<text text-anchor="middle" x="928" y="-1693.2" font-family="Courier,monospace" font-size="11.00">TestWindow</text>
</g>
<!-- \\WebinoDev\\Test\\Selenium\\WebDriver\\WindowInterface -->
<g id="node17" class="node"><title>\\WebinoDev\\Test\\Selenium\\WebDriver\\WindowInterface</title>
<polygon fill="none" stroke="black" points="595,-1714 477,-1714 477,-1678 595,-1678 595,-1714"/>
<text text-anchor="middle" x="536" y="-1693.2" font-family="Courier,monospace" font-size="11.00">WindowInterface</text>
</g>
<!-- \\WebinoDev\\Test\\Selenium\\WebDriver\\TestWindow&#45;&gt;\\WebinoDev\\Test\\Selenium\\WebDriver\\WindowInterface -->
<g id="edge6" class="edge"><title>\\WebinoDev\\Test\\Selenium\\WebDriver\\TestWindow&#45;&gt;\\WebinoDev\\Test\\Selenium\\WebDriver\\WindowInterface</title>
<path fill="none" stroke="black" stroke-dasharray="1,5" d="M885.632,-1696C818.799,-1696 686.397,-1696 605.377,-1696"/>
<polygon fill="none" stroke="black" points="605.272,-1692.5 595.272,-1696 605.272,-1699.5 605.272,-1692.5"/>
</g>
<!-- \\WebinoDev\\Test\\Selenium\\WebDriver\\SessionInterface -->
<g id="node15" class="node"><title>\\WebinoDev\\Test\\Selenium\\WebDriver\\SessionInterface</title>
<polygon fill="none" stroke="black" points="990.5,-1660 865.5,-1660 865.5,-1624 990.5,-1624 990.5,-1660"/>
<text text-anchor="middle" x="928" y="-1639.2" font-family="Courier,monospace" font-size="11.00">SessionInterface</text>
</g>
<!-- \\WebinoDev\\Test\\Selenium\\AbstractTestCase -->
<g id="node18" class="node"><title>\\WebinoDev\\Test\\Selenium\\AbstractTestCase</title>
<polygon fill="none" stroke="black" points="598.5,-1552 473.5,-1552 473.5,-1516 598.5,-1516 598.5,-1552"/>
<text text-anchor="start" x="502" y="-1537.2" font-family="Courier,monospace" font-size="11.00">«abstract»</text>
<text text-anchor="start" x="481.5" y="-1525.2" font-family="Courier,monospace" font-size="11.00">AbstractTestCase</text>
</g>
<!-- \\PHPUnit_Framework_TestCase -->
<g id="node44" class="node"><title>\\PHPUnit_Framework_TestCase</title>
<ellipse fill="none" stroke="black" cx="127" cy="-210" rx="126.978" ry="18"/>
<text text-anchor="middle" x="127" y="-206.3" font-family="Times,serif" font-size="14.00" fill="gray">\PHPUnit_Framework_TestCase</text>
</g>
<!-- \\WebinoDev\\Test\\Selenium\\AbstractTestCase&#45;&gt;\\PHPUnit_Framework_TestCase -->
<g id="edge7" class="edge"><title>\\WebinoDev\\Test\\Selenium\\AbstractTestCase&#45;&gt;\\PHPUnit_Framework_TestCase</title>
<path fill="none" stroke="black" d="M521.335,-1515.94C483.965,-1465.65 379.314,-1318.55 326,-1180 189.075,-824.173 140.778,-356.693 130.323,-238.221"/>
<polygon fill="none" stroke="black" points="133.802,-237.821 129.453,-228.159 126.828,-238.424 133.802,-237.821"/>
</g>
<!-- \\WebinoDev\\Test\\Selenium\\AbstractAuthenticationTestCase -->
<g id="node19" class="node"><title>\\WebinoDev\\Test\\Selenium\\AbstractAuthenticationTestCase</title>
<polygon fill="none" stroke="black" points="1037.5,-1606 818.5,-1606 818.5,-1570 1037.5,-1570 1037.5,-1606"/>
<text text-anchor="start" x="894" y="-1591.2" font-family="Courier,monospace" font-size="11.00">«abstract»</text>
<text text-anchor="start" x="826.5" y="-1579.2" font-family="Courier,monospace" font-size="11.00">AbstractAuthenticationTestCase</text>
</g>
<!-- \\WebinoDev\\Test\\Selenium\\AbstractAuthenticationTestCase&#45;&gt;\\WebinoDev\\Test\\Selenium\\AbstractTestCase -->
<g id="edge8" class="edge"><title>\\WebinoDev\\Test\\Selenium\\AbstractAuthenticationTestCase&#45;&gt;\\WebinoDev\\Test\\Selenium\\AbstractTestCase</title>
<path fill="none" stroke="black" d="M818.363,-1572.96C751.356,-1563.68 667.298,-1552.04 608.584,-1543.91"/>
<polygon fill="none" stroke="black" points="609.043,-1540.44 598.657,-1542.54 608.083,-1547.38 609.043,-1540.44"/>
</g>
<!-- \\WebinoDev\\Test\\Selenium\\AbstractMailTestCase -->
<g id="node20" class="node"><title>\\WebinoDev\\Test\\Selenium\\AbstractMailTestCase</title>
<polygon fill="none" stroke="black" points="1004,-1552 852,-1552 852,-1516 1004,-1516 1004,-1552"/>
<text text-anchor="start" x="894" y="-1537.2" font-family="Courier,monospace" font-size="11.00">«abstract»</text>
<text text-anchor="start" x="860" y="-1525.2" font-family="Courier,monospace" font-size="11.00">AbstractMailTestCase</text>
</g>
<!-- \\WebinoDev\\Test\\Selenium\\AbstractMailTestCase&#45;&gt;\\WebinoDev\\Test\\Selenium\\AbstractTestCase -->
<g id="edge9" class="edge"><title>\\WebinoDev\\Test\\Selenium\\AbstractMailTestCase&#45;&gt;\\WebinoDev\\Test\\Selenium\\AbstractTestCase</title>
<path fill="none" stroke="black" d="M851.804,-1534C781.695,-1534 677.852,-1534 608.844,-1534"/>
<polygon fill="none" stroke="black" points="608.501,-1530.5 598.501,-1534 608.501,-1537.5 608.501,-1530.5"/>
</g>
<!-- \\WebinoDev\\Test\\Selenium\\ElementsTrait -->
<g id="node21" class="node"><title>\\WebinoDev\\Test\\Selenium\\ElementsTrait</title>
<polygon fill="none" stroke="black" points="980,-1498 876,-1498 876,-1462 980,-1462 980,-1498"/>
<text text-anchor="middle" x="928" y="-1477.2" font-family="Courier,monospace" font-size="11.00">ElementsTrait</text>
</g>
<!-- \\WebinoDev\\Test\\Selenium\\NotifyTrait -->
<g id="node22" class="node"><title>\\WebinoDev\\Test\\Selenium\\NotifyTrait</title>
<polygon fill="none" stroke="black" points="973.5,-1444 882.5,-1444 882.5,-1408 973.5,-1408 973.5,-1444"/>
<text text-anchor="middle" x="928" y="-1423.2" font-family="Courier,monospace" font-size="11.00">NotifyTrait</text>
</g>
<!-- \\WebinoDev\\Test\\Selenium\\ScreenshotTrait -->
<g id="node23" class="node"><title>\\WebinoDev\\Test\\Selenium\\ScreenshotTrait</title>
<polygon fill="none" stroke="black" points="987,-1390 869,-1390 869,-1354 987,-1354 987,-1390"/>
<text text-anchor="middle" x="928" y="-1369.2" font-family="Courier,monospace" font-size="11.00">ScreenshotTrait</text>
</g>
<!-- \\WebinoDev\\Test\\Selenium\\MailTrait -->
<g id="node24" class="node"><title>\\WebinoDev\\Test\\Selenium\\MailTrait</title>
<polygon fill="none" stroke="black" points="966.5,-1336 889.5,-1336 889.5,-1300 966.5,-1300 966.5,-1336"/>
<text text-anchor="middle" x="928" y="-1315.2" font-family="Courier,monospace" font-size="11.00">MailTrait</text>
</g>
<!-- \\WebinoDev\\Test\\Selenium\\AuthenticationTrait -->
<g id="node25" class="node"><title>\\WebinoDev\\Test\\Selenium\\AuthenticationTrait</title>
<polygon fill="none" stroke="black" points="1000.5,-1282 855.5,-1282 855.5,-1246 1000.5,-1246 1000.5,-1282"/>
<text text-anchor="middle" x="928" y="-1261.2" font-family="Courier,monospace" font-size="11.00">AuthenticationTrait</text>
</g>
<!-- \\WebinoDev\\Test\\Selenium\\ElementTrait -->
<g id="node26" class="node"><title>\\WebinoDev\\Test\\Selenium\\ElementTrait</title>
<polygon fill="none" stroke="black" points="977,-1228 879,-1228 879,-1192 977,-1192 977,-1228"/>
<text text-anchor="middle" x="928" y="-1207.2" font-family="Courier,monospace" font-size="11.00">ElementTrait</text>
</g>
<!-- \\WebinoDev\\Test\\Functional\\AbstractMailTestCase -->
<g id="node27" class="node"><title>\\WebinoDev\\Test\\Functional\\AbstractMailTestCase</title>
<polygon fill="none" stroke="black" points="1004,-1068 852,-1068 852,-1032 1004,-1032 1004,-1068"/>
<text text-anchor="start" x="894" y="-1053.2" font-family="Courier,monospace" font-size="11.00">«abstract»</text>
<text text-anchor="start" x="860" y="-1041.2" font-family="Courier,monospace" font-size="11.00">AbstractMailTestCase</text>
</g>
<!-- \\WebinoDev\\Test\\Functional\\AbstractMailTestCase&#45;&gt;\\PHPUnit_Framework_TestCase -->
<g id="edge10" class="edge"><title>\\WebinoDev\\Test\\Functional\\AbstractMailTestCase&#45;&gt;\\PHPUnit_Framework_TestCase</title>
<path fill="none" stroke="black" d="M851.788,-1044.26C838.89,-1039.97 826.824,-1033.28 818,-1023 702.622,-888.55 874.96,-350.482 746,-229 711.502,-196.503 430.483,-199.801 259.496,-204.972"/>
<polygon fill="none" stroke="black" points="259.299,-201.476 249.412,-205.283 259.515,-208.473 259.299,-201.476"/>
</g>
<!-- \\WebinoDev\\Test\\Functional\\MailTrait -->
<g id="node28" class="node"><title>\\WebinoDev\\Test\\Functional\\MailTrait</title>
<polygon fill="none" stroke="black" points="966.5,-1014 889.5,-1014 889.5,-978 966.5,-978 966.5,-1014"/>
<text text-anchor="middle" x="928" y="-993.2" font-family="Courier,monospace" font-size="11.00">MailTrait</text>
</g>
<!-- \\WebinoDev\\Test\\Functional\\SeleniumTestTrait -->
<g id="node29" class="node"><title>\\WebinoDev\\Test\\Functional\\SeleniumTestTrait</title>
<polygon fill="none" stroke="black" points="993.5,-960 862.5,-960 862.5,-924 993.5,-924 993.5,-960"/>
<text text-anchor="middle" x="928" y="-939.2" font-family="Courier,monospace" font-size="11.00">SeleniumTestTrait</text>
</g>
<!-- \\WebinoDev\\Test\\Exception\\RuntimeException -->
<g id="node30" class="node"><title>\\WebinoDev\\Test\\Exception\\RuntimeException</title>
<polygon fill="none" stroke="black" points="990.5,-1148 865.5,-1148 865.5,-1112 990.5,-1112 990.5,-1148"/>
<text text-anchor="middle" x="928" y="-1127.2" font-family="Courier,monospace" font-size="11.00">RuntimeException</text>
</g>
<!-- \\WebinoDev\\Test\\Exception\\ExceptionInterface -->
<g id="node31" class="node"><title>\\WebinoDev\\Test\\Exception\\ExceptionInterface</title>
<polygon fill="none" stroke="black" points="605,-1148 467,-1148 467,-1112 605,-1112 605,-1148"/>
<text text-anchor="middle" x="536" y="-1127.2" font-family="Courier,monospace" font-size="11.00">ExceptionInterface</text>
</g>
<!-- \\WebinoDev\\Test\\Exception\\RuntimeException&#45;&gt;\\WebinoDev\\Test\\Exception\\ExceptionInterface -->
<g id="edge13" class="edge"><title>\\WebinoDev\\Test\\Exception\\RuntimeException&#45;&gt;\\WebinoDev\\Test\\Exception\\ExceptionInterface</title>
<path fill="none" stroke="black" stroke-dasharray="1,5" d="M865.203,-1130C797.509,-1130 688.789,-1130 615.204,-1130"/>
<polygon fill="none" stroke="black" points="615.062,-1126.5 605.062,-1130 615.062,-1133.5 615.062,-1126.5"/>
</g>
<!-- \\RuntimeException -->
<g id="node45" class="node"><title>\\RuntimeException</title>
<ellipse fill="none" stroke="black" cx="536" cy="-164" rx="79.0865" ry="18"/>
<text text-anchor="middle" x="536" y="-160.3" font-family="Times,serif" font-size="14.00" fill="gray">\RuntimeException</text>
</g>
<!-- \\WebinoDev\\Test\\Exception\\RuntimeException&#45;&gt;\\RuntimeException -->
<g id="edge12" class="edge"><title>\\WebinoDev\\Test\\Exception\\RuntimeException&#45;&gt;\\RuntimeException</title>
<path fill="none" stroke="black" d="M865.445,-1126.23C847.602,-1122.02 829.777,-1114.2 818,-1100 694.023,-950.502 867.498,-380.519 746,-229 716.779,-192.559 667.432,-176.127 624.024,-168.891"/>
<polygon fill="none" stroke="black" points="624.414,-165.41 614,-167.362 623.358,-172.33 624.414,-165.41"/>
</g>
<!-- \\WebinoDev\\Test\\Autoloader -->
<g id="node32" class="node"><title>\\WebinoDev\\Test\\Autoloader</title>
<polygon fill="none" stroke="black" points="970,-906 886,-906 886,-870 970,-870 970,-906"/>
<text text-anchor="middle" x="928" y="-885.2" font-family="Courier,monospace" font-size="11.00">Autoloader</text>
</g>
<!-- \\WebinoDev\\Test\\TestCase -->
<g id="node33" class="node"><title>\\WebinoDev\\Test\\TestCase</title>
<polygon fill="none" stroke="black" points="963.5,-852 892.5,-852 892.5,-816 963.5,-816 963.5,-852"/>
<text text-anchor="middle" x="928" y="-831.2" font-family="Courier,monospace" font-size="11.00">TestCase</text>
</g>
<!-- \\WebinoDev\\Test\\TestCase&#45;&gt;\\PHPUnit_Framework_TestCase -->
<g id="edge11" class="edge"><title>\\WebinoDev\\Test\\TestCase&#45;&gt;\\PHPUnit_Framework_TestCase</title>
<path fill="none" stroke="black" d="M892.493,-835.127C867.971,-833.926 836.266,-827.931 818,-807 719.54,-694.175 857.4,-237.07 746,-137 676.567,-74.6287 417.881,-120.602 326,-137 271.471,-146.732 212.291,-170.43 172.972,-188.204"/>
<polygon fill="none" stroke="black" points="171.05,-185.234 163.418,-192.583 173.967,-191.597 171.05,-185.234"/>
</g>
<!-- \\WebinoDev\\Test\\PdfTrait -->
<g id="node34" class="node"><title>\\WebinoDev\\Test\\PdfTrait</title>
<polygon fill="none" stroke="black" points="963.5,-798 892.5,-798 892.5,-762 963.5,-762 963.5,-798"/>
<text text-anchor="middle" x="928" y="-777.2" font-family="Courier,monospace" font-size="11.00">PdfTrait</text>
</g>
<!-- \\WebinoDev\\Test\\DomTrait -->
<g id="node35" class="node"><title>\\WebinoDev\\Test\\DomTrait</title>
<polygon fill="none" stroke="black" points="963.5,-744 892.5,-744 892.5,-708 963.5,-708 963.5,-744"/>
<text text-anchor="middle" x="928" y="-723.2" font-family="Courier,monospace" font-size="11.00">DomTrait</text>
</g>
<!-- \\WebinoDev\\Test\\MailTrait -->
<g id="node36" class="node"><title>\\WebinoDev\\Test\\MailTrait</title>
<polygon fill="none" stroke="black" points="966.5,-690 889.5,-690 889.5,-654 966.5,-654 966.5,-690"/>
<text text-anchor="middle" x="928" y="-669.2" font-family="Courier,monospace" font-size="11.00">MailTrait</text>
</g>
<!-- \\WebinoDev\\Exception\\DevelopmentException -->
<g id="node37" class="node"><title>\\WebinoDev\\Exception\\DevelopmentException</title>
<polygon fill="none" stroke="black" points="1004,-610 852,-610 852,-574 1004,-574 1004,-610"/>
<text text-anchor="middle" x="928" y="-589.2" font-family="Courier,monospace" font-size="11.00">DevelopmentException</text>
</g>
<!-- \\WebinoDev\\Exception\\ExceptionInterface -->
<g id="node38" class="node"><title>\\WebinoDev\\Exception\\ExceptionInterface</title>
<polygon fill="none" stroke="black" points="605,-610 467,-610 467,-574 605,-574 605,-610"/>
<text text-anchor="middle" x="536" y="-589.2" font-family="Courier,monospace" font-size="11.00">ExceptionInterface</text>
</g>
<!-- \\WebinoDev\\Exception\\DevelopmentException&#45;&gt;\\WebinoDev\\Exception\\ExceptionInterface -->
<g id="edge16" class="edge"><title>\\WebinoDev\\Exception\\DevelopmentException&#45;&gt;\\WebinoDev\\Exception\\ExceptionInterface</title>
<path fill="none" stroke="black" stroke-dasharray="1,5" d="M851.804,-592C783.905,-592 684.367,-592 615.473,-592"/>
<polygon fill="none" stroke="black" points="615.114,-588.5 605.114,-592 615.114,-595.5 615.114,-588.5"/>
</g>
<!-- \\WebinoDev\\Exception\\DevelopmentException&#45;&gt;\\RuntimeException -->
<g id="edge15" class="edge"><title>\\WebinoDev\\Exception\\DevelopmentException&#45;&gt;\\RuntimeException</title>
<path fill="none" stroke="black" d="M871.825,-573.899C852.12,-564.838 831.482,-551.889 818,-534 725.558,-411.341 857.707,-301.414 746,-196 712.263,-164.163 660.906,-155.96 617.545,-155.816"/>
<polygon fill="none" stroke="black" points="617.245,-152.319 607.284,-155.929 617.322,-159.319 617.245,-152.319"/>
</g>
<!-- \\WebinoDev\\Module -->
<g id="node39" class="node"><title>\\WebinoDev\\Module</title>
<polygon fill="none" stroke="black" points="956.5,-442 899.5,-442 899.5,-406 956.5,-406 956.5,-442"/>
<text text-anchor="middle" x="928" y="-421.2" font-family="Courier,monospace" font-size="11.00">Module</text>
</g>
<!-- \\Zend\\ModuleManager\\Feature\\ConfigProviderInterface -->
<g id="node46" class="node"><title>\\Zend\\ModuleManager\\Feature\\ConfigProviderInterface</title>
<ellipse fill="none" stroke="black" cx="536" cy="-18" rx="209.863" ry="18"/>
<text text-anchor="middle" x="536" y="-14.3" font-family="Times,serif" font-size="14.00" fill="gray">\Zend\ModuleManager\Feature\ConfigProviderInterface</text>
</g>
<!-- \\WebinoDev\\Module&#45;&gt;\\Zend\\ModuleManager\\Feature\\ConfigProviderInterface -->
<g id="edge14" class="edge"><title>\\WebinoDev\\Module&#45;&gt;\\Zend\\ModuleManager\\Feature\\ConfigProviderInterface</title>
<path fill="none" stroke="black" stroke-dasharray="1,5" d="M924.467,-405.9C914.718,-343.688 873.556,-137.391 746,-45 738.972,-39.9095 731.452,-35.5306 723.592,-31.775"/>
<polygon fill="none" stroke="black" points="724.78,-28.4739 714.218,-27.6473 721.96,-34.8804 724.78,-28.4739"/>
</g>
</g>
</svg>
