<?xml version="1.0" encoding="UTF-8" standalone="no"?>
<!DOCTYPE svg PUBLIC "-//W3C//DTD SVG 1.1//EN"
 "http://www.w3.org/Graphics/SVG/1.1/DTD/svg11.dtd">
<!-- Generated by graphviz version 2.36.0 (20140111.2315)
 -->
<!-- Title: G Pages: 1 -->
<svg width="1086pt" height="2980pt"
 viewBox="0.00 0.00 1086.00 2980.00" xmlns="http://www.w3.org/2000/svg" xmlns:xlink="http://www.w3.org/1999/xlink">
<g id="graph0" class="graph" transform="scale(1 1) rotate(0) translate(4 2976)">
<title>G</title>
<polygon fill="white" stroke="none" points="-4,4 -4,-2976 1082,-2976 1082,4 -4,4"/>
<g id="clust1" class="cluster"><title>cluster_Global</title>
<path fill="none" stroke="gray" d="M445,-352C445,-352 1058,-352 1058,-352 1064,-352 1070,-358 1070,-364 1070,-364 1070,-2952 1070,-2952 1070,-2958 1064,-2964 1058,-2964 1058,-2964 445,-2964 445,-2964 439,-2964 433,-2958 433,-2952 433,-2952 433,-364 433,-364 433,-358 439,-352 445,-352"/>
<text text-anchor="middle" x="751.5" y="-2951.2" font-family="Times,serif" font-size="11.00" fill="gray">Global</text>
</g>
<g id="clust2" class="cluster"><title>cluster_\WebinoDev</title>
<path fill="none" stroke="gray" d="M453,-360C453,-360 1050,-360 1050,-360 1056,-360 1062,-366 1062,-372 1062,-372 1062,-2924 1062,-2924 1062,-2930 1056,-2936 1050,-2936 1050,-2936 453,-2936 453,-2936 447,-2936 441,-2930 441,-2924 441,-2924 441,-372 441,-372 441,-366 447,-360 453,-360"/>
<text text-anchor="middle" x="751.5" y="-2923.2" font-family="Times,serif" font-size="11.00" fill="gray">WebinoDev</text>
</g>
<g id="clust3" class="cluster"><title>cluster_\WebinoDev\Assetic</title>
<path fill="none" stroke="gray" d="M865,-2800C865,-2800 991,-2800 991,-2800 997,-2800 1003,-2806 1003,-2812 1003,-2812 1003,-2896 1003,-2896 1003,-2902 997,-2908 991,-2908 991,-2908 865,-2908 865,-2908 859,-2908 853,-2902 853,-2896 853,-2896 853,-2812 853,-2812 853,-2806 859,-2800 865,-2800"/>
<text text-anchor="middle" x="928" y="-2895.2" font-family="Times,serif" font-size="11.00" fill="gray">Assetic</text>
</g>
<g id="clust4" class="cluster"><title>cluster_\WebinoDev\Assetic\Cache</title>
<path fill="none" stroke="gray" d="M873,-2808C873,-2808 983,-2808 983,-2808 989,-2808 995,-2814 995,-2820 995,-2820 995,-2868 995,-2868 995,-2874 989,-2880 983,-2880 983,-2880 873,-2880 873,-2880 867,-2880 861,-2874 861,-2868 861,-2868 861,-2820 861,-2820 861,-2814 867,-2808 873,-2808"/>
<text text-anchor="middle" x="928" y="-2867.2" font-family="Times,serif" font-size="11.00" fill="gray">Cache</text>
</g>
<g id="clust5" class="cluster"><title>cluster_\WebinoDev\Vfs</title>
<path fill="none" stroke="gray" d="M880,-2720C880,-2720 976,-2720 976,-2720 982,-2720 988,-2726 988,-2732 988,-2732 988,-2780 988,-2780 988,-2786 982,-2792 976,-2792 976,-2792 880,-2792 880,-2792 874,-2792 868,-2786 868,-2780 868,-2780 868,-2732 868,-2732 868,-2726 874,-2720 880,-2720"/>
<text text-anchor="middle" x="928" y="-2779.2" font-family="Times,serif" font-size="11.00" fill="gray">Vfs</text>
</g>
<g id="clust6" class="cluster"><title>cluster_\WebinoDev\Config</title>
<path fill="none" stroke="gray" d="M885,-2550C885,-2550 971,-2550 971,-2550 977,-2550 983,-2556 983,-2562 983,-2562 983,-2700 983,-2700 983,-2706 977,-2712 971,-2712 971,-2712 885,-2712 885,-2712 879,-2712 873,-2706 873,-2700 873,-2700 873,-2562 873,-2562 873,-2556 879,-2550 885,-2550"/>
<text text-anchor="middle" x="928" y="-2699.2" font-family="Times,serif" font-size="11.00" fill="gray">Config</text>
</g>
<g id="clust7" class="cluster"><title>cluster_\WebinoDev\Config\App</title>
<path fill="none" stroke="gray" d="M893,-2558C893,-2558 963,-2558 963,-2558 969,-2558 975,-2564 975,-2570 975,-2570 975,-2672 975,-2672 975,-2678 969,-2684 963,-2684 963,-2684 893,-2684 893,-2684 887,-2684 881,-2678 881,-2672 881,-2672 881,-2570 881,-2570 881,-2564 887,-2558 893,-2558"/>
<text text-anchor="middle" x="928" y="-2671.2" font-family="Times,serif" font-size="11.00" fill="gray">App</text>
</g>
<g id="clust8" class="cluster"><title>cluster_\WebinoDev\Tester</title>
<path fill="none" stroke="gray" d="M893,-2470C893,-2470 963,-2470 963,-2470 969,-2470 975,-2476 975,-2482 975,-2482 975,-2530 975,-2530 975,-2536 969,-2542 963,-2542 963,-2542 893,-2542 893,-2542 887,-2542 881,-2536 881,-2530 881,-2530 881,-2482 881,-2482 881,-2476 887,-2470 893,-2470"/>
<text text-anchor="middle" x="928" y="-2529.2" font-family="Times,serif" font-size="11.00" fill="gray">Tester</text>
</g>
<g id="clust9" class="cluster"><title>cluster_\WebinoDev\Mail</title>
<path fill="none" stroke="gray" d="M900,-690C900,-690 956,-690 956,-690 962,-690 968,-696 968,-702 968,-702 968,-750 968,-750 968,-756 962,-762 956,-762 956,-762 900,-762 900,-762 894,-762 888,-756 888,-750 888,-750 888,-702 888,-702 888,-696 894,-690 900,-690"/>
<text text-anchor="middle" x="928" y="-749.2" font-family="Times,serif" font-size="11.00" fill="gray">Mail</text>
</g>
<g id="clust10" class="cluster"><title>cluster_\WebinoDev\Test</title>
<path fill="none" stroke="gray" d="M461,-770C461,-770 1042,-770 1042,-770 1048,-770 1054,-776 1054,-782 1054,-782 1054,-2450 1054,-2450 1054,-2456 1048,-2462 1042,-2462 1042,-2462 461,-2462 461,-2462 455,-2462 449,-2456 449,-2450 449,-2450 449,-782 449,-782 449,-776 455,-770 461,-770"/>
<text text-anchor="middle" x="751.5" y="-2449.2" font-family="Times,serif" font-size="11.00" fill="gray">Test</text>
</g>
<g id="clust11" class="cluster"><title>cluster_\WebinoDev\Test\Selenium</title>
<path fill="none" stroke="gray" d="M469,-1308C469,-1308 1034,-1308 1034,-1308 1040,-1308 1046,-1314 1046,-1320 1046,-1320 1046,-2422 1046,-2422 1046,-2428 1040,-2434 1034,-2434 1034,-2434 469,-2434 469,-2434 463,-2434 457,-2428 457,-2422 457,-2422 457,-1320 457,-1320 457,-1314 463,-1308 469,-1308"/>
<text text-anchor="middle" x="751.5" y="-2421.2" font-family="Times,serif" font-size="11.00" fill="gray">Selenium</text>
</g>
<g id="clust12" class="cluster"><title>cluster_\WebinoDev\Test\Selenium\WebDriver</title>
<path fill="none" stroke="gray" d="M477,-2010C477,-2010 987,-2010 987,-2010 993,-2010 999,-2016 999,-2022 999,-2022 999,-2394 999,-2394 999,-2400 993,-2406 987,-2406 987,-2406 477,-2406 477,-2406 471,-2406 465,-2400 465,-2394 465,-2394 465,-2022 465,-2022 465,-2016 471,-2010 477,-2010"/>
<text text-anchor="middle" x="732" y="-2393.2" font-family="Times,serif" font-size="11.00" fill="gray">WebDriver</text>
</g>
<g id="clust13" class="cluster"><title>cluster_\WebinoDev\Test\Exception</title>
<path fill="none" stroke="gray" d="M471,-1228C471,-1228 987,-1228 987,-1228 993,-1228 999,-1234 999,-1240 999,-1240 999,-1288 999,-1288 999,-1294 993,-1300 987,-1300 987,-1300 471,-1300 471,-1300 465,-1300 459,-1294 459,-1288 459,-1288 459,-1240 459,-1240 459,-1234 465,-1228 471,-1228"/>
<text text-anchor="middle" x="729" y="-1287.2" font-family="Times,serif" font-size="11.00" fill="gray">Exception</text>
</g>
<g id="clust14" class="cluster"><title>cluster_\WebinoDev\Test\Functional</title>
<path fill="none" stroke="gray" d="M856,-1040C856,-1040 1000,-1040 1000,-1040 1006,-1040 1012,-1046 1012,-1052 1012,-1052 1012,-1208 1012,-1208 1012,-1214 1006,-1220 1000,-1220 1000,-1220 856,-1220 856,-1220 850,-1220 844,-1214 844,-1208 844,-1208 844,-1052 844,-1052 844,-1046 850,-1040 856,-1040"/>
<text text-anchor="middle" x="928" y="-1207.2" font-family="Times,serif" font-size="11.00" fill="gray">Functional</text>
</g>
<g id="clust15" class="cluster"><title>cluster_\WebinoDev\Factory</title>
<path fill="none" stroke="gray" d="M846,-610C846,-610 1010,-610 1010,-610 1016,-610 1022,-616 1022,-622 1022,-622 1022,-670 1022,-670 1022,-676 1016,-682 1010,-682 1010,-682 846,-682 846,-682 840,-682 834,-676 834,-670 834,-670 834,-622 834,-622 834,-616 840,-610 846,-610"/>
<text text-anchor="middle" x="928" y="-669.2" font-family="Times,serif" font-size="11.00" fill="gray">Factory</text>
</g>
<g id="clust16" class="cluster"><title>cluster_\WebinoDev\Di</title>
<path fill="none" stroke="gray" d="M885,-494C885,-494 971,-494 971,-494 977,-494 983,-500 983,-506 983,-506 983,-590 983,-590 983,-596 977,-602 971,-602 971,-602 885,-602 885,-602 879,-602 873,-596 873,-590 873,-590 873,-506 873,-506 873,-500 879,-494 885,-494"/>
<text text-anchor="middle" x="928" y="-589.2" font-family="Times,serif" font-size="11.00" fill="gray">Di</text>
</g>
<g id="clust17" class="cluster"><title>cluster_\WebinoDev\Di\Definition</title>
<path fill="none" stroke="gray" d="M893,-502C893,-502 963,-502 963,-502 969,-502 975,-508 975,-514 975,-514 975,-562 975,-562 975,-568 969,-574 963,-574 963,-574 893,-574 893,-574 887,-574 881,-568 881,-562 881,-562 881,-514 881,-514 881,-508 887,-502 893,-502"/>
<text text-anchor="middle" x="928" y="-561.2" font-family="Times,serif" font-size="11.00" fill="gray">Definition</text>
</g>
<g id="clust18" class="cluster"><title>cluster_\WebinoDev\Exception</title>
<path fill="none" stroke="gray" d="M471,-414C471,-414 1000,-414 1000,-414 1006,-414 1012,-420 1012,-426 1012,-426 1012,-474 1012,-474 1012,-480 1006,-486 1000,-486 1000,-486 471,-486 471,-486 465,-486 459,-480 459,-474 459,-474 459,-426 459,-426 459,-420 465,-414 471,-414"/>
<text text-anchor="middle" x="735.5" y="-473.2" font-family="Times,serif" font-size="11.00" fill="gray">Exception</text>
</g>
<!-- \\WebinoDev\\Assetic\\Cache\\FilesystemCache -->
<g id="node1" class="node"><title>\\WebinoDev\\Assetic\\Cache\\FilesystemCache</title>
<polygon fill="none" stroke="black" points="987,-2852 869,-2852 869,-2816 987,-2816 987,-2852"/>
<text text-anchor="middle" x="928" y="-2831.2" font-family="Courier,monospace" font-size="11.00">FilesystemCache</text>
</g>
<!-- \\Assetic\\Cache\\FilesystemCache -->
<g id="node45" class="node"><title>\\Assetic\\Cache\\FilesystemCache</title>
<ellipse fill="none" stroke="black" cx="536" cy="-326" rx="126.178" ry="18"/>
<text text-anchor="middle" x="536" y="-322.3" font-family="Times,serif" font-size="14.00" fill="gray">\Assetic\Cache\FilesystemCache</text>
</g>
<!-- \\WebinoDev\\Assetic\\Cache\\FilesystemCache&#45;&gt;\\Assetic\\Cache\\FilesystemCache -->
<g id="edge1" class="edge"><title>\\WebinoDev\\Assetic\\Cache\\FilesystemCache&#45;&gt;\\Assetic\\Cache\\FilesystemCache</title>
<path fill="none" stroke="black" d="M868.961,-2827.11C849.654,-2821.77 830.029,-2812.4 818,-2796 661.15,-2582.12 897.813,-627.487 746,-410 720.616,-373.634 676.706,-353.004 635.665,-341.304"/>
<polygon fill="none" stroke="black" points="636.428,-337.884 625.861,-338.658 634.604,-344.643 636.428,-337.884"/>
</g>
<!-- \\WebinoDev\\Vfs\\StreamWrapper -->
<g id="node2" class="node"><title>\\WebinoDev\\Vfs\\StreamWrapper</title>
<polygon fill="none" stroke="black" points="980,-2764 876,-2764 876,-2728 980,-2728 980,-2764"/>
<text text-anchor="middle" x="928" y="-2743.2" font-family="Courier,monospace" font-size="11.00">StreamWrapper</text>
</g>
<!-- \\org\\bovigo\\vfs\\vfsStreamWrapper -->
<g id="node46" class="node"><title>\\org\\bovigo\\vfs\\vfsStreamWrapper</title>
<ellipse fill="none" stroke="black" cx="536" cy="-272" rx="134.576" ry="18"/>
<text text-anchor="middle" x="536" y="-268.3" font-family="Times,serif" font-size="14.00" fill="gray">\org\bovigo\vfs\vfsStreamWrapper</text>
</g>
<!-- \\WebinoDev\\Vfs\\StreamWrapper&#45;&gt;\\org\\bovigo\\vfs\\vfsStreamWrapper -->
<g id="edge2" class="edge"><title>\\WebinoDev\\Vfs\\StreamWrapper&#45;&gt;\\org\\bovigo\\vfs\\vfsStreamWrapper</title>
<path fill="none" stroke="black" d="M875.782,-2731.54C854.125,-2722.65 830.953,-2708.85 818,-2688 677.846,-2462.43 924.326,-495.786 746,-299 719.839,-270.131 679.281,-260.607 640.829,-259.33"/>
<polygon fill="none" stroke="black" points="640.634,-255.826 630.583,-259.177 640.53,-262.826 640.634,-255.826"/>
</g>
<!-- \\WebinoDev\\Config\\App\\Developer -->
<g id="node3" class="node"><title>\\WebinoDev\\Config\\App\\Developer</title>
<polygon fill="none" stroke="black" points="966.5,-2656 889.5,-2656 889.5,-2620 966.5,-2620 966.5,-2656"/>
<text text-anchor="middle" x="928" y="-2635.2" font-family="Courier,monospace" font-size="11.00">Developer</text>
</g>
<!-- \\WebinoDev\\Config\\App\\Local -->
<g id="node4" class="node"><title>\\WebinoDev\\Config\\App\\Local</title>
<polygon fill="none" stroke="black" points="955,-2602 901,-2602 901,-2566 955,-2566 955,-2602"/>
<text text-anchor="middle" x="928" y="-2581.2" font-family="Courier,monospace" font-size="11.00">Local</text>
</g>
<!-- \\WebinoDev\\Tester\\Bootstrap -->
<g id="node5" class="node"><title>\\WebinoDev\\Tester\\Bootstrap</title>
<polygon fill="none" stroke="black" points="966.5,-2514 889.5,-2514 889.5,-2478 966.5,-2478 966.5,-2514"/>
<text text-anchor="middle" x="928" y="-2493.2" font-family="Courier,monospace" font-size="11.00">Bootstrap</text>
</g>
<!-- \\WebinoDev\\Mail\\Message -->
<g id="node6" class="node"><title>\\WebinoDev\\Mail\\Message</title>
<polygon fill="none" stroke="black" points="960,-734 896,-734 896,-698 960,-698 960,-734"/>
<text text-anchor="middle" x="928" y="-713.2" font-family="Courier,monospace" font-size="11.00">Message</text>
</g>
<!-- \\Zend\\Mail\\Message -->
<g id="node47" class="node"><title>\\Zend\\Mail\\Message</title>
<ellipse fill="none" stroke="black" cx="536" cy="-126" rx="84.485" ry="18"/>
<text text-anchor="middle" x="536" y="-122.3" font-family="Times,serif" font-size="14.00" fill="gray">\Zend\Mail\Message</text>
</g>
<!-- \\WebinoDev\\Mail\\Message&#45;&gt;\\Zend\\Mail\\Message -->
<g id="edge3" class="edge"><title>\\WebinoDev\\Mail\\Message&#45;&gt;\\Zend\\Mail\\Message</title>
<path fill="none" stroke="black" d="M895.878,-716.199C871.012,-714.57 837.245,-708.02 818,-686 660.696,-506.012 915.516,-321.537 746,-153 712.302,-119.496 658.999,-113.039 614.659,-114.808"/>
<polygon fill="none" stroke="black" points="614.269,-111.324 604.474,-115.362 614.649,-118.314 614.269,-111.324"/>
</g>
<!-- \\WebinoDev\\Test\\Selenium\\WebDriver\\TestWebDriver -->
<g id="node7" class="node"><title>\\WebinoDev\\Test\\Selenium\\WebDriver\\TestWebDriver</title>
<polygon fill="none" stroke="black" points="980,-2378 876,-2378 876,-2342 980,-2342 980,-2378"/>
<text text-anchor="middle" x="928" y="-2357.2" font-family="Courier,monospace" font-size="11.00">TestWebDriver</text>
</g>
<!-- \\WebinoDev\\Test\\Selenium\\WebDriver\\Select -->
<g id="node8" class="node"><title>\\WebinoDev\\Test\\Selenium\\WebDriver\\Select</title>
<polygon fill="none" stroke="black" points="956.5,-2324 899.5,-2324 899.5,-2288 956.5,-2288 956.5,-2324"/>
<text text-anchor="middle" x="928" y="-2303.2" font-family="Courier,monospace" font-size="11.00">Select</text>
</g>
<!-- \\WebinoDev\\Test\\Selenium\\WebDriver\\SimpleItem -->
<g id="node9" class="node"><title>\\WebinoDev\\Test\\Selenium\\WebDriver\\SimpleItem</title>
<polygon fill="none" stroke="black" points="970,-2270 886,-2270 886,-2234 970,-2234 970,-2270"/>
<text text-anchor="middle" x="928" y="-2249.2" font-family="Courier,monospace" font-size="11.00">SimpleItem</text>
</g>
<!-- \\WebinoDev\\Test\\Selenium\\WebDriver\\TestSession -->
<g id="node10" class="node"><title>\\WebinoDev\\Test\\Selenium\\WebDriver\\TestSession</title>
<polygon fill="none" stroke="black" points="973.5,-2216 882.5,-2216 882.5,-2180 973.5,-2180 973.5,-2216"/>
<text text-anchor="middle" x="928" y="-2195.2" font-family="Courier,monospace" font-size="11.00">TestSession</text>
</g>
<!-- \\WebinoDev\\Test\\Selenium\\WebDriver\\TestElement -->
<g id="node11" class="node"><title>\\WebinoDev\\Test\\Selenium\\WebDriver\\TestElement</title>
<polygon fill="none" stroke="black" points="973.5,-2162 882.5,-2162 882.5,-2126 973.5,-2126 973.5,-2162"/>
<text text-anchor="middle" x="928" y="-2141.2" font-family="Courier,monospace" font-size="11.00">TestElement</text>
</g>
<!-- \\WebinoDev\\Test\\Selenium\\WebDriver\\ElementInterface -->
<g id="node13" class="node"><title>\\WebinoDev\\Test\\Selenium\\WebDriver\\ElementInterface</title>
<polygon fill="none" stroke="black" points="598.5,-2162 473.5,-2162 473.5,-2126 598.5,-2126 598.5,-2162"/>
<text text-anchor="middle" x="536" y="-2141.2" font-family="Courier,monospace" font-size="11.00">ElementInterface</text>
</g>
<!-- \\WebinoDev\\Test\\Selenium\\WebDriver\\TestElement&#45;&gt;\\WebinoDev\\Test\\Selenium\\WebDriver\\ElementInterface -->
<g id="edge6" class="edge"><title>\\WebinoDev\\Test\\Selenium\\WebDriver\\TestElement&#45;&gt;\\WebinoDev\\Test\\Selenium\\WebDriver\\ElementInterface</title>
<path fill="none" stroke="black" stroke-dasharray="1,5" d="M882.262,-2144C815.531,-2144 689.229,-2144 609.285,-2144"/>
<polygon fill="none" stroke="black" points="608.807,-2140.5 598.807,-2144 608.807,-2147.5 608.807,-2140.5"/>
</g>
<!-- \\WebinoDev\\Test\\Selenium\\WebDriver\\TestWindow -->
<g id="node12" class="node"><title>\\WebinoDev\\Test\\Selenium\\WebDriver\\TestWindow</title>
<polygon fill="none" stroke="black" points="970,-2108 886,-2108 886,-2072 970,-2072 970,-2108"/>
<text text-anchor="middle" x="928" y="-2087.2" font-family="Courier,monospace" font-size="11.00">TestWindow</text>
</g>
<!-- \\WebinoDev\\Test\\Selenium\\WebDriver\\WindowInterface -->
<g id="node15" class="node"><title>\\WebinoDev\\Test\\Selenium\\WebDriver\\WindowInterface</title>
<polygon fill="none" stroke="black" points="595,-2108 477,-2108 477,-2072 595,-2072 595,-2108"/>
<text text-anchor="middle" x="536" y="-2087.2" font-family="Courier,monospace" font-size="11.00">WindowInterface</text>
</g>
<!-- \\WebinoDev\\Test\\Selenium\\WebDriver\\TestWindow&#45;&gt;\\WebinoDev\\Test\\Selenium\\WebDriver\\WindowInterface -->
<g id="edge7" class="edge"><title>\\WebinoDev\\Test\\Selenium\\WebDriver\\TestWindow&#45;&gt;\\WebinoDev\\Test\\Selenium\\WebDriver\\WindowInterface</title>
<path fill="none" stroke="black" stroke-dasharray="1,5" d="M885.632,-2090C818.799,-2090 686.397,-2090 605.377,-2090"/>
<polygon fill="none" stroke="black" points="605.272,-2086.5 595.272,-2090 605.272,-2093.5 605.272,-2086.5"/>
</g>
<!-- \\WebinoDev\\Test\\Selenium\\WebDriver\\SessionInterface -->
<g id="node14" class="node"><title>\\WebinoDev\\Test\\Selenium\\WebDriver\\SessionInterface</title>
<polygon fill="none" stroke="black" points="990.5,-2054 865.5,-2054 865.5,-2018 990.5,-2018 990.5,-2054"/>
<text text-anchor="middle" x="928" y="-2033.2" font-family="Courier,monospace" font-size="11.00">SessionInterface</text>
</g>
<!-- \\WebinoDev\\Test\\Selenium\\AbstractTestCase -->
<g id="node16" class="node"><title>\\WebinoDev\\Test\\Selenium\\AbstractTestCase</title>
<polygon fill="none" stroke="black" points="598.5,-1946 473.5,-1946 473.5,-1910 598.5,-1910 598.5,-1946"/>
<text text-anchor="start" x="502" y="-1931.2" font-family="Courier,monospace" font-size="11.00">«abstract»</text>
<text text-anchor="start" x="481.5" y="-1919.2" font-family="Courier,monospace" font-size="11.00">AbstractTestCase</text>
</g>
<!-- \\PHPUnit_Framework_TestCase -->
<g id="node48" class="node"><title>\\PHPUnit_Framework_TestCase</title>
<ellipse fill="none" stroke="black" cx="127" cy="-1077" rx="126.978" ry="18"/>
<text text-anchor="middle" x="127" y="-1073.3" font-family="Times,serif" font-size="14.00" fill="gray">\PHPUnit_Framework_TestCase</text>
</g>
<!-- \\WebinoDev\\Test\\Selenium\\AbstractTestCase&#45;&gt;\\PHPUnit_Framework_TestCase -->
<g id="edge5" class="edge"><title>\\WebinoDev\\Test\\Selenium\\AbstractTestCase&#45;&gt;\\PHPUnit_Framework_TestCase</title>
<path fill="none" stroke="black" d="M526.311,-1909.83C474.27,-1801.02 204.001,-1235.91 141.095,-1104.38"/>
<polygon fill="none" stroke="black" points="144.08,-1102.51 136.608,-1095 137.765,-1105.53 144.08,-1102.51"/>
</g>
<!-- \\WebinoDev\\Test\\Selenium\\AbstractAuthenticationTestCase -->
<g id="node17" class="node"><title>\\WebinoDev\\Test\\Selenium\\AbstractAuthenticationTestCase</title>
<polygon fill="none" stroke="black" points="1037.5,-2000 818.5,-2000 818.5,-1964 1037.5,-1964 1037.5,-2000"/>
<text text-anchor="start" x="894" y="-1985.2" font-family="Courier,monospace" font-size="11.00">«abstract»</text>
<text text-anchor="start" x="826.5" y="-1973.2" font-family="Courier,monospace" font-size="11.00">AbstractAuthenticationTestCase</text>
</g>
<!-- \\WebinoDev\\Test\\Selenium\\AbstractAuthenticationTestCase&#45;&gt;\\WebinoDev\\Test\\Selenium\\AbstractTestCase -->
<g id="edge8" class="edge"><title>\\WebinoDev\\Test\\Selenium\\AbstractAuthenticationTestCase&#45;&gt;\\WebinoDev\\Test\\Selenium\\AbstractTestCase</title>
<path fill="none" stroke="black" d="M818.363,-1966.96C751.356,-1957.68 667.298,-1946.04 608.584,-1937.91"/>
<polygon fill="none" stroke="black" points="609.043,-1934.44 598.657,-1936.54 608.083,-1941.38 609.043,-1934.44"/>
</g>
<!-- \\WebinoDev\\Test\\Selenium\\AbstractMailTestCase -->
<g id="node18" class="node"><title>\\WebinoDev\\Test\\Selenium\\AbstractMailTestCase</title>
<polygon fill="none" stroke="black" points="1004,-1946 852,-1946 852,-1910 1004,-1910 1004,-1946"/>
<text text-anchor="start" x="894" y="-1931.2" font-family="Courier,monospace" font-size="11.00">«abstract»</text>
<text text-anchor="start" x="860" y="-1919.2" font-family="Courier,monospace" font-size="11.00">AbstractMailTestCase</text>
</g>
<!-- \\WebinoDev\\Test\\Selenium\\AbstractMailTestCase&#45;&gt;\\WebinoDev\\Test\\Selenium\\AbstractTestCase -->
<g id="edge9" class="edge"><title>\\WebinoDev\\Test\\Selenium\\AbstractMailTestCase&#45;&gt;\\WebinoDev\\Test\\Selenium\\AbstractTestCase</title>
<path fill="none" stroke="black" d="M851.804,-1928C781.695,-1928 677.852,-1928 608.844,-1928"/>
<polygon fill="none" stroke="black" points="608.501,-1924.5 598.501,-1928 608.501,-1931.5 608.501,-1924.5"/>
</g>
<!-- \\WebinoDev\\Test\\Selenium\\WindowTrait -->
<g id="node19" class="node"><title>\\WebinoDev\\Test\\Selenium\\WindowTrait</title>
<polygon fill="none" stroke="black" points="973.5,-1892 882.5,-1892 882.5,-1856 973.5,-1856 973.5,-1892"/>
<text text-anchor="middle" x="928" y="-1871.2" font-family="Courier,monospace" font-size="11.00">WindowTrait</text>
</g>
<!-- \\WebinoDev\\Test\\Selenium\\InputTrait -->
<g id="node20" class="node"><title>\\WebinoDev\\Test\\Selenium\\InputTrait</title>
<polygon fill="none" stroke="black" points="970,-1838 886,-1838 886,-1802 970,-1802 970,-1838"/>
<text text-anchor="middle" x="928" y="-1817.2" font-family="Courier,monospace" font-size="11.00">InputTrait</text>
</g>
<!-- \\WebinoDev\\Test\\Selenium\\ElementsTrait -->
<g id="node21" class="node"><title>\\WebinoDev\\Test\\Selenium\\ElementsTrait</title>
<polygon fill="none" stroke="black" points="980,-1784 876,-1784 876,-1748 980,-1748 980,-1784"/>
<text text-anchor="middle" x="928" y="-1763.2" font-family="Courier,monospace" font-size="11.00">ElementsTrait</text>
</g>
<!-- \\WebinoDev\\Test\\Selenium\\MailTrait -->
<g id="node22" class="node"><title>\\WebinoDev\\Test\\Selenium\\MailTrait</title>
<polygon fill="none" stroke="black" points="966.5,-1730 889.5,-1730 889.5,-1694 966.5,-1694 966.5,-1730"/>
<text text-anchor="middle" x="928" y="-1709.2" font-family="Courier,monospace" font-size="11.00">MailTrait</text>
</g>
<!-- \\WebinoDev\\Test\\Selenium\\ScreenshotTrait -->
<g id="node23" class="node"><title>\\WebinoDev\\Test\\Selenium\\ScreenshotTrait</title>
<polygon fill="none" stroke="black" points="987,-1676 869,-1676 869,-1640 987,-1640 987,-1676"/>
<text text-anchor="middle" x="928" y="-1655.2" font-family="Courier,monospace" font-size="11.00">ScreenshotTrait</text>
</g>
<!-- \\WebinoDev\\Test\\Selenium\\ElementTrait -->
<g id="node24" class="node"><title>\\WebinoDev\\Test\\Selenium\\ElementTrait</title>
<polygon fill="none" stroke="black" points="977,-1622 879,-1622 879,-1586 977,-1586 977,-1622"/>
<text text-anchor="middle" x="928" y="-1601.2" font-family="Courier,monospace" font-size="11.00">ElementTrait</text>
</g>
<!-- \\WebinoDev\\Test\\Selenium\\ClickTrait -->
<g id="node25" class="node"><title>\\WebinoDev\\Test\\Selenium\\ClickTrait</title>
<polygon fill="none" stroke="black" points="970,-1568 886,-1568 886,-1532 970,-1532 970,-1568"/>
<text text-anchor="middle" x="928" y="-1547.2" font-family="Courier,monospace" font-size="11.00">ClickTrait</text>
</g>
<!-- \\WebinoDev\\Test\\Selenium\\AuthenticationTrait -->
<g id="node26" class="node"><title>\\WebinoDev\\Test\\Selenium\\AuthenticationTrait</title>
<polygon fill="none" stroke="black" points="1000.5,-1514 855.5,-1514 855.5,-1478 1000.5,-1478 1000.5,-1514"/>
<text text-anchor="middle" x="928" y="-1493.2" font-family="Courier,monospace" font-size="11.00">AuthenticationTrait</text>
</g>
<!-- \\WebinoDev\\Test\\Selenium\\WebTrait -->
<g id="node27" class="node"><title>\\WebinoDev\\Test\\Selenium\\WebTrait</title>
<polygon fill="none" stroke="black" points="963.5,-1460 892.5,-1460 892.5,-1424 963.5,-1424 963.5,-1460"/>
<text text-anchor="middle" x="928" y="-1439.2" font-family="Courier,monospace" font-size="11.00">WebTrait</text>
</g>
<!-- \\WebinoDev\\Test\\Selenium\\NotifyTrait -->
<g id="node28" class="node"><title>\\WebinoDev\\Test\\Selenium\\NotifyTrait</title>
<polygon fill="none" stroke="black" points="973.5,-1406 882.5,-1406 882.5,-1370 973.5,-1370 973.5,-1406"/>
<text text-anchor="middle" x="928" y="-1385.2" font-family="Courier,monospace" font-size="11.00">NotifyTrait</text>
</g>
<!-- \\WebinoDev\\Test\\Selenium\\WaitTrait -->
<g id="node29" class="node"><title>\\WebinoDev\\Test\\Selenium\\WaitTrait</title>
<polygon fill="none" stroke="black" points="966.5,-1352 889.5,-1352 889.5,-1316 966.5,-1316 966.5,-1352"/>
<text text-anchor="middle" x="928" y="-1331.2" font-family="Courier,monospace" font-size="11.00">WaitTrait</text>
</g>
<!-- \\WebinoDev\\Test\\Exception\\RuntimeException -->
<g id="node30" class="node"><title>\\WebinoDev\\Test\\Exception\\RuntimeException</title>
<polygon fill="none" stroke="black" points="990.5,-1272 865.5,-1272 865.5,-1236 990.5,-1236 990.5,-1272"/>
<text text-anchor="middle" x="928" y="-1251.2" font-family="Courier,monospace" font-size="11.00">RuntimeException</text>
</g>
<!-- \\WebinoDev\\Test\\Exception\\ExceptionInterface -->
<g id="node31" class="node"><title>\\WebinoDev\\Test\\Exception\\ExceptionInterface</title>
<polygon fill="none" stroke="black" points="605,-1272 467,-1272 467,-1236 605,-1236 605,-1272"/>
<text text-anchor="middle" x="536" y="-1251.2" font-family="Courier,monospace" font-size="11.00">ExceptionInterface</text>
</g>
<!-- \\WebinoDev\\Test\\Exception\\RuntimeException&#45;&gt;\\WebinoDev\\Test\\Exception\\ExceptionInterface -->
<g id="edge11" class="edge"><title>\\WebinoDev\\Test\\Exception\\RuntimeException&#45;&gt;\\WebinoDev\\Test\\Exception\\ExceptionInterface</title>
<path fill="none" stroke="black" stroke-dasharray="1,5" d="M865.203,-1254C797.509,-1254 688.789,-1254 615.204,-1254"/>
<polygon fill="none" stroke="black" points="615.062,-1250.5 605.062,-1254 615.062,-1257.5 615.062,-1250.5"/>
</g>
<!-- \\RuntimeException -->
<g id="node49" class="node"><title>\\RuntimeException</title>
<ellipse fill="none" stroke="black" cx="536" cy="-180" rx="79.0865" ry="18"/>
<text text-anchor="middle" x="536" y="-176.3" font-family="Times,serif" font-size="14.00" fill="gray">\RuntimeException</text>
</g>
<!-- \\WebinoDev\\Test\\Exception\\RuntimeException&#45;&gt;\\RuntimeException -->
<g id="edge10" class="edge"><title>\\WebinoDev\\Test\\Exception\\RuntimeException&#45;&gt;\\RuntimeException</title>
<path fill="none" stroke="black" d="M865.347,-1250.31C847.499,-1246.1 829.696,-1238.27 818,-1224 675.076,-1049.63 898.845,-377.739 746,-212 713.263,-176.502 658.982,-169.036 613.944,-170.167"/>
<polygon fill="none" stroke="black" points="613.751,-166.672 603.897,-170.563 614.027,-173.667 613.751,-166.672"/>
</g>
<!-- \\WebinoDev\\Test\\Functional\\AbstractMailTestCase -->
<g id="node32" class="node"><title>\\WebinoDev\\Test\\Functional\\AbstractMailTestCase</title>
<polygon fill="none" stroke="black" points="1004,-1192 852,-1192 852,-1156 1004,-1156 1004,-1192"/>
<text text-anchor="start" x="894" y="-1177.2" font-family="Courier,monospace" font-size="11.00">«abstract»</text>
<text text-anchor="start" x="860" y="-1165.2" font-family="Courier,monospace" font-size="11.00">AbstractMailTestCase</text>
</g>
<!-- \\WebinoDev\\Test\\Functional\\AbstractMailTestCase&#45;&gt;\\PHPUnit_Framework_TestCase -->
<g id="edge12" class="edge"><title>\\WebinoDev\\Test\\Functional\\AbstractMailTestCase&#45;&gt;\\PHPUnit_Framework_TestCase</title>
<path fill="none" stroke="black" d="M851.978,-1168.43C838.983,-1164.14 826.831,-1157.4 818,-1147 687.874,-993.699 887.402,-387.967 746,-245 680.411,-178.685 630.266,-227.091 537,-226"/>
</g>
<!-- \\WebinoDev\\Test\\Functional\\SeleniumTestTrait -->
<g id="node33" class="node"><title>\\WebinoDev\\Test\\Functional\\SeleniumTestTrait</title>
<polygon fill="none" stroke="black" points="993.5,-1138 862.5,-1138 862.5,-1102 993.5,-1102 993.5,-1138"/>
<text text-anchor="middle" x="928" y="-1117.2" font-family="Courier,monospace" font-size="11.00">SeleniumTestTrait</text>
</g>
<!-- \\WebinoDev\\Test\\Functional\\MailTrait -->
<g id="node34" class="node"><title>\\WebinoDev\\Test\\Functional\\MailTrait</title>
<polygon fill="none" stroke="black" points="966.5,-1084 889.5,-1084 889.5,-1048 966.5,-1048 966.5,-1084"/>
<text text-anchor="middle" x="928" y="-1063.2" font-family="Courier,monospace" font-size="11.00">MailTrait</text>
</g>
<!-- \\WebinoDev\\Test\\TestCase -->
<g id="node35" class="node"><title>\\WebinoDev\\Test\\TestCase</title>
<polygon fill="none" stroke="black" points="963.5,-1030 892.5,-1030 892.5,-994 963.5,-994 963.5,-1030"/>
<text text-anchor="middle" x="928" y="-1009.2" font-family="Courier,monospace" font-size="11.00">TestCase</text>
</g>
<!-- \\WebinoDev\\Test\\TestCase&#45;&gt;\\PHPUnit_Framework_TestCase -->
<g id="edge4" class="edge"><title>\\WebinoDev\\Test\\TestCase&#45;&gt;\\PHPUnit_Framework_TestCase</title>
<path fill="none" stroke="black" d="M892.431,-1013.18C867.877,-1012.01 836.161,-1006.02 818,-985 709.992,-859.971 863.198,-361.458 746,-245 679.838,-179.256 630.266,-227.091 537,-226"/>
<path fill="none" stroke="black" d="M535,-226C441.734,-224.909 396.496,-183.926 326,-245 199.656,-354.458 142.387,-915.035 130.426,-1048.47"/>
<polygon fill="none" stroke="black" points="126.917,-1048.42 129.524,-1058.69 133.89,-1049.04 126.917,-1048.42"/>
</g>
<!-- \\WebinoDev\\Test\\Autoloader -->
<g id="node36" class="node"><title>\\WebinoDev\\Test\\Autoloader</title>
<polygon fill="none" stroke="black" points="970,-976 886,-976 886,-940 970,-940 970,-976"/>
<text text-anchor="middle" x="928" y="-955.2" font-family="Courier,monospace" font-size="11.00">Autoloader</text>
</g>
<!-- \\WebinoDev\\Test\\DomTrait -->
<g id="node37" class="node"><title>\\WebinoDev\\Test\\DomTrait</title>
<polygon fill="none" stroke="black" points="963.5,-922 892.5,-922 892.5,-886 963.5,-886 963.5,-922"/>
<text text-anchor="middle" x="928" y="-901.2" font-family="Courier,monospace" font-size="11.00">DomTrait</text>
</g>
<!-- \\WebinoDev\\Test\\PdfTrait -->
<g id="node38" class="node"><title>\\WebinoDev\\Test\\PdfTrait</title>
<polygon fill="none" stroke="black" points="963.5,-868 892.5,-868 892.5,-832 963.5,-832 963.5,-868"/>
<text text-anchor="middle" x="928" y="-847.2" font-family="Courier,monospace" font-size="11.00">PdfTrait</text>
</g>
<!-- \\WebinoDev\\Test\\MailTrait -->
<g id="node39" class="node"><title>\\WebinoDev\\Test\\MailTrait</title>
<polygon fill="none" stroke="black" points="966.5,-814 889.5,-814 889.5,-778 966.5,-778 966.5,-814"/>
<text text-anchor="middle" x="928" y="-793.2" font-family="Courier,monospace" font-size="11.00">MailTrait</text>
</g>
<!-- \\WebinoDev\\Factory\\ProfilingAdapterFactory -->
<g id="node40" class="node"><title>\\WebinoDev\\Factory\\ProfilingAdapterFactory</title>
<polygon fill="none" stroke="black" points="1014,-654 842,-654 842,-618 1014,-618 1014,-654"/>
<text text-anchor="middle" x="928" y="-633.2" font-family="Courier,monospace" font-size="11.00">ProfilingAdapterFactory</text>
</g>
<!-- \\Zend\\ServiceManager\\FactoryInterface -->
<g id="node50" class="node"><title>\\Zend\\ServiceManager\\FactoryInterface</title>
<ellipse fill="none" stroke="black" cx="536" cy="-72" rx="152.173" ry="18"/>
<text text-anchor="middle" x="536" y="-68.3" font-family="Times,serif" font-size="14.00" fill="gray">\Zend\ServiceManager\FactoryInterface</text>
</g>
<!-- \\WebinoDev\\Factory\\ProfilingAdapterFactory&#45;&gt;\\Zend\\ServiceManager\\FactoryInterface -->
<g id="edge13" class="edge"><title>\\WebinoDev\\Factory\\ProfilingAdapterFactory&#45;&gt;\\Zend\\ServiceManager\\FactoryInterface</title>
<path fill="none" stroke="black" stroke-dasharray="1,5" d="M870.396,-617.93C850.882,-608.937 830.748,-596.027 818,-578 693.705,-402.226 899.795,-249.641 746,-99 729.892,-83.2222 709.426,-73.4762 687.636,-67.7724"/>
<polygon fill="none" stroke="black" points="688.418,-64.361 677.884,-65.4994 686.829,-71.1782 688.418,-64.361"/>
</g>
<!-- \\WebinoDev\\Di\\Definition\\Generator -->
<g id="node41" class="node"><title>\\WebinoDev\\Di\\Definition\\Generator</title>
<polygon fill="none" stroke="black" points="966.5,-546 889.5,-546 889.5,-510 966.5,-510 966.5,-546"/>
<text text-anchor="middle" x="928" y="-525.2" font-family="Courier,monospace" font-size="11.00">Generator</text>
</g>
<!-- \\WebinoDev\\Exception\\DevelopmentException -->
<g id="node42" class="node"><title>\\WebinoDev\\Exception\\DevelopmentException</title>
<polygon fill="none" stroke="black" points="1004,-458 852,-458 852,-422 1004,-422 1004,-458"/>
<text text-anchor="middle" x="928" y="-437.2" font-family="Courier,monospace" font-size="11.00">DevelopmentException</text>
</g>
<!-- \\WebinoDev\\Exception\\ExceptionInterface -->
<g id="node43" class="node"><title>\\WebinoDev\\Exception\\ExceptionInterface</title>
<polygon fill="none" stroke="black" points="605,-458 467,-458 467,-422 605,-422 605,-458"/>
<text text-anchor="middle" x="536" y="-437.2" font-family="Courier,monospace" font-size="11.00">ExceptionInterface</text>
</g>
<!-- \\WebinoDev\\Exception\\DevelopmentException&#45;&gt;\\WebinoDev\\Exception\\ExceptionInterface -->
<g id="edge16" class="edge"><title>\\WebinoDev\\Exception\\DevelopmentException&#45;&gt;\\WebinoDev\\Exception\\ExceptionInterface</title>
<path fill="none" stroke="black" stroke-dasharray="1,5" d="M851.804,-440C783.905,-440 684.367,-440 615.473,-440"/>
<polygon fill="none" stroke="black" points="615.114,-436.5 605.114,-440 615.114,-443.5 615.114,-436.5"/>
</g>
<!-- \\WebinoDev\\Exception\\DevelopmentException&#45;&gt;\\RuntimeException -->
<g id="edge15" class="edge"><title>\\WebinoDev\\Exception\\DevelopmentException&#45;&gt;\\RuntimeException</title>
<path fill="none" stroke="black" d="M851.872,-435.467C839.503,-431.889 827.605,-426.371 818,-418 744.884,-354.278 820.6,-273.978 746,-212 711.439,-183.286 662.145,-174.716 620.109,-173.59"/>
<polygon fill="none" stroke="black" points="619.916,-170.087 609.871,-173.456 619.825,-177.086 619.916,-170.087"/>
</g>
<!-- \\WebinoDev\\Module -->
<g id="node44" class="node"><title>\\WebinoDev\\Module</title>
<polygon fill="none" stroke="black" points="956.5,-404 899.5,-404 899.5,-368 956.5,-368 956.5,-404"/>
<text text-anchor="middle" x="928" y="-383.2" font-family="Courier,monospace" font-size="11.00">Module</text>
</g>
<!-- \\Zend\\ModuleManager\\Feature\\ConfigProviderInterface -->
<g id="node51" class="node"><title>\\Zend\\ModuleManager\\Feature\\ConfigProviderInterface</title>
<ellipse fill="none" stroke="black" cx="536" cy="-18" rx="209.863" ry="18"/>
<text text-anchor="middle" x="536" y="-14.3" font-family="Times,serif" font-size="14.00" fill="gray">\Zend\ModuleManager\Feature\ConfigProviderInterface</text>
</g>
<!-- \\WebinoDev\\Module&#45;&gt;\\Zend\\ModuleManager\\Feature\\ConfigProviderInterface -->
<g id="edge14" class="edge"><title>\\WebinoDev\\Module&#45;&gt;\\Zend\\ModuleManager\\Feature\\ConfigProviderInterface</title>
<path fill="none" stroke="black" stroke-dasharray="1,5" d="M923.418,-367.661C910.953,-309.224 863.645,-126.464 746,-45 738.57,-39.8547 730.627,-35.4511 722.341,-31.6938"/>
<polygon fill="none" stroke="black" points="723.423,-28.3529 712.847,-27.7213 720.721,-34.8103 723.423,-28.3529"/>
</g>
</g>
</svg>
