<?xml version="1.0" encoding="UTF-8" standalone="no"?>
<!DOCTYPE svg PUBLIC "-//W3C//DTD SVG 1.1//EN"
 "http://www.w3.org/Graphics/SVG/1.1/DTD/svg11.dtd">
<!-- Generated by graphviz version 2.38.0 (20140413.2041)
 -->
<!-- Title: G Pages: 1 -->
<svg width="1277pt" height="3032pt"
 viewBox="0.00 0.00 1276.72 3032.00" xmlns="http://www.w3.org/2000/svg" xmlns:xlink="http://www.w3.org/1999/xlink">
<g id="graph0" class="graph" transform="scale(1 1) rotate(0) translate(4 3028)">
<title>G</title>
<polygon fill="white" stroke="none" points="-4,4 -4,-3028 1272.72,-3028 1272.72,4 -4,4"/>
<g id="clust1" class="cluster"><title>cluster_Global</title>
<path fill="none" stroke="gray" d="M574.897,-352C574.897,-352 1248.72,-352 1248.72,-352 1254.72,-352 1260.72,-358 1260.72,-364 1260.72,-364 1260.72,-3004 1260.72,-3004 1260.72,-3010 1254.72,-3016 1248.72,-3016 1248.72,-3016 574.897,-3016 574.897,-3016 568.897,-3016 562.897,-3010 562.897,-3004 562.897,-3004 562.897,-364 562.897,-364 562.897,-358 568.897,-352 574.897,-352"/>
<text text-anchor="middle" x="911.81" y="-3003.2" font-family="Times,serif" font-size="11.00" fill="gray">Global</text>
</g>
<g id="clust2" class="cluster"><title>cluster_\WebinoDev</title>
<path fill="none" stroke="gray" d="M582.897,-360C582.897,-360 1240.72,-360 1240.72,-360 1246.72,-360 1252.72,-366 1252.72,-372 1252.72,-372 1252.72,-2976 1252.72,-2976 1252.72,-2982 1246.72,-2988 1240.72,-2988 1240.72,-2988 582.897,-2988 582.897,-2988 576.897,-2988 570.897,-2982 570.897,-2976 570.897,-2976 570.897,-372 570.897,-372 570.897,-366 576.897,-360 582.897,-360"/>
<text text-anchor="middle" x="911.81" y="-2975.2" font-family="Times,serif" font-size="11.00" fill="gray">WebinoDev</text>
</g>
<g id="clust3" class="cluster"><title>cluster_\WebinoDev\Test</title>
<path fill="none" stroke="gray" d="M590.897,-1214C590.897,-1214 1232.72,-1214 1232.72,-1214 1238.72,-1214 1244.72,-1220 1244.72,-1226 1244.72,-1226 1244.72,-2948 1244.72,-2948 1244.72,-2954 1238.72,-2960 1232.72,-2960 1232.72,-2960 590.897,-2960 590.897,-2960 584.897,-2960 578.897,-2954 578.897,-2948 578.897,-2948 578.897,-1226 578.897,-1226 578.897,-1220 584.897,-1214 590.897,-1214"/>
<text text-anchor="middle" x="911.81" y="-2947.2" font-family="Times,serif" font-size="11.00" fill="gray">Test</text>
</g>
<g id="clust4" class="cluster"><title>cluster_\WebinoDev\Test\Functional</title>
<path fill="none" stroke="gray" d="M1047.22,-1538C1047.22,-1538 1191.22,-1538 1191.22,-1538 1197.22,-1538 1203.22,-1544 1203.22,-1550 1203.22,-1550 1203.22,-1706 1203.22,-1706 1203.22,-1712 1197.22,-1718 1191.22,-1718 1191.22,-1718 1047.22,-1718 1047.22,-1718 1041.22,-1718 1035.22,-1712 1035.22,-1706 1035.22,-1706 1035.22,-1550 1035.22,-1550 1035.22,-1544 1041.22,-1538 1047.22,-1538"/>
<text text-anchor="middle" x="1119.22" y="-1705.2" font-family="Times,serif" font-size="11.00" fill="gray">Functional</text>
</g>
<g id="clust5" class="cluster"><title>cluster_\WebinoDev\Test\Selenium</title>
<path fill="none" stroke="gray" d="M598.897,-1806C598.897,-1806 1224.72,-1806 1224.72,-1806 1230.72,-1806 1236.72,-1812 1236.72,-1818 1236.72,-1818 1236.72,-2920 1236.72,-2920 1236.72,-2926 1230.72,-2932 1224.72,-2932 1224.72,-2932 598.897,-2932 598.897,-2932 592.897,-2932 586.897,-2926 586.897,-2920 586.897,-2920 586.897,-1818 586.897,-1818 586.897,-1812 592.897,-1806 598.897,-1806"/>
<text text-anchor="middle" x="911.81" y="-2919.2" font-family="Times,serif" font-size="11.00" fill="gray">Selenium</text>
</g>
<g id="clust6" class="cluster"><title>cluster_\WebinoDev\Test\Selenium\WebDriver</title>
<path fill="none" stroke="gray" d="M606.897,-2508C606.897,-2508 1177.72,-2508 1177.72,-2508 1183.72,-2508 1189.72,-2514 1189.72,-2520 1189.72,-2520 1189.72,-2892 1189.72,-2892 1189.72,-2898 1183.72,-2904 1177.72,-2904 1177.72,-2904 606.897,-2904 606.897,-2904 600.897,-2904 594.897,-2898 594.897,-2892 594.897,-2892 594.897,-2520 594.897,-2520 594.897,-2514 600.897,-2508 606.897,-2508"/>
<text text-anchor="middle" x="892.31" y="-2891.2" font-family="Times,serif" font-size="11.00" fill="gray">WebDriver</text>
</g>
<g id="clust7" class="cluster"><title>cluster_\WebinoDev\Test\Exception</title>
<path fill="none" stroke="gray" d="M600.397,-1726C600.397,-1726 1177.72,-1726 1177.72,-1726 1183.72,-1726 1189.72,-1732 1189.72,-1738 1189.72,-1738 1189.72,-1786 1189.72,-1786 1189.72,-1792 1183.72,-1798 1177.72,-1798 1177.72,-1798 600.397,-1798 600.397,-1798 594.397,-1798 588.397,-1792 588.397,-1786 588.397,-1786 588.397,-1738 588.397,-1738 588.397,-1732 594.397,-1726 600.397,-1726"/>
<text text-anchor="middle" x="889.06" y="-1785.2" font-family="Times,serif" font-size="11.00" fill="gray">Exception</text>
</g>
<g id="clust8" class="cluster"><title>cluster_\WebinoDev\Tester</title>
<path fill="none" stroke="gray" d="M1084.72,-1134C1084.72,-1134 1153.72,-1134 1153.72,-1134 1159.72,-1134 1165.72,-1140 1165.72,-1146 1165.72,-1146 1165.72,-1194 1165.72,-1194 1165.72,-1200 1159.72,-1206 1153.72,-1206 1153.72,-1206 1084.72,-1206 1084.72,-1206 1078.72,-1206 1072.72,-1200 1072.72,-1194 1072.72,-1194 1072.72,-1146 1072.72,-1146 1072.72,-1140 1078.72,-1134 1084.72,-1134"/>
<text text-anchor="middle" x="1119.22" y="-1193.2" font-family="Times,serif" font-size="11.00" fill="gray">Tester</text>
</g>
<g id="clust9" class="cluster"><title>cluster_\WebinoDev\Factory</title>
<path fill="none" stroke="gray" d="M1037.22,-1054C1037.22,-1054 1201.22,-1054 1201.22,-1054 1207.22,-1054 1213.22,-1060 1213.22,-1066 1213.22,-1066 1213.22,-1114 1213.22,-1114 1213.22,-1120 1207.22,-1126 1201.22,-1126 1201.22,-1126 1037.22,-1126 1037.22,-1126 1031.22,-1126 1025.22,-1120 1025.22,-1114 1025.22,-1114 1025.22,-1066 1025.22,-1066 1025.22,-1060 1031.22,-1054 1037.22,-1054"/>
<text text-anchor="middle" x="1119.22" y="-1113.2" font-family="Times,serif" font-size="11.00" fill="gray">Factory</text>
</g>
<g id="clust10" class="cluster"><title>cluster_\WebinoDev\Config</title>
<path fill="none" stroke="gray" d="M1076.72,-884C1076.72,-884 1161.72,-884 1161.72,-884 1167.72,-884 1173.72,-890 1173.72,-896 1173.72,-896 1173.72,-1034 1173.72,-1034 1173.72,-1040 1167.72,-1046 1161.72,-1046 1161.72,-1046 1076.72,-1046 1076.72,-1046 1070.72,-1046 1064.72,-1040 1064.72,-1034 1064.72,-1034 1064.72,-896 1064.72,-896 1064.72,-890 1070.72,-884 1076.72,-884"/>
<text text-anchor="middle" x="1119.22" y="-1033.2" font-family="Times,serif" font-size="11.00" fill="gray">Config</text>
</g>
<g id="clust11" class="cluster"><title>cluster_\WebinoDev\Config\App</title>
<path fill="none" stroke="gray" d="M1084.72,-892C1084.72,-892 1153.72,-892 1153.72,-892 1159.72,-892 1165.72,-898 1165.72,-904 1165.72,-904 1165.72,-1006 1165.72,-1006 1165.72,-1012 1159.72,-1018 1153.72,-1018 1153.72,-1018 1084.72,-1018 1084.72,-1018 1078.72,-1018 1072.72,-1012 1072.72,-1006 1072.72,-1006 1072.72,-904 1072.72,-904 1072.72,-898 1078.72,-892 1084.72,-892"/>
<text text-anchor="middle" x="1119.22" y="-1005.2" font-family="Times,serif" font-size="11.00" fill="gray">App</text>
</g>
<g id="clust12" class="cluster"><title>cluster_\WebinoDev\Exception</title>
<path fill="none" stroke="gray" d="M600.397,-804C600.397,-804 1191.22,-804 1191.22,-804 1197.22,-804 1203.22,-810 1203.22,-816 1203.22,-816 1203.22,-864 1203.22,-864 1203.22,-870 1197.22,-876 1191.22,-876 1191.22,-876 600.397,-876 600.397,-876 594.397,-876 588.397,-870 588.397,-864 588.397,-864 588.397,-816 588.397,-816 588.397,-810 594.397,-804 600.397,-804"/>
<text text-anchor="middle" x="895.81" y="-863.2" font-family="Times,serif" font-size="11.00" fill="gray">Exception</text>
</g>
<g id="clust13" class="cluster"><title>cluster_\WebinoDev\Mail</title>
<path fill="none" stroke="gray" d="M1091.22,-724C1091.22,-724 1147.22,-724 1147.22,-724 1153.22,-724 1159.22,-730 1159.22,-736 1159.22,-736 1159.22,-784 1159.22,-784 1159.22,-790 1153.22,-796 1147.22,-796 1147.22,-796 1091.22,-796 1091.22,-796 1085.22,-796 1079.22,-790 1079.22,-784 1079.22,-784 1079.22,-736 1079.22,-736 1079.22,-730 1085.22,-724 1091.22,-724"/>
<text text-anchor="middle" x="1119.22" y="-783.2" font-family="Times,serif" font-size="11.00" fill="gray">Mail</text>
</g>
<g id="clust14" class="cluster"><title>cluster_\WebinoDev\Vfs</title>
<path fill="none" stroke="gray" d="M1071.22,-644C1071.22,-644 1167.22,-644 1167.22,-644 1173.22,-644 1179.22,-650 1179.22,-656 1179.22,-656 1179.22,-704 1179.22,-704 1179.22,-710 1173.22,-716 1167.22,-716 1167.22,-716 1071.22,-716 1071.22,-716 1065.22,-716 1059.22,-710 1059.22,-704 1059.22,-704 1059.22,-656 1059.22,-656 1059.22,-650 1065.22,-644 1071.22,-644"/>
<text text-anchor="middle" x="1119.22" y="-703.2" font-family="Times,serif" font-size="11.00" fill="gray">Vfs</text>
</g>
<g id="clust15" class="cluster"><title>cluster_\WebinoDev\Assetic</title>
<path fill="none" stroke="gray" d="M1056.22,-528C1056.22,-528 1182.22,-528 1182.22,-528 1188.22,-528 1194.22,-534 1194.22,-540 1194.22,-540 1194.22,-624 1194.22,-624 1194.22,-630 1188.22,-636 1182.22,-636 1182.22,-636 1056.22,-636 1056.22,-636 1050.22,-636 1044.22,-630 1044.22,-624 1044.22,-624 1044.22,-540 1044.22,-540 1044.22,-534 1050.22,-528 1056.22,-528"/>
<text text-anchor="middle" x="1119.22" y="-623.2" font-family="Times,serif" font-size="11.00" fill="gray">Assetic</text>
</g>
<g id="clust16" class="cluster"><title>cluster_\WebinoDev\Assetic\Cache</title>
<path fill="none" stroke="gray" d="M1064.22,-536C1064.22,-536 1174.22,-536 1174.22,-536 1180.22,-536 1186.22,-542 1186.22,-548 1186.22,-548 1186.22,-596 1186.22,-596 1186.22,-602 1180.22,-608 1174.22,-608 1174.22,-608 1064.22,-608 1064.22,-608 1058.22,-608 1052.22,-602 1052.22,-596 1052.22,-596 1052.22,-548 1052.22,-548 1052.22,-542 1058.22,-536 1064.22,-536"/>
<text text-anchor="middle" x="1119.22" y="-595.2" font-family="Times,serif" font-size="11.00" fill="gray">Cache</text>
</g>
<g id="clust17" class="cluster"><title>cluster_\WebinoDev\Di</title>
<path fill="none" stroke="gray" d="M1076.72,-412C1076.72,-412 1161.72,-412 1161.72,-412 1167.72,-412 1173.72,-418 1173.72,-424 1173.72,-424 1173.72,-508 1173.72,-508 1173.72,-514 1167.72,-520 1161.72,-520 1161.72,-520 1076.72,-520 1076.72,-520 1070.72,-520 1064.72,-514 1064.72,-508 1064.72,-508 1064.72,-424 1064.72,-424 1064.72,-418 1070.72,-412 1076.72,-412"/>
<text text-anchor="middle" x="1119.22" y="-507.2" font-family="Times,serif" font-size="11.00" fill="gray">Di</text>
</g>
<g id="clust18" class="cluster"><title>cluster_\WebinoDev\Di\Definition</title>
<path fill="none" stroke="gray" d="M1084.72,-420C1084.72,-420 1153.72,-420 1153.72,-420 1159.72,-420 1165.72,-426 1165.72,-432 1165.72,-432 1165.72,-480 1165.72,-480 1165.72,-486 1159.72,-492 1153.72,-492 1153.72,-492 1084.72,-492 1084.72,-492 1078.72,-492 1072.72,-486 1072.72,-480 1072.72,-480 1072.72,-432 1072.72,-432 1072.72,-426 1078.72,-420 1084.72,-420"/>
<text text-anchor="middle" x="1119.22" y="-479.2" font-family="Times,serif" font-size="11.00" fill="gray">Definition</text>
</g>
<!-- \\WebinoDev\\Test\\Functional\\AbstractMailTestCase -->
<g id="node1" class="node"><title>\\WebinoDev\\Test\\Functional\\AbstractMailTestCase</title>
<polygon fill="none" stroke="black" points="1195.22,-1690 1043.22,-1690 1043.22,-1654 1195.22,-1654 1195.22,-1690"/>
<text text-anchor="start" x="1085.22" y="-1675.2" font-family="Courier,monospace" font-size="11.00">«abstract»</text>
<text text-anchor="start" x="1051.22" y="-1663.2" font-family="Courier,monospace" font-size="11.00">AbstractMailTestCase</text>
</g>
<!-- \\PHPUnit_Framework_TestCase -->
<g id="node46" class="node"><title>\\PHPUnit_Framework_TestCase</title>
<ellipse fill="none" stroke="black" cx="160.536" cy="-1353" rx="160.572" ry="18"/>
<text text-anchor="middle" x="160.536" y="-1349.3" font-family="Times,serif" font-size="14.00" fill="gray">\PHPUnit_Framework_TestCase</text>
</g>
<!-- \\WebinoDev\\Test\\Functional\\AbstractMailTestCase&#45;&gt;\\PHPUnit_Framework_TestCase -->
<g id="edge1" class="edge"><title>\\WebinoDev\\Test\\Functional\\AbstractMailTestCase&#45;&gt;\\PHPUnit_Framework_TestCase</title>
<path fill="none" stroke="black" d="M1043.05,-1666.45C1030.23,-1662.15 1018.31,-1655.4 1009.72,-1645 914.37,-1529.51 1042.75,-405.772 937.723,-299 895.337,-255.91 726.754,-283.218 666.397,-280"/>
</g>
<!-- \\WebinoDev\\Test\\Functional\\MailTrait -->
<g id="node2" class="node"><title>\\WebinoDev\\Test\\Functional\\MailTrait</title>
<polygon fill="none" stroke="black" points="1157.72,-1636 1080.72,-1636 1080.72,-1600 1157.72,-1600 1157.72,-1636"/>
<text text-anchor="middle" x="1119.22" y="-1615.2" font-family="Courier,monospace" font-size="11.00">MailTrait</text>
</g>
<!-- \\WebinoDev\\Test\\Functional\\SeleniumTestTrait -->
<g id="node3" class="node"><title>\\WebinoDev\\Test\\Functional\\SeleniumTestTrait</title>
<polygon fill="none" stroke="black" points="1184.72,-1582 1053.72,-1582 1053.72,-1546 1184.72,-1546 1184.72,-1582"/>
<text text-anchor="middle" x="1119.22" y="-1561.2" font-family="Courier,monospace" font-size="11.00">SeleniumTestTrait</text>
</g>
<!-- \\WebinoDev\\Test\\Selenium\\WebDriver\\TestWebDriver -->
<g id="node4" class="node"><title>\\WebinoDev\\Test\\Selenium\\WebDriver\\TestWebDriver</title>
<polygon fill="none" stroke="black" points="1171.22,-2876 1067.22,-2876 1067.22,-2840 1171.22,-2840 1171.22,-2876"/>
<text text-anchor="middle" x="1119.22" y="-2855.2" font-family="Courier,monospace" font-size="11.00">TestWebDriver</text>
</g>
<!-- \\WebinoDev\\Test\\Selenium\\WebDriver\\TestWindow -->
<g id="node5" class="node"><title>\\WebinoDev\\Test\\Selenium\\WebDriver\\TestWindow</title>
<polygon fill="none" stroke="black" points="1161.22,-2822 1077.22,-2822 1077.22,-2786 1161.22,-2786 1161.22,-2822"/>
<text text-anchor="middle" x="1119.22" y="-2801.2" font-family="Courier,monospace" font-size="11.00">TestWindow</text>
</g>
<!-- \\WebinoDev\\Test\\Selenium\\WebDriver\\WindowInterface -->
<g id="node11" class="node"><title>\\WebinoDev\\Test\\Selenium\\WebDriver\\WindowInterface</title>
<polygon fill="none" stroke="black" points="724.397,-2822 606.397,-2822 606.397,-2786 724.397,-2786 724.397,-2822"/>
<text text-anchor="middle" x="665.397" y="-2801.2" font-family="Courier,monospace" font-size="11.00">WindowInterface</text>
</g>
<!-- \\WebinoDev\\Test\\Selenium\\WebDriver\\TestWindow&#45;&gt;\\WebinoDev\\Test\\Selenium\\WebDriver\\WindowInterface -->
<g id="edge6" class="edge"><title>\\WebinoDev\\Test\\Selenium\\WebDriver\\TestWindow&#45;&gt;\\WebinoDev\\Test\\Selenium\\WebDriver\\WindowInterface</title>
<path fill="none" stroke="black" stroke-dasharray="1,5" d="M1076.93,-2804C999.054,-2804 829.799,-2804 734.728,-2804"/>
<polygon fill="none" stroke="black" points="734.639,-2800.5 724.639,-2804 734.639,-2807.5 734.639,-2800.5"/>
</g>
<!-- \\WebinoDev\\Test\\Selenium\\WebDriver\\TestSession -->
<g id="node6" class="node"><title>\\WebinoDev\\Test\\Selenium\\WebDriver\\TestSession</title>
<polygon fill="none" stroke="black" points="1164.72,-2768 1073.72,-2768 1073.72,-2732 1164.72,-2732 1164.72,-2768"/>
<text text-anchor="middle" x="1119.22" y="-2747.2" font-family="Courier,monospace" font-size="11.00">TestSession</text>
</g>
<!-- \\WebinoDev\\Test\\Selenium\\WebDriver\\SimpleItem -->
<g id="node7" class="node"><title>\\WebinoDev\\Test\\Selenium\\WebDriver\\SimpleItem</title>
<polygon fill="none" stroke="black" points="1161.22,-2714 1077.22,-2714 1077.22,-2678 1161.22,-2678 1161.22,-2714"/>
<text text-anchor="middle" x="1119.22" y="-2693.2" font-family="Courier,monospace" font-size="11.00">SimpleItem</text>
</g>
<!-- \\WebinoDev\\Test\\Selenium\\WebDriver\\Select -->
<g id="node8" class="node"><title>\\WebinoDev\\Test\\Selenium\\WebDriver\\Select</title>
<polygon fill="none" stroke="black" points="1147.72,-2660 1090.72,-2660 1090.72,-2624 1147.72,-2624 1147.72,-2660"/>
<text text-anchor="middle" x="1119.22" y="-2639.2" font-family="Courier,monospace" font-size="11.00">Select</text>
</g>
<!-- \\WebinoDev\\Test\\Selenium\\WebDriver\\TestElement -->
<g id="node9" class="node"><title>\\WebinoDev\\Test\\Selenium\\WebDriver\\TestElement</title>
<polygon fill="none" stroke="black" points="1164.72,-2606 1073.72,-2606 1073.72,-2570 1164.72,-2570 1164.72,-2606"/>
<text text-anchor="middle" x="1119.22" y="-2585.2" font-family="Courier,monospace" font-size="11.00">TestElement</text>
</g>
<!-- \\WebinoDev\\Test\\Selenium\\WebDriver\\ElementInterface -->
<g id="node10" class="node"><title>\\WebinoDev\\Test\\Selenium\\WebDriver\\ElementInterface</title>
<polygon fill="none" stroke="black" points="727.897,-2606 602.897,-2606 602.897,-2570 727.897,-2570 727.897,-2606"/>
<text text-anchor="middle" x="665.397" y="-2585.2" font-family="Courier,monospace" font-size="11.00">ElementInterface</text>
</g>
<!-- \\WebinoDev\\Test\\Selenium\\WebDriver\\TestElement&#45;&gt;\\WebinoDev\\Test\\Selenium\\WebDriver\\ElementInterface -->
<g id="edge7" class="edge"><title>\\WebinoDev\\Test\\Selenium\\WebDriver\\TestElement&#45;&gt;\\WebinoDev\\Test\\Selenium\\WebDriver\\ElementInterface</title>
<path fill="none" stroke="black" stroke-dasharray="1,5" d="M1073.66,-2588C995.367,-2588 832.479,-2588 738.15,-2588"/>
<polygon fill="none" stroke="black" points="738.119,-2584.5 728.119,-2588 738.119,-2591.5 738.119,-2584.5"/>
</g>
<!-- \\WebinoDev\\Test\\Selenium\\WebDriver\\SessionInterface -->
<g id="node12" class="node"><title>\\WebinoDev\\Test\\Selenium\\WebDriver\\SessionInterface</title>
<polygon fill="none" stroke="black" points="1181.72,-2552 1056.72,-2552 1056.72,-2516 1181.72,-2516 1181.72,-2552"/>
<text text-anchor="middle" x="1119.22" y="-2531.2" font-family="Courier,monospace" font-size="11.00">SessionInterface</text>
</g>
<!-- \\WebinoDev\\Test\\Selenium\\AbstractMailTestCase -->
<g id="node13" class="node"><title>\\WebinoDev\\Test\\Selenium\\AbstractMailTestCase</title>
<polygon fill="none" stroke="black" points="1195.22,-2498 1043.22,-2498 1043.22,-2462 1195.22,-2462 1195.22,-2498"/>
<text text-anchor="start" x="1085.22" y="-2483.2" font-family="Courier,monospace" font-size="11.00">«abstract»</text>
<text text-anchor="start" x="1051.22" y="-2471.2" font-family="Courier,monospace" font-size="11.00">AbstractMailTestCase</text>
</g>
<!-- \\WebinoDev\\Test\\Selenium\\AbstractTestCase -->
<g id="node15" class="node"><title>\\WebinoDev\\Test\\Selenium\\AbstractTestCase</title>
<polygon fill="none" stroke="black" points="727.897,-2444 602.897,-2444 602.897,-2408 727.897,-2408 727.897,-2444"/>
<text text-anchor="start" x="631.397" y="-2429.2" font-family="Courier,monospace" font-size="11.00">«abstract»</text>
<text text-anchor="start" x="610.897" y="-2417.2" font-family="Courier,monospace" font-size="11.00">AbstractTestCase</text>
</g>
<!-- \\WebinoDev\\Test\\Selenium\\AbstractMailTestCase&#45;&gt;\\WebinoDev\\Test\\Selenium\\AbstractTestCase -->
<g id="edge3" class="edge"><title>\\WebinoDev\\Test\\Selenium\\AbstractMailTestCase&#45;&gt;\\WebinoDev\\Test\\Selenium\\AbstractTestCase</title>
<path fill="none" stroke="black" d="M1043.11,-2471.02C958.434,-2460.9 821.751,-2444.57 738.386,-2434.6"/>
<polygon fill="none" stroke="black" points="738.585,-2431.1 728.241,-2433.39 737.755,-2438.05 738.585,-2431.1"/>
</g>
<!-- \\WebinoDev\\Test\\Selenium\\AbstractAuthenticationTestCase -->
<g id="node14" class="node"><title>\\WebinoDev\\Test\\Selenium\\AbstractAuthenticationTestCase</title>
<polygon fill="none" stroke="black" points="1228.72,-2444 1009.72,-2444 1009.72,-2408 1228.72,-2408 1228.72,-2444"/>
<text text-anchor="start" x="1085.22" y="-2429.2" font-family="Courier,monospace" font-size="11.00">«abstract»</text>
<text text-anchor="start" x="1017.72" y="-2417.2" font-family="Courier,monospace" font-size="11.00">AbstractAuthenticationTestCase</text>
</g>
<!-- \\WebinoDev\\Test\\Selenium\\AbstractAuthenticationTestCase&#45;&gt;\\WebinoDev\\Test\\Selenium\\AbstractTestCase -->
<g id="edge4" class="edge"><title>\\WebinoDev\\Test\\Selenium\\AbstractAuthenticationTestCase&#45;&gt;\\WebinoDev\\Test\\Selenium\\AbstractTestCase</title>
<path fill="none" stroke="black" d="M1009.71,-2426C925.55,-2426 811.285,-2426 738.178,-2426"/>
<polygon fill="none" stroke="black" points="738.143,-2422.5 728.143,-2426 738.143,-2429.5 738.143,-2422.5"/>
</g>
<!-- \\WebinoDev\\Test\\Selenium\\AbstractTestCase&#45;&gt;\\PHPUnit_Framework_TestCase -->
<g id="edge5" class="edge"><title>\\WebinoDev\\Test\\Selenium\\AbstractTestCase&#45;&gt;\\PHPUnit_Framework_TestCase</title>
<path fill="none" stroke="black" d="M655.88,-2407.83C596.65,-2281.44 246.435,-1534.16 174.462,-1380.58"/>
<polygon fill="none" stroke="black" points="177.543,-1378.91 170.13,-1371.34 171.204,-1381.88 177.543,-1378.91"/>
</g>
<!-- \\WebinoDev\\Test\\Selenium\\AuthenticationTrait -->
<g id="node16" class="node"><title>\\WebinoDev\\Test\\Selenium\\AuthenticationTrait</title>
<polygon fill="none" stroke="black" points="1191.72,-2390 1046.72,-2390 1046.72,-2354 1191.72,-2354 1191.72,-2390"/>
<text text-anchor="middle" x="1119.22" y="-2369.2" font-family="Courier,monospace" font-size="11.00">AuthenticationTrait</text>
</g>
<!-- \\WebinoDev\\Test\\Selenium\\ScreenshotTrait -->
<g id="node17" class="node"><title>\\WebinoDev\\Test\\Selenium\\ScreenshotTrait</title>
<polygon fill="none" stroke="black" points="1178.22,-2336 1060.22,-2336 1060.22,-2300 1178.22,-2300 1178.22,-2336"/>
<text text-anchor="middle" x="1119.22" y="-2315.2" font-family="Courier,monospace" font-size="11.00">ScreenshotTrait</text>
</g>
<!-- \\WebinoDev\\Test\\Selenium\\ElementTrait -->
<g id="node18" class="node"><title>\\WebinoDev\\Test\\Selenium\\ElementTrait</title>
<polygon fill="none" stroke="black" points="1168.22,-2282 1070.22,-2282 1070.22,-2246 1168.22,-2246 1168.22,-2282"/>
<text text-anchor="middle" x="1119.22" y="-2261.2" font-family="Courier,monospace" font-size="11.00">ElementTrait</text>
</g>
<!-- \\WebinoDev\\Test\\Selenium\\MailTrait -->
<g id="node19" class="node"><title>\\WebinoDev\\Test\\Selenium\\MailTrait</title>
<polygon fill="none" stroke="black" points="1157.72,-2228 1080.72,-2228 1080.72,-2192 1157.72,-2192 1157.72,-2228"/>
<text text-anchor="middle" x="1119.22" y="-2207.2" font-family="Courier,monospace" font-size="11.00">MailTrait</text>
</g>
<!-- \\WebinoDev\\Test\\Selenium\\InputTrait -->
<g id="node20" class="node"><title>\\WebinoDev\\Test\\Selenium\\InputTrait</title>
<polygon fill="none" stroke="black" points="1161.22,-2174 1077.22,-2174 1077.22,-2138 1161.22,-2138 1161.22,-2174"/>
<text text-anchor="middle" x="1119.22" y="-2153.2" font-family="Courier,monospace" font-size="11.00">InputTrait</text>
</g>
<!-- \\WebinoDev\\Test\\Selenium\\ClickTrait -->
<g id="node21" class="node"><title>\\WebinoDev\\Test\\Selenium\\ClickTrait</title>
<polygon fill="none" stroke="black" points="1161.22,-2120 1077.22,-2120 1077.22,-2084 1161.22,-2084 1161.22,-2120"/>
<text text-anchor="middle" x="1119.22" y="-2099.2" font-family="Courier,monospace" font-size="11.00">ClickTrait</text>
</g>
<!-- \\WebinoDev\\Test\\Selenium\\WebTrait -->
<g id="node22" class="node"><title>\\WebinoDev\\Test\\Selenium\\WebTrait</title>
<polygon fill="none" stroke="black" points="1154.72,-2066 1083.72,-2066 1083.72,-2030 1154.72,-2030 1154.72,-2066"/>
<text text-anchor="middle" x="1119.22" y="-2045.2" font-family="Courier,monospace" font-size="11.00">WebTrait</text>
</g>
<!-- \\WebinoDev\\Test\\Selenium\\NotifyTrait -->
<g id="node23" class="node"><title>\\WebinoDev\\Test\\Selenium\\NotifyTrait</title>
<polygon fill="none" stroke="black" points="1164.72,-2012 1073.72,-2012 1073.72,-1976 1164.72,-1976 1164.72,-2012"/>
<text text-anchor="middle" x="1119.22" y="-1991.2" font-family="Courier,monospace" font-size="11.00">NotifyTrait</text>
</g>
<!-- \\WebinoDev\\Test\\Selenium\\ElementsTrait -->
<g id="node24" class="node"><title>\\WebinoDev\\Test\\Selenium\\ElementsTrait</title>
<polygon fill="none" stroke="black" points="1171.22,-1958 1067.22,-1958 1067.22,-1922 1171.22,-1922 1171.22,-1958"/>
<text text-anchor="middle" x="1119.22" y="-1937.2" font-family="Courier,monospace" font-size="11.00">ElementsTrait</text>
</g>
<!-- \\WebinoDev\\Test\\Selenium\\WaitTrait -->
<g id="node25" class="node"><title>\\WebinoDev\\Test\\Selenium\\WaitTrait</title>
<polygon fill="none" stroke="black" points="1157.72,-1904 1080.72,-1904 1080.72,-1868 1157.72,-1868 1157.72,-1904"/>
<text text-anchor="middle" x="1119.22" y="-1883.2" font-family="Courier,monospace" font-size="11.00">WaitTrait</text>
</g>
<!-- \\WebinoDev\\Test\\Selenium\\WindowTrait -->
<g id="node26" class="node"><title>\\WebinoDev\\Test\\Selenium\\WindowTrait</title>
<polygon fill="none" stroke="black" points="1164.72,-1850 1073.72,-1850 1073.72,-1814 1164.72,-1814 1164.72,-1850"/>
<text text-anchor="middle" x="1119.22" y="-1829.2" font-family="Courier,monospace" font-size="11.00">WindowTrait</text>
</g>
<!-- \\WebinoDev\\Test\\Exception\\RuntimeException -->
<g id="node27" class="node"><title>\\WebinoDev\\Test\\Exception\\RuntimeException</title>
<polygon fill="none" stroke="black" points="1181.72,-1770 1056.72,-1770 1056.72,-1734 1181.72,-1734 1181.72,-1770"/>
<text text-anchor="middle" x="1119.22" y="-1749.2" font-family="Courier,monospace" font-size="11.00">RuntimeException</text>
</g>
<!-- \\WebinoDev\\Test\\Exception\\ExceptionInterface -->
<g id="node28" class="node"><title>\\WebinoDev\\Test\\Exception\\ExceptionInterface</title>
<polygon fill="none" stroke="black" points="734.397,-1770 596.397,-1770 596.397,-1734 734.397,-1734 734.397,-1770"/>
<text text-anchor="middle" x="665.397" y="-1749.2" font-family="Courier,monospace" font-size="11.00">ExceptionInterface</text>
</g>
<!-- \\WebinoDev\\Test\\Exception\\RuntimeException&#45;&gt;\\WebinoDev\\Test\\Exception\\ExceptionInterface -->
<g id="edge9" class="edge"><title>\\WebinoDev\\Test\\Exception\\RuntimeException&#45;&gt;\\WebinoDev\\Test\\Exception\\ExceptionInterface</title>
<path fill="none" stroke="black" stroke-dasharray="1,5" d="M1056.35,-1752C975.326,-1752 833.235,-1752 744.776,-1752"/>
<polygon fill="none" stroke="black" points="744.529,-1748.5 734.528,-1752 744.528,-1755.5 744.529,-1748.5"/>
</g>
<!-- \\RuntimeException -->
<g id="node47" class="node"><title>\\RuntimeException</title>
<ellipse fill="none" stroke="black" cx="665.397" cy="-326" rx="100.182" ry="18"/>
<text text-anchor="middle" x="665.397" y="-322.3" font-family="Times,serif" font-size="14.00" fill="gray">\RuntimeException</text>
</g>
<!-- \\WebinoDev\\Test\\Exception\\RuntimeException&#45;&gt;\\RuntimeException -->
<g id="edge8" class="edge"><title>\\WebinoDev\\Test\\Exception\\RuntimeException&#45;&gt;\\RuntimeException</title>
<path fill="none" stroke="black" d="M1056.62,-1748.13C1038.95,-1743.9 1021.35,-1736.1 1009.72,-1722 878.988,-1563.43 998.243,-996.4 937.723,-800 880.286,-613.602 739.971,-420.716 687.052,-352.117"/>
<polygon fill="none" stroke="black" points="689.652,-349.759 680.755,-344.007 684.123,-354.052 689.652,-349.759"/>
</g>
<!-- \\WebinoDev\\Test\\TestCase -->
<g id="node29" class="node"><title>\\WebinoDev\\Test\\TestCase</title>
<polygon fill="none" stroke="black" points="1154.72,-1528 1083.72,-1528 1083.72,-1492 1154.72,-1492 1154.72,-1528"/>
<text text-anchor="middle" x="1119.22" y="-1507.2" font-family="Courier,monospace" font-size="11.00">TestCase</text>
</g>
<!-- \\WebinoDev\\Test\\TestCase&#45;&gt;\\PHPUnit_Framework_TestCase -->
<g id="edge2" class="edge"><title>\\WebinoDev\\Test\\TestCase&#45;&gt;\\PHPUnit_Framework_TestCase</title>
<path fill="none" stroke="black" d="M1083.58,-1511.32C1059.03,-1510.22 1027.41,-1504.27 1009.72,-1483 841.159,-1280.34 1123.26,-486.245 937.723,-299 895.181,-256.065 726.754,-283.218 666.397,-280"/>
<path fill="none" stroke="black" d="M664.397,-280C604.041,-276.782 438.82,-259.499 393.072,-299 230.702,-439.194 173.549,-1171.99 163.3,-1324.99"/>
<polygon fill="none" stroke="black" points="159.807,-1324.78 162.643,-1334.98 166.791,-1325.23 159.807,-1324.78"/>
</g>
<!-- \\WebinoDev\\Test\\Autoloader -->
<g id="node30" class="node"><title>\\WebinoDev\\Test\\Autoloader</title>
<polygon fill="none" stroke="black" points="1161.22,-1474 1077.22,-1474 1077.22,-1438 1161.22,-1438 1161.22,-1474"/>
<text text-anchor="middle" x="1119.22" y="-1453.2" font-family="Courier,monospace" font-size="11.00">Autoloader</text>
</g>
<!-- \\WebinoDev\\Test\\AppAwareTrait -->
<g id="node31" class="node"><title>\\WebinoDev\\Test\\AppAwareTrait</title>
<polygon fill="none" stroke="black" points="1171.22,-1420 1067.22,-1420 1067.22,-1384 1171.22,-1384 1171.22,-1420"/>
<text text-anchor="middle" x="1119.22" y="-1399.2" font-family="Courier,monospace" font-size="11.00">AppAwareTrait</text>
</g>
<!-- \\WebinoDev\\Test\\MailTrait -->
<g id="node32" class="node"><title>\\WebinoDev\\Test\\MailTrait</title>
<polygon fill="none" stroke="black" points="1157.72,-1366 1080.72,-1366 1080.72,-1330 1157.72,-1330 1157.72,-1366"/>
<text text-anchor="middle" x="1119.22" y="-1345.2" font-family="Courier,monospace" font-size="11.00">MailTrait</text>
</g>
<!-- \\WebinoDev\\Test\\DomTrait -->
<g id="node33" class="node"><title>\\WebinoDev\\Test\\DomTrait</title>
<polygon fill="none" stroke="black" points="1154.72,-1312 1083.72,-1312 1083.72,-1276 1154.72,-1276 1154.72,-1312"/>
<text text-anchor="middle" x="1119.22" y="-1291.2" font-family="Courier,monospace" font-size="11.00">DomTrait</text>
</g>
<!-- \\WebinoDev\\Test\\PdfTrait -->
<g id="node34" class="node"><title>\\WebinoDev\\Test\\PdfTrait</title>
<polygon fill="none" stroke="black" points="1154.72,-1258 1083.72,-1258 1083.72,-1222 1154.72,-1222 1154.72,-1258"/>
<text text-anchor="middle" x="1119.22" y="-1237.2" font-family="Courier,monospace" font-size="11.00">PdfTrait</text>
</g>
<!-- \\WebinoDev\\Tester\\Bootstrap -->
<g id="node35" class="node"><title>\\WebinoDev\\Tester\\Bootstrap</title>
<polygon fill="none" stroke="black" points="1157.72,-1178 1080.72,-1178 1080.72,-1142 1157.72,-1142 1157.72,-1178"/>
<text text-anchor="middle" x="1119.22" y="-1157.2" font-family="Courier,monospace" font-size="11.00">Bootstrap</text>
</g>
<!-- \\WebinoDev\\Factory\\ProfilingAdapterFactory -->
<g id="node36" class="node"><title>\\WebinoDev\\Factory\\ProfilingAdapterFactory</title>
<polygon fill="none" stroke="black" points="1205.22,-1098 1033.22,-1098 1033.22,-1062 1205.22,-1062 1205.22,-1098"/>
<text text-anchor="middle" x="1119.22" y="-1077.2" font-family="Courier,monospace" font-size="11.00">ProfilingAdapterFactory</text>
</g>
<!-- \\Zend\\ServiceManager\\FactoryInterface -->
<g id="node49" class="node"><title>\\Zend\\ServiceManager\\FactoryInterface</title>
<ellipse fill="none" stroke="black" cx="665.397" cy="-234" rx="198.465" ry="18"/>
<text text-anchor="middle" x="665.397" y="-230.3" font-family="Times,serif" font-size="14.00" fill="gray">\Zend\ServiceManager\FactoryInterface</text>
</g>
<!-- \\WebinoDev\\Factory\\ProfilingAdapterFactory&#45;&gt;\\Zend\\ServiceManager\\FactoryInterface -->
<g id="edge11" class="edge"><title>\\WebinoDev\\Factory\\ProfilingAdapterFactory&#45;&gt;\\Zend\\ServiceManager\\FactoryInterface</title>
<path fill="none" stroke="black" stroke-dasharray="1,5" d="M1060.78,-1061.97C1041.47,-1053.03 1021.8,-1040.13 1009.72,-1022 916.194,-881.528 1055.71,-386.663 937.723,-266 895.101,-222.41 826.881,-214.525 769.512,-217.479"/>
<polygon fill="none" stroke="black" points="769.064,-214 759.304,-218.123 769.504,-220.987 769.064,-214"/>
</g>
<!-- \\WebinoDev\\Config\\App\\Local -->
<g id="node37" class="node"><title>\\WebinoDev\\Config\\App\\Local</title>
<polygon fill="none" stroke="black" points="1146.22,-990 1092.22,-990 1092.22,-954 1146.22,-954 1146.22,-990"/>
<text text-anchor="middle" x="1119.22" y="-969.2" font-family="Courier,monospace" font-size="11.00">Local</text>
</g>
<!-- \\WebinoDev\\Config\\App\\Developer -->
<g id="node38" class="node"><title>\\WebinoDev\\Config\\App\\Developer</title>
<polygon fill="none" stroke="black" points="1157.72,-936 1080.72,-936 1080.72,-900 1157.72,-900 1157.72,-936"/>
<text text-anchor="middle" x="1119.22" y="-915.2" font-family="Courier,monospace" font-size="11.00">Developer</text>
</g>
<!-- \\WebinoDev\\Exception\\DevelopmentException -->
<g id="node39" class="node"><title>\\WebinoDev\\Exception\\DevelopmentException</title>
<polygon fill="none" stroke="black" points="1195.22,-848 1043.22,-848 1043.22,-812 1195.22,-812 1195.22,-848"/>
<text text-anchor="middle" x="1119.22" y="-827.2" font-family="Courier,monospace" font-size="11.00">DevelopmentException</text>
</g>
<!-- \\WebinoDev\\Exception\\ExceptionInterface -->
<g id="node40" class="node"><title>\\WebinoDev\\Exception\\ExceptionInterface</title>
<polygon fill="none" stroke="black" points="734.397,-848 596.397,-848 596.397,-812 734.397,-812 734.397,-848"/>
<text text-anchor="middle" x="665.397" y="-827.2" font-family="Courier,monospace" font-size="11.00">ExceptionInterface</text>
</g>
<!-- \\WebinoDev\\Exception\\DevelopmentException&#45;&gt;\\WebinoDev\\Exception\\ExceptionInterface -->
<g id="edge13" class="edge"><title>\\WebinoDev\\Exception\\DevelopmentException&#45;&gt;\\WebinoDev\\Exception\\ExceptionInterface</title>
<path fill="none" stroke="black" stroke-dasharray="1,5" d="M1043.11,-830C960.602,-830 828.716,-830 744.893,-830"/>
<polygon fill="none" stroke="black" points="744.662,-826.5 734.662,-830 744.662,-833.5 744.662,-826.5"/>
</g>
<!-- \\WebinoDev\\Exception\\DevelopmentException&#45;&gt;\\RuntimeException -->
<g id="edge12" class="edge"><title>\\WebinoDev\\Exception\\DevelopmentException&#45;&gt;\\RuntimeException</title>
<path fill="none" stroke="black" d="M1043.16,-816.431C1031.36,-812.319 1019.76,-806.966 1009.72,-800 833.847,-677.9 714.899,-435.674 678.317,-353.791"/>
<polygon fill="none" stroke="black" points="681.413,-352.137 674.172,-344.403 675.009,-354.964 681.413,-352.137"/>
</g>
<!-- \\WebinoDev\\Mail\\Message -->
<g id="node41" class="node"><title>\\WebinoDev\\Mail\\Message</title>
<polygon fill="none" stroke="black" points="1151.22,-768 1087.22,-768 1087.22,-732 1151.22,-732 1151.22,-768"/>
<text text-anchor="middle" x="1119.22" y="-747.2" font-family="Courier,monospace" font-size="11.00">Message</text>
</g>
<!-- \\Zend\\Mail\\Message -->
<g id="node50" class="node"><title>\\Zend\\Mail\\Message</title>
<ellipse fill="none" stroke="black" cx="665.397" cy="-180" rx="105.082" ry="18"/>
<text text-anchor="middle" x="665.397" y="-176.3" font-family="Times,serif" font-size="14.00" fill="gray">\Zend\Mail\Message</text>
</g>
<!-- \\WebinoDev\\Mail\\Message&#45;&gt;\\Zend\\Mail\\Message -->
<g id="edge14" class="edge"><title>\\WebinoDev\\Mail\\Message&#45;&gt;\\Zend\\Mail\\Message</title>
<path fill="none" stroke="black" d="M1086.77,-750.095C1062.08,-748.371 1028.8,-741.741 1009.72,-720 857.869,-546.945 1103.77,-366.491 937.723,-207 886.708,-157.998 802.802,-157.003 741.786,-164.666"/>
<polygon fill="none" stroke="black" points="741.256,-161.206 731.818,-166.02 742.198,-168.142 741.256,-161.206"/>
</g>
<!-- \\WebinoDev\\Vfs\\StreamWrapper -->
<g id="node42" class="node"><title>\\WebinoDev\\Vfs\\StreamWrapper</title>
<polygon fill="none" stroke="black" points="1171.22,-688 1067.22,-688 1067.22,-652 1171.22,-652 1171.22,-688"/>
<text text-anchor="middle" x="1119.22" y="-667.2" font-family="Courier,monospace" font-size="11.00">StreamWrapper</text>
</g>
<!-- \\org\\bovigo\\vfs\\vfsStreamWrapper -->
<g id="node51" class="node"><title>\\org\\bovigo\\vfs\\vfsStreamWrapper</title>
<ellipse fill="none" stroke="black" cx="665.397" cy="-126" rx="170.07" ry="18"/>
<text text-anchor="middle" x="665.397" y="-122.3" font-family="Times,serif" font-size="14.00" fill="gray">\org\bovigo\vfs\vfsStreamWrapper</text>
</g>
<!-- \\WebinoDev\\Vfs\\StreamWrapper&#45;&gt;\\org\\bovigo\\vfs\\vfsStreamWrapper -->
<g id="edge15" class="edge"><title>\\WebinoDev\\Vfs\\StreamWrapper&#45;&gt;\\org\\bovigo\\vfs\\vfsStreamWrapper</title>
<path fill="none" stroke="black" d="M1067.01,-654.102C1046.08,-645.041 1023.58,-631.501 1009.72,-612 890.123,-443.668 1087.8,-294.838 937.723,-153 890.647,-108.508 816.379,-103.864 757.437,-109.182"/>
<polygon fill="none" stroke="black" points="756.967,-105.712 747.369,-110.2 757.67,-112.677 756.967,-105.712"/>
</g>
<!-- \\WebinoDev\\Assetic\\Cache\\FilesystemCache -->
<g id="node43" class="node"><title>\\WebinoDev\\Assetic\\Cache\\FilesystemCache</title>
<polygon fill="none" stroke="black" points="1178.22,-580 1060.22,-580 1060.22,-544 1178.22,-544 1178.22,-580"/>
<text text-anchor="middle" x="1119.22" y="-559.2" font-family="Courier,monospace" font-size="11.00">FilesystemCache</text>
</g>
<!-- \\Assetic\\Cache\\FilesystemCache -->
<g id="node52" class="node"><title>\\Assetic\\Cache\\FilesystemCache</title>
<ellipse fill="none" stroke="black" cx="665.397" cy="-72" rx="163.271" ry="18"/>
<text text-anchor="middle" x="665.397" y="-68.3" font-family="Times,serif" font-size="14.00" fill="gray">\Assetic\Cache\FilesystemCache</text>
</g>
<!-- \\WebinoDev\\Assetic\\Cache\\FilesystemCache&#45;&gt;\\Assetic\\Cache\\FilesystemCache -->
<g id="edge16" class="edge"><title>\\WebinoDev\\Assetic\\Cache\\FilesystemCache&#45;&gt;\\Assetic\\Cache\\FilesystemCache</title>
<path fill="none" stroke="black" d="M1070.75,-543.972C1048.86,-533.276 1024.52,-517.536 1009.72,-496 908.196,-348.187 1069.51,-220.613 937.723,-99 890.368,-55.2989 816.657,-50.4388 758.01,-55.4694"/>
<polygon fill="none" stroke="black" points="757.608,-51.9918 747.99,-56.4362 758.28,-58.9595 757.608,-51.9918"/>
</g>
<!-- \\WebinoDev\\Di\\Definition\\Generator -->
<g id="node44" class="node"><title>\\WebinoDev\\Di\\Definition\\Generator</title>
<polygon fill="none" stroke="black" points="1157.72,-464 1080.72,-464 1080.72,-428 1157.72,-428 1157.72,-464"/>
<text text-anchor="middle" x="1119.22" y="-443.2" font-family="Courier,monospace" font-size="11.00">Generator</text>
</g>
<!-- \\WebinoDev\\Module -->
<g id="node45" class="node"><title>\\WebinoDev\\Module</title>
<polygon fill="none" stroke="black" points="1147.72,-404 1090.72,-404 1090.72,-368 1147.72,-368 1147.72,-404"/>
<text text-anchor="middle" x="1119.22" y="-383.2" font-family="Courier,monospace" font-size="11.00">Module</text>
</g>
<!-- \\Zend\\ModuleManager\\Feature\\ConfigProviderInterface -->
<g id="node48" class="node"><title>\\Zend\\ModuleManager\\Feature\\ConfigProviderInterface</title>
<ellipse fill="none" stroke="black" cx="665.397" cy="-18" rx="272.152" ry="18"/>
<text text-anchor="middle" x="665.397" y="-14.3" font-family="Times,serif" font-size="14.00" fill="gray">\Zend\ModuleManager\Feature\ConfigProviderInterface</text>
</g>
<!-- \\WebinoDev\\Module&#45;&gt;\\Zend\\ModuleManager\\Feature\\ConfigProviderInterface -->
<g id="edge10" class="edge"><title>\\WebinoDev\\Module&#45;&gt;\\Zend\\ModuleManager\\Feature\\ConfigProviderInterface</title>
<path fill="none" stroke="black" stroke-dasharray="1,5" d="M1114.85,-367.931C1102.9,-309.518 1056.71,-124.939 937.723,-45 929.703,-39.612 921.238,-34.9114 912.448,-30.8231"/>
<polygon fill="none" stroke="black" points="913.742,-27.569 903.176,-26.781 910.944,-33.9857 913.742,-27.569"/>
</g>
</g>
</svg>
