<?xml version="1.0" encoding="UTF-8" standalone="no"?>
<!DOCTYPE svg PUBLIC "-//W3C//DTD SVG 1.1//EN"
 "http://www.w3.org/Graphics/SVG/1.1/DTD/svg11.dtd">
<!-- Generated by graphviz version 2.26.3 (20100126.1600)
 -->
<!-- Title: G Pages: 1 -->
<svg width="1302pt" height="2744pt"
 viewBox="0.00 0.00 1302.00 2744.00" xmlns="http://www.w3.org/2000/svg" xmlns:xlink="http://www.w3.org/1999/xlink">
<g id="graph1" class="graph" transform="scale(1 1) rotate(0) translate(4 2740)">
<title>G</title>
<polygon fill="white" stroke="white" points="-4,5 -4,-2740 1299,-2740 1299,5 -4,5"/>
<g id="graph2" class="cluster"><title>cluster_Global</title>
<polyline fill="none" stroke="gray" points="591,-352 1274,-352 "/>
<path fill="none" stroke="gray" d="M1274,-352C1280,-352 1286,-358 1286,-364"/>
<polyline fill="none" stroke="gray" points="1286,-364 1286,-2716 "/>
<path fill="none" stroke="gray" d="M1286,-2716C1286,-2722 1280,-2728 1274,-2728"/>
<polyline fill="none" stroke="gray" points="1274,-2728 591,-2728 "/>
<path fill="none" stroke="gray" d="M591,-2728C585,-2728 579,-2722 579,-2716"/>
<polyline fill="none" stroke="gray" points="579,-2716 579,-364 "/>
<path fill="none" stroke="gray" d="M579,-364C579,-358 585,-352 591,-352"/>
<text text-anchor="middle" x="932.5" y="-2714.1" font-family="Times Roman,serif" font-size="11.00" fill="gray">Global</text>
</g>
<g id="graph3" class="cluster"><title>cluster_\WebinoDev</title>
<polyline fill="none" stroke="gray" points="599,-360 1266,-360 "/>
<path fill="none" stroke="gray" d="M1266,-360C1272,-360 1278,-366 1278,-372"/>
<polyline fill="none" stroke="gray" points="1278,-372 1278,-2686 "/>
<path fill="none" stroke="gray" d="M1278,-2686C1278,-2692 1272,-2698 1266,-2698"/>
<polyline fill="none" stroke="gray" points="1266,-2698 599,-2698 "/>
<path fill="none" stroke="gray" d="M599,-2698C593,-2698 587,-2692 587,-2686"/>
<polyline fill="none" stroke="gray" points="587,-2686 587,-372 "/>
<path fill="none" stroke="gray" d="M587,-372C587,-366 593,-360 599,-360"/>
<text text-anchor="middle" x="932.5" y="-2684.1" font-family="Times Roman,serif" font-size="11.00" fill="gray">WebinoDev</text>
</g>
<g id="graph4" class="cluster"><title>cluster_\WebinoDev\Assetic</title>
<polyline fill="none" stroke="gray" points="1081,-2556 1207,-2556 "/>
<path fill="none" stroke="gray" d="M1207,-2556C1213,-2556 1219,-2562 1219,-2568"/>
<polyline fill="none" stroke="gray" points="1219,-2568 1219,-2656 "/>
<path fill="none" stroke="gray" d="M1219,-2656C1219,-2662 1213,-2668 1207,-2668"/>
<polyline fill="none" stroke="gray" points="1207,-2668 1081,-2668 "/>
<path fill="none" stroke="gray" d="M1081,-2668C1075,-2668 1069,-2662 1069,-2656"/>
<polyline fill="none" stroke="gray" points="1069,-2656 1069,-2568 "/>
<path fill="none" stroke="gray" d="M1069,-2568C1069,-2562 1075,-2556 1081,-2556"/>
<text text-anchor="middle" x="1144" y="-2654.1" font-family="Times Roman,serif" font-size="11.00" fill="gray">Assetic</text>
</g>
<g id="graph5" class="cluster"><title>cluster_\WebinoDev\Assetic\Cache</title>
<polyline fill="none" stroke="gray" points="1089,-2564 1199,-2564 "/>
<path fill="none" stroke="gray" d="M1199,-2564C1205,-2564 1211,-2570 1211,-2576"/>
<polyline fill="none" stroke="gray" points="1211,-2576 1211,-2626 "/>
<path fill="none" stroke="gray" d="M1211,-2626C1211,-2632 1205,-2638 1199,-2638"/>
<polyline fill="none" stroke="gray" points="1199,-2638 1089,-2638 "/>
<path fill="none" stroke="gray" d="M1089,-2638C1083,-2638 1077,-2632 1077,-2626"/>
<polyline fill="none" stroke="gray" points="1077,-2626 1077,-2576 "/>
<path fill="none" stroke="gray" d="M1077,-2576C1077,-2570 1083,-2564 1089,-2564"/>
<text text-anchor="middle" x="1144" y="-2624.1" font-family="Times Roman,serif" font-size="11.00" fill="gray">Cache</text>
</g>
<g id="graph6" class="cluster"><title>cluster_\WebinoDev\Tester</title>
<polyline fill="none" stroke="gray" points="1109,-2474 1179,-2474 "/>
<path fill="none" stroke="gray" d="M1179,-2474C1185,-2474 1191,-2480 1191,-2486"/>
<polyline fill="none" stroke="gray" points="1191,-2486 1191,-2536 "/>
<path fill="none" stroke="gray" d="M1191,-2536C1191,-2542 1185,-2548 1179,-2548"/>
<polyline fill="none" stroke="gray" points="1179,-2548 1109,-2548 "/>
<path fill="none" stroke="gray" d="M1109,-2548C1103,-2548 1097,-2542 1097,-2536"/>
<polyline fill="none" stroke="gray" points="1097,-2536 1097,-2486 "/>
<path fill="none" stroke="gray" d="M1097,-2486C1097,-2480 1103,-2474 1109,-2474"/>
<text text-anchor="middle" x="1144" y="-2534.1" font-family="Times Roman,serif" font-size="11.00" fill="gray">Tester</text>
</g>
<g id="graph7" class="cluster"><title>cluster_\WebinoDev\Config</title>
<polyline fill="none" stroke="gray" points="1101,-2300 1187,-2300 "/>
<path fill="none" stroke="gray" d="M1187,-2300C1193,-2300 1199,-2306 1199,-2312"/>
<polyline fill="none" stroke="gray" points="1199,-2312 1199,-2454 "/>
<path fill="none" stroke="gray" d="M1199,-2454C1199,-2460 1193,-2466 1187,-2466"/>
<polyline fill="none" stroke="gray" points="1187,-2466 1101,-2466 "/>
<path fill="none" stroke="gray" d="M1101,-2466C1095,-2466 1089,-2460 1089,-2454"/>
<polyline fill="none" stroke="gray" points="1089,-2454 1089,-2312 "/>
<path fill="none" stroke="gray" d="M1089,-2312C1089,-2306 1095,-2300 1101,-2300"/>
<text text-anchor="middle" x="1144" y="-2452.1" font-family="Times Roman,serif" font-size="11.00" fill="gray">Config</text>
</g>
<g id="graph8" class="cluster"><title>cluster_\WebinoDev\Config\App</title>
<polyline fill="none" stroke="gray" points="1109,-2308 1179,-2308 "/>
<path fill="none" stroke="gray" d="M1179,-2308C1185,-2308 1191,-2314 1191,-2320"/>
<polyline fill="none" stroke="gray" points="1191,-2320 1191,-2424 "/>
<path fill="none" stroke="gray" d="M1191,-2424C1191,-2430 1185,-2436 1179,-2436"/>
<polyline fill="none" stroke="gray" points="1179,-2436 1109,-2436 "/>
<path fill="none" stroke="gray" d="M1109,-2436C1103,-2436 1097,-2430 1097,-2424"/>
<polyline fill="none" stroke="gray" points="1097,-2424 1097,-2320 "/>
<path fill="none" stroke="gray" d="M1097,-2320C1097,-2314 1103,-2308 1109,-2308"/>
<text text-anchor="middle" x="1144" y="-2422.1" font-family="Times Roman,serif" font-size="11.00" fill="gray">App</text>
</g>
<g id="graph9" class="cluster"><title>cluster_\WebinoDev\Exception</title>
<polyline fill="none" stroke="gray" points="617,-2218 1216,-2218 "/>
<path fill="none" stroke="gray" d="M1216,-2218C1222,-2218 1228,-2224 1228,-2230"/>
<polyline fill="none" stroke="gray" points="1228,-2230 1228,-2280 "/>
<path fill="none" stroke="gray" d="M1228,-2280C1228,-2286 1222,-2292 1216,-2292"/>
<polyline fill="none" stroke="gray" points="1216,-2292 617,-2292 "/>
<path fill="none" stroke="gray" d="M617,-2292C611,-2292 605,-2286 605,-2280"/>
<polyline fill="none" stroke="gray" points="605,-2280 605,-2230 "/>
<path fill="none" stroke="gray" d="M605,-2230C605,-2224 611,-2218 617,-2218"/>
<text text-anchor="middle" x="916.5" y="-2278.1" font-family="Times Roman,serif" font-size="11.00" fill="gray">Exception</text>
</g>
<g id="graph10" class="cluster"><title>cluster_\WebinoDev\Test</title>
<polyline fill="none" stroke="gray" points="607,-778 1258,-778 "/>
<path fill="none" stroke="gray" d="M1258,-778C1264,-778 1270,-784 1270,-790"/>
<polyline fill="none" stroke="gray" points="1270,-790 1270,-2198 "/>
<path fill="none" stroke="gray" d="M1270,-2198C1270,-2204 1264,-2210 1258,-2210"/>
<polyline fill="none" stroke="gray" points="1258,-2210 607,-2210 "/>
<path fill="none" stroke="gray" d="M607,-2210C601,-2210 595,-2204 595,-2198"/>
<polyline fill="none" stroke="gray" points="595,-2198 595,-790 "/>
<path fill="none" stroke="gray" d="M595,-790C595,-784 601,-778 607,-778"/>
<text text-anchor="middle" x="932.5" y="-2196.1" font-family="Times Roman,serif" font-size="11.00" fill="gray">Test</text>
</g>
<g id="graph11" class="cluster"><title>cluster_\WebinoDev\Test\Functional</title>
<polyline fill="none" stroke="gray" points="1071,-1048 1217,-1048 "/>
<path fill="none" stroke="gray" d="M1217,-1048C1223,-1048 1229,-1054 1229,-1060"/>
<polyline fill="none" stroke="gray" points="1229,-1060 1229,-1218 "/>
<path fill="none" stroke="gray" d="M1229,-1218C1229,-1224 1223,-1230 1217,-1230"/>
<polyline fill="none" stroke="gray" points="1217,-1230 1071,-1230 "/>
<path fill="none" stroke="gray" d="M1071,-1230C1065,-1230 1059,-1224 1059,-1218"/>
<polyline fill="none" stroke="gray" points="1059,-1218 1059,-1060 "/>
<path fill="none" stroke="gray" d="M1059,-1060C1059,-1054 1065,-1048 1071,-1048"/>
<text text-anchor="middle" x="1144" y="-1216.1" font-family="Times Roman,serif" font-size="11.00" fill="gray">Functional</text>
</g>
<g id="graph12" class="cluster"><title>cluster_\WebinoDev\Test\Selenium</title>
<polyline fill="none" stroke="gray" points="615,-1320 1250,-1320 "/>
<path fill="none" stroke="gray" d="M1250,-1320C1256,-1320 1262,-1326 1262,-1332"/>
<polyline fill="none" stroke="gray" points="1262,-1332 1262,-2168 "/>
<path fill="none" stroke="gray" d="M1262,-2168C1262,-2174 1256,-2180 1250,-2180"/>
<polyline fill="none" stroke="gray" points="1250,-2180 615,-2180 "/>
<path fill="none" stroke="gray" d="M615,-2180C609,-2180 603,-2174 603,-2168"/>
<polyline fill="none" stroke="gray" points="603,-2168 603,-1332 "/>
<path fill="none" stroke="gray" d="M603,-1332C603,-1326 609,-1320 615,-1320"/>
<text text-anchor="middle" x="932.5" y="-2166.1" font-family="Times Roman,serif" font-size="11.00" fill="gray">Selenium</text>
</g>
<g id="graph13" class="cluster"><title>cluster_\WebinoDev\Test\Selenium\WebDriver</title>
<polyline fill="none" stroke="gray" points="623,-1752 1203,-1752 "/>
<path fill="none" stroke="gray" d="M1203,-1752C1209,-1752 1215,-1758 1215,-1764"/>
<polyline fill="none" stroke="gray" points="1215,-1764 1215,-2138 "/>
<path fill="none" stroke="gray" d="M1215,-2138C1215,-2144 1209,-2150 1203,-2150"/>
<polyline fill="none" stroke="gray" points="1203,-2150 623,-2150 "/>
<path fill="none" stroke="gray" d="M623,-2150C617,-2150 611,-2144 611,-2138"/>
<polyline fill="none" stroke="gray" points="611,-2138 611,-1764 "/>
<path fill="none" stroke="gray" d="M611,-1764C611,-1758 617,-1752 623,-1752"/>
<text text-anchor="middle" x="913" y="-2136.1" font-family="Times Roman,serif" font-size="11.00" fill="gray">WebDriver</text>
</g>
<g id="graph14" class="cluster"><title>cluster_\WebinoDev\Test\Exception</title>
<polyline fill="none" stroke="gray" points="617,-1238 1203,-1238 "/>
<path fill="none" stroke="gray" d="M1203,-1238C1209,-1238 1215,-1244 1215,-1250"/>
<polyline fill="none" stroke="gray" points="1215,-1250 1215,-1300 "/>
<path fill="none" stroke="gray" d="M1215,-1300C1215,-1306 1209,-1312 1203,-1312"/>
<polyline fill="none" stroke="gray" points="1203,-1312 617,-1312 "/>
<path fill="none" stroke="gray" d="M617,-1312C611,-1312 605,-1306 605,-1300"/>
<polyline fill="none" stroke="gray" points="605,-1300 605,-1250 "/>
<path fill="none" stroke="gray" d="M605,-1250C605,-1244 611,-1238 617,-1238"/>
<text text-anchor="middle" x="910" y="-1298.1" font-family="Times Roman,serif" font-size="11.00" fill="gray">Exception</text>
</g>
<g id="graph15" class="cluster"><title>cluster_\WebinoDev\Factory</title>
<polyline fill="none" stroke="gray" points="1062,-696 1226,-696 "/>
<path fill="none" stroke="gray" d="M1226,-696C1232,-696 1238,-702 1238,-708"/>
<polyline fill="none" stroke="gray" points="1238,-708 1238,-758 "/>
<path fill="none" stroke="gray" d="M1238,-758C1238,-764 1232,-770 1226,-770"/>
<polyline fill="none" stroke="gray" points="1226,-770 1062,-770 "/>
<path fill="none" stroke="gray" d="M1062,-770C1056,-770 1050,-764 1050,-758"/>
<polyline fill="none" stroke="gray" points="1050,-758 1050,-708 "/>
<path fill="none" stroke="gray" d="M1050,-708C1050,-702 1056,-696 1062,-696"/>
<text text-anchor="middle" x="1144" y="-756.1" font-family="Times Roman,serif" font-size="11.00" fill="gray">Factory</text>
</g>
<g id="graph16" class="cluster"><title>cluster_\WebinoDev\Mail</title>
<polyline fill="none" stroke="gray" points="1116,-614 1172,-614 "/>
<path fill="none" stroke="gray" d="M1172,-614C1178,-614 1184,-620 1184,-626"/>
<polyline fill="none" stroke="gray" points="1184,-626 1184,-676 "/>
<path fill="none" stroke="gray" d="M1184,-676C1184,-682 1178,-688 1172,-688"/>
<polyline fill="none" stroke="gray" points="1172,-688 1116,-688 "/>
<path fill="none" stroke="gray" d="M1116,-688C1110,-688 1104,-682 1104,-676"/>
<polyline fill="none" stroke="gray" points="1104,-676 1104,-626 "/>
<path fill="none" stroke="gray" d="M1104,-626C1104,-620 1110,-614 1116,-614"/>
<text text-anchor="middle" x="1144" y="-674.1" font-family="Times Roman,serif" font-size="11.00" fill="gray">Mail</text>
</g>
<g id="graph17" class="cluster"><title>cluster_\WebinoDev\Vfs</title>
<polyline fill="none" stroke="gray" points="1096,-532 1192,-532 "/>
<path fill="none" stroke="gray" d="M1192,-532C1198,-532 1204,-538 1204,-544"/>
<polyline fill="none" stroke="gray" points="1204,-544 1204,-594 "/>
<path fill="none" stroke="gray" d="M1204,-594C1204,-600 1198,-606 1192,-606"/>
<polyline fill="none" stroke="gray" points="1192,-606 1096,-606 "/>
<path fill="none" stroke="gray" d="M1096,-606C1090,-606 1084,-600 1084,-594"/>
<polyline fill="none" stroke="gray" points="1084,-594 1084,-544 "/>
<path fill="none" stroke="gray" d="M1084,-544C1084,-538 1090,-532 1096,-532"/>
<text text-anchor="middle" x="1144" y="-592.1" font-family="Times Roman,serif" font-size="11.00" fill="gray">Vfs</text>
</g>
<g id="graph18" class="cluster"><title>cluster_\WebinoDev\Di</title>
<polyline fill="none" stroke="gray" points="1101,-412 1187,-412 "/>
<path fill="none" stroke="gray" d="M1187,-412C1193,-412 1199,-418 1199,-424"/>
<polyline fill="none" stroke="gray" points="1199,-424 1199,-512 "/>
<path fill="none" stroke="gray" d="M1199,-512C1199,-518 1193,-524 1187,-524"/>
<polyline fill="none" stroke="gray" points="1187,-524 1101,-524 "/>
<path fill="none" stroke="gray" d="M1101,-524C1095,-524 1089,-518 1089,-512"/>
<polyline fill="none" stroke="gray" points="1089,-512 1089,-424 "/>
<path fill="none" stroke="gray" d="M1089,-424C1089,-418 1095,-412 1101,-412"/>
<text text-anchor="middle" x="1144" y="-510.1" font-family="Times Roman,serif" font-size="11.00" fill="gray">Di</text>
</g>
<g id="graph19" class="cluster"><title>cluster_\WebinoDev\Di\Definition</title>
<polyline fill="none" stroke="gray" points="1109,-420 1179,-420 "/>
<path fill="none" stroke="gray" d="M1179,-420C1185,-420 1191,-426 1191,-432"/>
<polyline fill="none" stroke="gray" points="1191,-432 1191,-482 "/>
<path fill="none" stroke="gray" d="M1191,-482C1191,-488 1185,-494 1179,-494"/>
<polyline fill="none" stroke="gray" points="1179,-494 1109,-494 "/>
<path fill="none" stroke="gray" d="M1109,-494C1103,-494 1097,-488 1097,-482"/>
<polyline fill="none" stroke="gray" points="1097,-482 1097,-432 "/>
<path fill="none" stroke="gray" d="M1097,-432C1097,-426 1103,-420 1109,-420"/>
<text text-anchor="middle" x="1144" y="-480.1" font-family="Times Roman,serif" font-size="11.00" fill="gray">Definition</text>
</g>
<!-- \\WebinoDev\\Assetic\\Cache\\FilesystemCache -->
<g id="node5" class="node"><title>\\WebinoDev\\Assetic\\Cache\\FilesystemCache</title>
<polygon fill="none" stroke="black" points="1203,-2608 1085,-2608 1085,-2572 1203,-2572 1203,-2608"/>
<text text-anchor="middle" x="1144" y="-2587.1" font-family="Courier,monospace" font-size="11.00">FilesystemCache</text>
</g>
<!-- \\Assetic\\Cache\\FilesystemCache -->
<g id="node59" class="node"><title>\\Assetic\\Cache\\FilesystemCache</title>
<ellipse fill="none" stroke="black" cx="682" cy="-326" rx="164.963" ry="18.3848"/>
<text text-anchor="middle" x="682" y="-322.4" font-family="Times Roman,serif" font-size="14.00" fill="gray">\Assetic\Cache\FilesystemCache</text>
</g>
<!-- \\WebinoDev\\Assetic\\Cache\\FilesystemCache&#45;&gt;\\Assetic\\Cache\\FilesystemCache -->
<g id="edge20" class="edge"><title>\\WebinoDev\\Assetic\\Cache\\FilesystemCache&#45;&gt;\\Assetic\\Cache\\FilesystemCache</title>
<path fill="none" stroke="black" d="M1084.8,-2582.83C1065.62,-2577.46 1046.17,-2568.13 1034,-2552 945.665,-2434.92 987.802,-1378.38 962,-1234 898.116,-876.532 737.069,-462.458 693.19,-353.433"/>
<polygon fill="none" stroke="black" points="696.42,-352.086 689.429,-344.125 689.93,-354.708 696.42,-352.086"/>
</g>
<!-- \\WebinoDev\\Tester\\Bootstrap -->
<g id="node7" class="node"><title>\\WebinoDev\\Tester\\Bootstrap</title>
<polygon fill="none" stroke="black" points="1182,-2518 1106,-2518 1106,-2482 1182,-2482 1182,-2518"/>
<text text-anchor="middle" x="1144" y="-2497.1" font-family="Courier,monospace" font-size="11.00">Bootstrap</text>
</g>
<!-- \\WebinoDev\\Config\\App\\Developer -->
<g id="node10" class="node"><title>\\WebinoDev\\Config\\App\\Developer</title>
<polygon fill="none" stroke="black" points="1182,-2406 1106,-2406 1106,-2370 1182,-2370 1182,-2406"/>
<text text-anchor="middle" x="1144" y="-2385.1" font-family="Courier,monospace" font-size="11.00">Developer</text>
</g>
<!-- \\WebinoDev\\Config\\App\\Local -->
<g id="node11" class="node"><title>\\WebinoDev\\Config\\App\\Local</title>
<polygon fill="none" stroke="black" points="1171,-2352 1117,-2352 1117,-2316 1171,-2316 1171,-2352"/>
<text text-anchor="middle" x="1144" y="-2331.1" font-family="Courier,monospace" font-size="11.00">Local</text>
</g>
<!-- \\WebinoDev\\Exception\\DevelopmentException -->
<g id="node13" class="node"><title>\\WebinoDev\\Exception\\DevelopmentException</title>
<polygon fill="none" stroke="black" points="1220,-2262 1068,-2262 1068,-2226 1220,-2226 1220,-2262"/>
<text text-anchor="middle" x="1144" y="-2241.1" font-family="Courier,monospace" font-size="11.00">DevelopmentException</text>
</g>
<!-- \\WebinoDev\\Exception\\ExceptionInterface -->
<g id="node14" class="node"><title>\\WebinoDev\\Exception\\ExceptionInterface</title>
<polygon fill="none" stroke="black" points="751,-2262 613,-2262 613,-2226 751,-2226 751,-2262"/>
<text text-anchor="middle" x="682" y="-2241.1" font-family="Courier,monospace" font-size="11.00">ExceptionInterface</text>
</g>
<!-- \\WebinoDev\\Exception\\DevelopmentException&#45;&gt;\\WebinoDev\\Exception\\ExceptionInterface -->
<g id="edge24" class="edge"><title>\\WebinoDev\\Exception\\DevelopmentException&#45;&gt;\\WebinoDev\\Exception\\ExceptionInterface</title>
<path fill="none" stroke="black" stroke-dasharray="1,5" d="M1067.97,-2244C983.421,-2244 847.469,-2244 761.532,-2244"/>
<polygon fill="none" stroke="black" points="761.307,-2240.5 751.307,-2244 761.307,-2247.5 761.307,-2240.5"/>
</g>
<!-- \\RuntimeException -->
<g id="node61" class="node"><title>\\RuntimeException</title>
<ellipse fill="none" stroke="black" cx="682" cy="-272" rx="103.238" ry="18.3848"/>
<text text-anchor="middle" x="682" y="-268.4" font-family="Times Roman,serif" font-size="14.00" fill="gray">\RuntimeException</text>
</g>
<!-- \\WebinoDev\\Exception\\DevelopmentException&#45;&gt;\\RuntimeException -->
<g id="edge22" class="edge"><title>\\WebinoDev\\Exception\\DevelopmentException&#45;&gt;\\RuntimeException</title>
<path fill="none" stroke="black" d="M1108.89,-2225.98C1083.12,-2210.65 1049.95,-2186.03 1034,-2154 942.072,-1969.35 1103.61,-448.973 962,-299 909.726,-243.639 817.27,-245.696 752.964,-255.766"/>
<polygon fill="none" stroke="black" points="752.185,-252.348 742.896,-257.444 753.335,-259.253 752.185,-252.348"/>
</g>
<!-- \\WebinoDev\\Test\\Functional\\AbstractMailTestCase -->
<g id="node17" class="node"><title>\\WebinoDev\\Test\\Functional\\AbstractMailTestCase</title>
<polygon fill="none" stroke="black" points="1220,-1200 1068,-1200 1068,-1164 1220,-1164 1220,-1200"/>
<text text-anchor="start" x="1110" y="-1187.43" font-family="Courier,monospace" font-size="11.00">«abstract»</text>
<text text-anchor="start" x="1076" y="-1174.23" font-family="Courier,monospace" font-size="11.00">AbstractMailTestCase</text>
</g>
<!-- \\PHPUnit_Framework_TestCase -->
<g id="node64" class="node"><title>\\PHPUnit_Framework_TestCase</title>
<ellipse fill="none" stroke="black" cx="165" cy="-948" rx="164.756" ry="18.3848"/>
<text text-anchor="middle" x="165" y="-944.4" font-family="Times Roman,serif" font-size="14.00" fill="gray">\PHPUnit_Framework_TestCase</text>
</g>
<!-- \\WebinoDev\\Test\\Functional\\AbstractMailTestCase&#45;&gt;\\PHPUnit_Framework_TestCase -->
<g id="edge26" class="edge"><title>\\WebinoDev\\Test\\Functional\\AbstractMailTestCase&#45;&gt;\\PHPUnit_Framework_TestCase</title>
<path fill="none" stroke="black" d="M1067.45,-1176.28C1054.66,-1171.97 1042.72,-1165.26 1034,-1155 902.616,-1000.44 1106.24,-387.634 962,-245 917.655,-201.149 744.222,-230.226 682,-226"/>
</g>
<!-- \\WebinoDev\\Test\\Functional\\MailTrait -->
<g id="node18" class="node"><title>\\WebinoDev\\Test\\Functional\\MailTrait</title>
<polygon fill="none" stroke="black" points="1182,-1146 1106,-1146 1106,-1110 1182,-1110 1182,-1146"/>
<text text-anchor="middle" x="1144" y="-1125.1" font-family="Courier,monospace" font-size="11.00">MailTrait</text>
</g>
<!-- \\WebinoDev\\Test\\Functional\\SeleniumTestTrait -->
<g id="node19" class="node"><title>\\WebinoDev\\Test\\Functional\\SeleniumTestTrait</title>
<polygon fill="none" stroke="black" points="1209,-1092 1079,-1092 1079,-1056 1209,-1056 1209,-1092"/>
<text text-anchor="middle" x="1144" y="-1071.1" font-family="Courier,monospace" font-size="11.00">SeleniumTestTrait</text>
</g>
<!-- \\WebinoDev\\Test\\Selenium\\WebDriver\\Select -->
<g id="node22" class="node"><title>\\WebinoDev\\Test\\Selenium\\WebDriver\\Select</title>
<polygon fill="none" stroke="black" points="1172,-2120 1116,-2120 1116,-2084 1172,-2084 1172,-2120"/>
<text text-anchor="middle" x="1144" y="-2099.1" font-family="Courier,monospace" font-size="11.00">Select</text>
</g>
<!-- \\WebinoDev\\Test\\Selenium\\WebDriver\\SimpleItem -->
<g id="node23" class="node"><title>\\WebinoDev\\Test\\Selenium\\WebDriver\\SimpleItem</title>
<polygon fill="none" stroke="black" points="1186,-2066 1102,-2066 1102,-2030 1186,-2030 1186,-2066"/>
<text text-anchor="middle" x="1144" y="-2045.1" font-family="Courier,monospace" font-size="11.00">SimpleItem</text>
</g>
<!-- \\WebinoDev\\Test\\Selenium\\WebDriver\\TestWindow -->
<g id="node24" class="node"><title>\\WebinoDev\\Test\\Selenium\\WebDriver\\TestWindow</title>
<polygon fill="none" stroke="black" points="1186,-2012 1102,-2012 1102,-1976 1186,-1976 1186,-2012"/>
<text text-anchor="middle" x="1144" y="-1991.1" font-family="Courier,monospace" font-size="11.00">TestWindow</text>
</g>
<!-- \\WebinoDev\\Test\\Selenium\\WebDriver\\WindowInterface -->
<g id="node30" class="node"><title>\\WebinoDev\\Test\\Selenium\\WebDriver\\WindowInterface</title>
<polygon fill="none" stroke="black" points="741,-2012 623,-2012 623,-1976 741,-1976 741,-2012"/>
<text text-anchor="middle" x="682" y="-1991.1" font-family="Courier,monospace" font-size="11.00">WindowInterface</text>
</g>
<!-- \\WebinoDev\\Test\\Selenium\\WebDriver\\TestWindow&#45;&gt;\\WebinoDev\\Test\\Selenium\\WebDriver\\WindowInterface -->
<g id="edge30" class="edge"><title>\\WebinoDev\\Test\\Selenium\\WebDriver\\TestWindow&#45;&gt;\\WebinoDev\\Test\\Selenium\\WebDriver\\WindowInterface</title>
<path fill="none" stroke="black" stroke-dasharray="1,5" d="M1101.78,-1994C1021.96,-1994 848.263,-1994 751.182,-1994"/>
<polygon fill="none" stroke="black" points="751.17,-1990.5 741.17,-1994 751.17,-1997.5 751.17,-1990.5"/>
</g>
<!-- \\WebinoDev\\Test\\Selenium\\WebDriver\\TestSession -->
<g id="node25" class="node"><title>\\WebinoDev\\Test\\Selenium\\WebDriver\\TestSession</title>
<polygon fill="none" stroke="black" points="1189,-1958 1099,-1958 1099,-1922 1189,-1922 1189,-1958"/>
<text text-anchor="middle" x="1144" y="-1937.1" font-family="Courier,monospace" font-size="11.00">TestSession</text>
</g>
<!-- \\WebinoDev\\Test\\Selenium\\WebDriver\\TestWebDriver -->
<g id="node26" class="node"><title>\\WebinoDev\\Test\\Selenium\\WebDriver\\TestWebDriver</title>
<polygon fill="none" stroke="black" points="1196,-1904 1092,-1904 1092,-1868 1196,-1868 1196,-1904"/>
<text text-anchor="middle" x="1144" y="-1883.1" font-family="Courier,monospace" font-size="11.00">TestWebDriver</text>
</g>
<!-- \\WebinoDev\\Test\\Selenium\\WebDriver\\TestElement -->
<g id="node27" class="node"><title>\\WebinoDev\\Test\\Selenium\\WebDriver\\TestElement</title>
<polygon fill="none" stroke="black" points="1189,-1850 1099,-1850 1099,-1814 1189,-1814 1189,-1850"/>
<text text-anchor="middle" x="1144" y="-1829.1" font-family="Courier,monospace" font-size="11.00">TestElement</text>
</g>
<!-- \\WebinoDev\\Test\\Selenium\\WebDriver\\ElementInterface -->
<g id="node28" class="node"><title>\\WebinoDev\\Test\\Selenium\\WebDriver\\ElementInterface</title>
<polygon fill="none" stroke="black" points="744,-1850 620,-1850 620,-1814 744,-1814 744,-1850"/>
<text text-anchor="middle" x="682" y="-1829.1" font-family="Courier,monospace" font-size="11.00">ElementInterface</text>
</g>
<!-- \\WebinoDev\\Test\\Selenium\\WebDriver\\TestElement&#45;&gt;\\WebinoDev\\Test\\Selenium\\WebDriver\\ElementInterface -->
<g id="edge32" class="edge"><title>\\WebinoDev\\Test\\Selenium\\WebDriver\\TestElement&#45;&gt;\\WebinoDev\\Test\\Selenium\\WebDriver\\ElementInterface</title>
<path fill="none" stroke="black" stroke-dasharray="1,5" d="M1098.44,-1832C1018.27,-1832 851.364,-1832 754.972,-1832"/>
<polygon fill="none" stroke="black" points="754.723,-1828.5 744.723,-1832 754.723,-1835.5 754.723,-1828.5"/>
</g>
<!-- \\WebinoDev\\Test\\Selenium\\WebDriver\\SessionInterface -->
<g id="node29" class="node"><title>\\WebinoDev\\Test\\Selenium\\WebDriver\\SessionInterface</title>
<polygon fill="none" stroke="black" points="1206,-1796 1082,-1796 1082,-1760 1206,-1760 1206,-1796"/>
<text text-anchor="middle" x="1144" y="-1775.1" font-family="Courier,monospace" font-size="11.00">SessionInterface</text>
</g>
<!-- \\WebinoDev\\Test\\Selenium\\AbstractAuthenticationTestCase -->
<g id="node31" class="node"><title>\\WebinoDev\\Test\\Selenium\\AbstractAuthenticationTestCase</title>
<polygon fill="none" stroke="black" points="1254,-1742 1034,-1742 1034,-1706 1254,-1706 1254,-1742"/>
<text text-anchor="start" x="1110" y="-1729.43" font-family="Courier,monospace" font-size="11.00">«abstract»</text>
<text text-anchor="start" x="1042.5" y="-1716.23" font-family="Courier,monospace" font-size="11.00">AbstractAuthenticationTestCase</text>
</g>
<!-- \\WebinoDev\\Test\\Selenium\\AbstractTestCase -->
<g id="node32" class="node"><title>\\WebinoDev\\Test\\Selenium\\AbstractTestCase</title>
<polygon fill="none" stroke="black" points="745,-1688 619,-1688 619,-1652 745,-1652 745,-1688"/>
<text text-anchor="start" x="648" y="-1675.43" font-family="Courier,monospace" font-size="11.00">«abstract»</text>
<text text-anchor="start" x="627.5" y="-1662.23" font-family="Courier,monospace" font-size="11.00">AbstractTestCase</text>
</g>
<!-- \\WebinoDev\\Test\\Selenium\\AbstractAuthenticationTestCase&#45;&gt;\\WebinoDev\\Test\\Selenium\\AbstractTestCase -->
<g id="edge28" class="edge"><title>\\WebinoDev\\Test\\Selenium\\AbstractAuthenticationTestCase&#45;&gt;\\WebinoDev\\Test\\Selenium\\AbstractTestCase</title>
<path fill="none" stroke="black" d="M1033.93,-1711.13C947.768,-1701.06 830.354,-1687.34 755.348,-1678.57"/>
<polygon fill="none" stroke="black" points="755.392,-1675.05 745.054,-1677.37 754.58,-1682.01 755.392,-1675.05"/>
</g>
<!-- \\WebinoDev\\Test\\Selenium\\AbstractTestCase&#45;&gt;\\PHPUnit_Framework_TestCase -->
<g id="edge34" class="edge"><title>\\WebinoDev\\Test\\Selenium\\AbstractTestCase&#45;&gt;\\PHPUnit_Framework_TestCase</title>
<path fill="none" stroke="black" d="M666.472,-1651.69C622.995,-1600.14 497.02,-1448.91 402,-1316 313.299,-1191.93 218.013,-1036.22 180.984,-974.731"/>
<polygon fill="none" stroke="black" points="183.902,-972.792 175.75,-966.024 177.902,-976.398 183.902,-972.792"/>
</g>
<!-- \\WebinoDev\\Test\\Selenium\\AbstractMailTestCase -->
<g id="node33" class="node"><title>\\WebinoDev\\Test\\Selenium\\AbstractMailTestCase</title>
<polygon fill="none" stroke="black" points="1220,-1688 1068,-1688 1068,-1652 1220,-1652 1220,-1688"/>
<text text-anchor="start" x="1110" y="-1675.43" font-family="Courier,monospace" font-size="11.00">«abstract»</text>
<text text-anchor="start" x="1076" y="-1662.23" font-family="Courier,monospace" font-size="11.00">AbstractMailTestCase</text>
</g>
<!-- \\WebinoDev\\Test\\Selenium\\AbstractMailTestCase&#45;&gt;\\WebinoDev\\Test\\Selenium\\AbstractTestCase -->
<g id="edge36" class="edge"><title>\\WebinoDev\\Test\\Selenium\\AbstractMailTestCase&#45;&gt;\\WebinoDev\\Test\\Selenium\\AbstractTestCase</title>
<path fill="none" stroke="black" d="M1067.45,-1670C980.834,-1670 840.747,-1670 755.437,-1670"/>
<polygon fill="none" stroke="black" points="755.312,-1666.5 745.312,-1670 755.312,-1673.5 755.312,-1666.5"/>
</g>
<!-- \\WebinoDev\\Test\\Selenium\\ElementsTrait -->
<g id="node34" class="node"><title>\\WebinoDev\\Test\\Selenium\\ElementsTrait</title>
<polygon fill="none" stroke="black" points="1196,-1634 1092,-1634 1092,-1598 1196,-1598 1196,-1634"/>
<text text-anchor="middle" x="1144" y="-1613.1" font-family="Courier,monospace" font-size="11.00">ElementsTrait</text>
</g>
<!-- \\WebinoDev\\Test\\Selenium\\ElementTrait -->
<g id="node35" class="node"><title>\\WebinoDev\\Test\\Selenium\\ElementTrait</title>
<polygon fill="none" stroke="black" points="1193,-1580 1095,-1580 1095,-1544 1193,-1544 1193,-1580"/>
<text text-anchor="middle" x="1144" y="-1559.1" font-family="Courier,monospace" font-size="11.00">ElementTrait</text>
</g>
<!-- \\WebinoDev\\Test\\Selenium\\MailTrait -->
<g id="node36" class="node"><title>\\WebinoDev\\Test\\Selenium\\MailTrait</title>
<polygon fill="none" stroke="black" points="1182,-1526 1106,-1526 1106,-1490 1182,-1490 1182,-1526"/>
<text text-anchor="middle" x="1144" y="-1505.1" font-family="Courier,monospace" font-size="11.00">MailTrait</text>
</g>
<!-- \\WebinoDev\\Test\\Selenium\\NotifyTrait -->
<g id="node37" class="node"><title>\\WebinoDev\\Test\\Selenium\\NotifyTrait</title>
<polygon fill="none" stroke="black" points="1189,-1472 1099,-1472 1099,-1436 1189,-1436 1189,-1472"/>
<text text-anchor="middle" x="1144" y="-1451.1" font-family="Courier,monospace" font-size="11.00">NotifyTrait</text>
</g>
<!-- \\WebinoDev\\Test\\Selenium\\ScreenshotTrait -->
<g id="node38" class="node"><title>\\WebinoDev\\Test\\Selenium\\ScreenshotTrait</title>
<polygon fill="none" stroke="black" points="1203,-1418 1085,-1418 1085,-1382 1203,-1382 1203,-1418"/>
<text text-anchor="middle" x="1144" y="-1397.1" font-family="Courier,monospace" font-size="11.00">ScreenshotTrait</text>
</g>
<!-- \\WebinoDev\\Test\\Selenium\\AuthenticationTrait -->
<g id="node39" class="node"><title>\\WebinoDev\\Test\\Selenium\\AuthenticationTrait</title>
<polygon fill="none" stroke="black" points="1216,-1364 1072,-1364 1072,-1328 1216,-1328 1216,-1364"/>
<text text-anchor="middle" x="1144" y="-1343.1" font-family="Courier,monospace" font-size="11.00">AuthenticationTrait</text>
</g>
<!-- \\WebinoDev\\Test\\Exception\\RuntimeException -->
<g id="node41" class="node"><title>\\WebinoDev\\Test\\Exception\\RuntimeException</title>
<polygon fill="none" stroke="black" points="1206,-1282 1082,-1282 1082,-1246 1206,-1246 1206,-1282"/>
<text text-anchor="middle" x="1144" y="-1261.1" font-family="Courier,monospace" font-size="11.00">RuntimeException</text>
</g>
<!-- \\WebinoDev\\Test\\Exception\\ExceptionInterface -->
<g id="node42" class="node"><title>\\WebinoDev\\Test\\Exception\\ExceptionInterface</title>
<polygon fill="none" stroke="black" points="751,-1282 613,-1282 613,-1246 751,-1246 751,-1282"/>
<text text-anchor="middle" x="682" y="-1261.1" font-family="Courier,monospace" font-size="11.00">ExceptionInterface</text>
</g>
<!-- \\WebinoDev\\Test\\Exception\\RuntimeException&#45;&gt;\\WebinoDev\\Test\\Exception\\ExceptionInterface -->
<g id="edge42" class="edge"><title>\\WebinoDev\\Test\\Exception\\RuntimeException&#45;&gt;\\WebinoDev\\Test\\Exception\\ExceptionInterface</title>
<path fill="none" stroke="black" stroke-dasharray="1,5" d="M1081.21,-1264C998.184,-1264 851.833,-1264 761.272,-1264"/>
<polygon fill="none" stroke="black" points="761.056,-1260.5 751.056,-1264 761.056,-1267.5 761.056,-1260.5"/>
</g>
<!-- \\WebinoDev\\Test\\Exception\\RuntimeException&#45;&gt;\\RuntimeException -->
<g id="edge40" class="edge"><title>\\WebinoDev\\Test\\Exception\\RuntimeException&#45;&gt;\\RuntimeException</title>
<path fill="none" stroke="black" d="M1081.27,-1260.26C1063.45,-1256.03 1045.73,-1248.19 1034,-1234 901.238,-1073.37 1107.93,-447.77 962,-299 909.088,-245.058 817.855,-246.457 753.951,-256.006"/>
<polygon fill="none" stroke="black" points="753.264,-252.571 743.939,-257.601 754.366,-259.484 753.264,-252.571"/>
</g>
<!-- \\WebinoDev\\Test\\TestCase -->
<g id="node43" class="node"><title>\\WebinoDev\\Test\\TestCase</title>
<polygon fill="none" stroke="black" points="1179,-1038 1109,-1038 1109,-1002 1179,-1002 1179,-1038"/>
<text text-anchor="middle" x="1144" y="-1017.1" font-family="Courier,monospace" font-size="11.00">TestCase</text>
</g>
<!-- \\WebinoDev\\Test\\TestCase&#45;&gt;\\PHPUnit_Framework_TestCase -->
<g id="edge38" class="edge"><title>\\WebinoDev\\Test\\TestCase&#45;&gt;\\PHPUnit_Framework_TestCase</title>
<path fill="none" stroke="black" d="M1108.33,-1021.25C1083.66,-1020.03 1052.14,-1013.97 1034,-993 924.767,-866.691 1081.73,-361.403 962,-245 917.284,-201.527 744.222,-230.226 682,-226"/>
<path fill="none" stroke="black" d="M682,-226C619.778,-221.774 451.394,-206.926 402,-245 288.373,-332.586 193.031,-800.104 170.198,-919.977"/>
<polygon fill="none" stroke="black" points="166.748,-919.385 168.33,-929.861 173.626,-920.685 166.748,-919.385"/>
</g>
<!-- \\WebinoDev\\Test\\Autoloader -->
<g id="node44" class="node"><title>\\WebinoDev\\Test\\Autoloader</title>
<polygon fill="none" stroke="black" points="1186,-984 1102,-984 1102,-948 1186,-948 1186,-984"/>
<text text-anchor="middle" x="1144" y="-963.1" font-family="Courier,monospace" font-size="11.00">Autoloader</text>
</g>
<!-- \\WebinoDev\\Test\\DomTrait -->
<g id="node45" class="node"><title>\\WebinoDev\\Test\\DomTrait</title>
<polygon fill="none" stroke="black" points="1179,-930 1109,-930 1109,-894 1179,-894 1179,-930"/>
<text text-anchor="middle" x="1144" y="-909.1" font-family="Courier,monospace" font-size="11.00">DomTrait</text>
</g>
<!-- \\WebinoDev\\Test\\MailTrait -->
<g id="node46" class="node"><title>\\WebinoDev\\Test\\MailTrait</title>
<polygon fill="none" stroke="black" points="1182,-876 1106,-876 1106,-840 1182,-840 1182,-876"/>
<text text-anchor="middle" x="1144" y="-855.1" font-family="Courier,monospace" font-size="11.00">MailTrait</text>
</g>
<!-- \\WebinoDev\\Test\\PdfTrait -->
<g id="node47" class="node"><title>\\WebinoDev\\Test\\PdfTrait</title>
<polygon fill="none" stroke="black" points="1179,-822 1109,-822 1109,-786 1179,-786 1179,-822"/>
<text text-anchor="middle" x="1144" y="-801.1" font-family="Courier,monospace" font-size="11.00">PdfTrait</text>
</g>
<!-- \\WebinoDev\\Factory\\ProfilingAdapterFactory -->
<g id="node49" class="node"><title>\\WebinoDev\\Factory\\ProfilingAdapterFactory</title>
<polygon fill="none" stroke="black" points="1230,-740 1058,-740 1058,-704 1230,-704 1230,-740"/>
<text text-anchor="middle" x="1144" y="-719.1" font-family="Courier,monospace" font-size="11.00">ProfilingAdapterFactory</text>
</g>
<!-- \\Zend\\ServiceManager\\FactoryInterface -->
<g id="node74" class="node"><title>\\Zend\\ServiceManager\\FactoryInterface</title>
<ellipse fill="none" stroke="black" cx="682" cy="-180" rx="202.94" ry="18.3848"/>
<text text-anchor="middle" x="682" y="-176.4" font-family="Times Roman,serif" font-size="14.00" fill="gray">\Zend\ServiceManager\FactoryInterface</text>
</g>
<!-- \\WebinoDev\\Factory\\ProfilingAdapterFactory&#45;&gt;\\Zend\\ServiceManager\\FactoryInterface -->
<g id="edge44" class="edge"><title>\\WebinoDev\\Factory\\ProfilingAdapterFactory&#45;&gt;\\Zend\\ServiceManager\\FactoryInterface</title>
<path fill="none" stroke="black" stroke-dasharray="1,5" d="M1057.99,-709.484C1048.94,-705.162 1040.64,-699.471 1034,-692 890.671,-530.78 1117.19,-361.837 962,-212 916.664,-168.228 846.071,-160.401 787.111,-163.43"/>
<polygon fill="none" stroke="black" points="786.765,-159.945 777.002,-164.06 787.2,-166.931 786.765,-159.945"/>
</g>
<!-- \\WebinoDev\\Mail\\Message -->
<g id="node51" class="node"><title>\\WebinoDev\\Mail\\Message</title>
<polygon fill="none" stroke="black" points="1176,-658 1112,-658 1112,-622 1176,-622 1176,-658"/>
<text text-anchor="middle" x="1144" y="-637.1" font-family="Courier,monospace" font-size="11.00">Message</text>
</g>
<!-- \\Zend\\Mail\\Message -->
<g id="node76" class="node"><title>\\Zend\\Mail\\Message</title>
<ellipse fill="none" stroke="black" cx="682" cy="-126" rx="106.98" ry="18.3848"/>
<text text-anchor="middle" x="682" y="-122.4" font-family="Times Roman,serif" font-size="14.00" fill="gray">\Zend\Mail\Message</text>
</g>
<!-- \\WebinoDev\\Mail\\Message&#45;&gt;\\Zend\\Mail\\Message -->
<g id="edge46" class="edge"><title>\\WebinoDev\\Mail\\Message&#45;&gt;\\Zend\\Mail\\Message</title>
<path fill="none" stroke="black" d="M1111.97,-640.122C1087.03,-638.395 1053.48,-631.749 1034,-610 896.819,-456.835 1111.7,-293.956 962,-153 908.533,-102.655 821.264,-102.14 758.355,-110.286"/>
<polygon fill="none" stroke="black" points="757.505,-106.87 748.085,-111.719 758.473,-113.803 757.505,-106.87"/>
</g>
<!-- \\WebinoDev\\Vfs\\StreamWrapper -->
<g id="node53" class="node"><title>\\WebinoDev\\Vfs\\StreamWrapper</title>
<polygon fill="none" stroke="black" points="1196,-576 1092,-576 1092,-540 1196,-540 1196,-576"/>
<text text-anchor="middle" x="1144" y="-555.1" font-family="Courier,monospace" font-size="11.00">StreamWrapper</text>
</g>
<!-- \\org\\bovigo\\vfs\\vfsStreamWrapper -->
<g id="node80" class="node"><title>\\org\\bovigo\\vfs\\vfsStreamWrapper</title>
<ellipse fill="none" stroke="black" cx="682" cy="-72" rx="176.984" ry="18.3848"/>
<text text-anchor="middle" x="682" y="-68.4" font-family="Times Roman,serif" font-size="14.00" fill="gray">\org\bovigo\vfs\vfsStreamWrapper</text>
</g>
<!-- \\WebinoDev\\Vfs\\StreamWrapper&#45;&gt;\\org\\bovigo\\vfs\\vfsStreamWrapper -->
<g id="edge50" class="edge"><title>\\WebinoDev\\Vfs\\StreamWrapper&#45;&gt;\\org\\bovigo\\vfs\\vfsStreamWrapper</title>
<path fill="none" stroke="black" d="M1091.99,-541.032C1070.89,-531.588 1048.19,-517.67 1034,-498 928.568,-351.865 1094.56,-221.063 962,-99 912.229,-53.1703 834.327,-49.0361 773.316,-54.8908"/>
<polygon fill="none" stroke="black" points="772.865,-51.4189 763.291,-55.956 773.605,-58.3797 772.865,-51.4189"/>
</g>
<!-- \\WebinoDev\\Di\\Definition\\Generator -->
<g id="node56" class="node"><title>\\WebinoDev\\Di\\Definition\\Generator</title>
<polygon fill="none" stroke="black" points="1182,-464 1106,-464 1106,-428 1182,-428 1182,-464"/>
<text text-anchor="middle" x="1144" y="-443.1" font-family="Courier,monospace" font-size="11.00">Generator</text>
</g>
<!-- \\WebinoDev\\Module -->
<g id="node57" class="node"><title>\\WebinoDev\\Module</title>
<polygon fill="none" stroke="black" points="1172,-404 1116,-404 1116,-368 1172,-368 1172,-404"/>
<text text-anchor="middle" x="1144" y="-383.1" font-family="Courier,monospace" font-size="11.00">Module</text>
</g>
<!-- \\Zend\\ModuleManager\\Feature\\ConfigProviderInterface -->
<g id="node78" class="node"><title>\\Zend\\ModuleManager\\Feature\\ConfigProviderInterface</title>
<ellipse fill="none" stroke="black" cx="682" cy="-18" rx="278.808" ry="18.3848"/>
<text text-anchor="middle" x="682" y="-14.4" font-family="Times Roman,serif" font-size="14.00" fill="gray">\Zend\ModuleManager\Feature\ConfigProviderInterface</text>
</g>
<!-- \\WebinoDev\\Module&#45;&gt;\\Zend\\ModuleManager\\Feature\\ConfigProviderInterface -->
<g id="edge48" class="edge"><title>\\WebinoDev\\Module&#45;&gt;\\Zend\\ModuleManager\\Feature\\ConfigProviderInterface</title>
<path fill="none" stroke="black" stroke-dasharray="1,5" d="M1140.56,-367.912C1128.38,-309.439 1081.46,-124.698 962,-45 953.934,-39.6191 945.436,-34.9104 936.62,-30.802"/>
<polygon fill="none" stroke="black" points="937.887,-27.5362 927.323,-26.7349 935.082,-33.9494 937.887,-27.5362"/>
</g>
</g>
</svg>
